%TF.GenerationSoftware,KiCad,Pcbnew,9.0.8-9.0.8~ubuntu22.04.1*%
%TF.CreationDate,2026-04-04T02:28:35+02:00*%
%TF.ProjectId,PCB_PCB_hermes_2026-04-04,5043425f-5043-4425-9f68-65726d65735f,rev?*%
%TF.SameCoordinates,Original*%
%TF.FileFunction,Copper,L2,Bot*%
%TF.FilePolarity,Positive*%
%FSLAX46Y46*%
G04 Gerber Fmt 4.6, Leading zero omitted, Abs format (unit mm)*
G04 Created by KiCad (PCBNEW 9.0.8-9.0.8~ubuntu22.04.1) date 2026-04-04 02:28:35*
%MOMM*%
%LPD*%
G01*
G04 APERTURE LIST*
%TA.AperFunction,ComponentPad*%
%ADD10C,1.880000*%
%TD*%
%TA.AperFunction,ComponentPad*%
%ADD11C,3.000000*%
%TD*%
%TA.AperFunction,ComponentPad*%
%ADD12C,1.524000*%
%TD*%
%TA.AperFunction,ComponentPad*%
%ADD13R,1.778000X1.778000*%
%TD*%
%TA.AperFunction,ComponentPad*%
%ADD14C,1.778000*%
%TD*%
%TA.AperFunction,ComponentPad*%
%ADD15C,1.650000*%
%TD*%
%TA.AperFunction,ViaPad*%
%ADD16C,0.620000*%
%TD*%
%TA.AperFunction,Conductor*%
%ADD17C,0.500000*%
%TD*%
G04 APERTURE END LIST*
D10*
%TO.P,R2,1*%
%TO.N,SCL*%
X-82957000Y10892000D03*
%TO.P,R2,2*%
%TO.N,3.3V*%
X-82957000Y3272000D03*
%TD*%
D11*
%TO.P,SW2,1*%
%TO.N,GND*%
X-87021000Y-15270000D03*
%TO.P,SW2,2*%
%TO.N,SW2_2*%
X-80671000Y-12730000D03*
%TD*%
D12*
%TO.P,C1,1*%
%TO.N,3.3V*%
X-51588000Y-9428000D03*
%TO.P,C1,2*%
%TO.N,GND*%
X-51588000Y-11968000D03*
%TD*%
%TO.P,D2,1*%
%TO.N,U1_2*%
X-110897000Y7336000D03*
%TO.P,D2,2*%
%TO.N,SW1_2*%
X-110897000Y-284000D03*
%TD*%
D10*
%TO.P,R1,1*%
%TO.N,SDA*%
X-68987000Y11400000D03*
%TO.P,R1,2*%
%TO.N,3.3V*%
X-68987000Y3780000D03*
%TD*%
D11*
%TO.P,SW1,1*%
%TO.N,GND*%
X-114326000Y-15016000D03*
%TO.P,SW1,2*%
%TO.N,SW1_2*%
X-107976000Y-12476000D03*
%TD*%
D13*
%TO.P,A1,1*%
%TO.N,3.3V*%
X-48032000Y-15397000D03*
D14*
%TO.P,A1,2*%
%TO.N,GND*%
X-48032000Y-17937000D03*
%TO.P,A1,3*%
%TO.N,SCL*%
X-48032000Y-20477000D03*
%TO.P,A1,4*%
%TO.N,SDA*%
X-48032000Y-23017000D03*
%TD*%
D12*
%TO.P,D1,1*%
%TO.N,U1_1*%
X-101118000Y8225000D03*
%TO.P,D1,2*%
%TO.N,SW2_2*%
X-101118000Y605000D03*
%TD*%
%TO.P,C2,1*%
%TO.N,3.3V*%
X-47016000Y11019000D03*
%TO.P,C2,2*%
%TO.N,GND*%
X-47016000Y13559000D03*
%TD*%
D15*
%TO.P,OLED1,1*%
%TO.N,GND*%
X-51080000Y19402000D03*
%TO.P,OLED1,2*%
%TO.N,3.3V*%
X-53620000Y19400000D03*
%TO.P,OLED1,3*%
%TO.N,SCL*%
X-56160000Y19400000D03*
%TO.P,OLED1,4*%
%TO.N,SDA*%
X-58700000Y19400000D03*
%TD*%
D12*
%TO.P,U1,1*%
%TO.N,U1_1*%
X-121057000Y45055000D03*
%TO.P,U1,2*%
%TO.N,U1_2*%
X-121057000Y42515000D03*
%TO.P,U1,3*%
%TO.N,N/C*%
X-121057000Y39975000D03*
%TO.P,U1,4*%
X-121057000Y37435000D03*
%TO.P,U1,5*%
%TO.N,SDA*%
X-121057000Y34895000D03*
%TO.P,U1,6*%
%TO.N,SCL*%
X-121057000Y32355000D03*
%TO.P,U1,7*%
%TO.N,N/C*%
X-121057000Y29815000D03*
%TO.P,U1,8*%
X-105817000Y29815000D03*
%TO.P,U1,9*%
X-105817000Y32355000D03*
%TO.P,U1,10*%
X-105817000Y34895000D03*
%TO.P,U1,11*%
X-105817000Y37435000D03*
%TO.P,U1,12*%
%TO.N,3.3V*%
X-105817000Y39975000D03*
%TO.P,U1,13*%
%TO.N,GND*%
X-105817000Y42515000D03*
%TO.P,U1,14*%
%TO.N,N/C*%
X-105817000Y45055000D03*
%TD*%
D16*
%TO.N,*%
X9880000Y-17683000D03*
%TO.N,3.3V*%
X-51588000Y-2078000D03*
%TO.N,SDA*%
X-77496000Y22322000D03*
%TD*%
D17*
%TO.N,3.3V*%
X-63129000Y-2078000D02*
X-68987000Y3780000D01*
X-51588000Y-2078000D02*
X-63129000Y-2078000D01*
%TO.N,SCL*%
X-59589000Y14067000D02*
X-79782000Y14067000D01*
X-56414000Y19147000D02*
X-56414000Y17242000D01*
X-99594000Y10892000D02*
X-121057000Y32355000D01*
X-82957000Y10892000D02*
X-99594000Y10892000D01*
X-56414000Y17242000D02*
X-59589000Y14067000D01*
X-79782000Y14067000D02*
X-83211000Y10638000D01*
%TO.N,SDA*%
X-102515000Y22322000D02*
X-115088000Y34895000D01*
X-115088000Y34895000D02*
X-121057000Y34895000D01*
X-77496000Y22322000D02*
X-102515000Y22322000D01*
%TD*%
%TA.AperFunction,Conductor*%
%TO.N,GND*%
G36*
X-33032397Y47351024D02*
G01*
X-32965438Y47331067D01*
X-32919899Y47278077D01*
X-32908903Y47227546D01*
X-32784498Y17494646D01*
X-32784547Y17494476D01*
X-32784498Y17494477D01*
X-32668051Y-24076724D01*
X-32659246Y-27219844D01*
X-32678743Y-27286938D01*
X-32731419Y-27332841D01*
X-32782910Y-27344191D01*
X-125385164Y-27594806D01*
X-125452257Y-27575302D01*
X-125498155Y-27522623D01*
X-125509500Y-27470806D01*
X-125509500Y-22927005D01*
X-49175500Y-22927005D01*
X-49175500Y-23106995D01*
X-49147343Y-23284770D01*
X-49091723Y-23455952D01*
X-49010009Y-23616325D01*
X-48904213Y-23761940D01*
X-48776940Y-23889213D01*
X-48631325Y-23995009D01*
X-48470952Y-24076723D01*
X-48299770Y-24132343D01*
X-48121995Y-24160500D01*
X-48121994Y-24160500D01*
X-47942006Y-24160500D01*
X-47942005Y-24160500D01*
X-47764230Y-24132343D01*
X-47678639Y-24104533D01*
X-47593050Y-24076724D01*
X-47593047Y-24076723D01*
X-47511333Y-24035087D01*
X-47432675Y-23995009D01*
X-47287060Y-23889213D01*
X-47159787Y-23761940D01*
X-47053991Y-23616325D01*
X-46972276Y-23455952D01*
X-46972275Y-23455949D01*
X-46916657Y-23284771D01*
X-46888500Y-23106994D01*
X-46888500Y-22927005D01*
X-46916657Y-22749228D01*
X-46972275Y-22578050D01*
X-46972276Y-22578047D01*
X-47053991Y-22417674D01*
X-47114352Y-22334595D01*
X-47159787Y-22272060D01*
X-47159789Y-22272058D01*
X-47159789Y-22272057D01*
X-47287057Y-22144789D01*
X-47432674Y-22038991D01*
X-47593047Y-21957276D01*
X-47593050Y-21957275D01*
X-47764228Y-21901657D01*
X-47882746Y-21882885D01*
X-47942005Y-21873500D01*
X-48121995Y-21873500D01*
X-48210882Y-21887578D01*
X-48299771Y-21901657D01*
X-48470949Y-21957275D01*
X-48470952Y-21957276D01*
X-48631325Y-22038991D01*
X-48776940Y-22144787D01*
X-48904213Y-22272060D01*
X-49010008Y-22417674D01*
X-49091723Y-22578047D01*
X-49091723Y-22578048D01*
X-49147343Y-22749230D01*
X-49175500Y-22927005D01*
X-125509500Y-22927005D01*
X-125509500Y-17469389D01*
X-116696500Y-17469389D01*
X-116696500Y-17642611D01*
X-116669402Y-17813701D01*
X-116615873Y-17978445D01*
X-116537232Y-18132788D01*
X-116435414Y-18272928D01*
X-116312928Y-18395414D01*
X-116172788Y-18497232D01*
X-116018445Y-18575873D01*
X-115853701Y-18629402D01*
X-115682611Y-18656500D01*
X-115682610Y-18656500D01*
X-115509390Y-18656500D01*
X-115509389Y-18656500D01*
X-115338299Y-18629402D01*
X-115173555Y-18575873D01*
X-115019212Y-18497232D01*
X-114879072Y-18395414D01*
X-114756586Y-18272928D01*
X-114654768Y-18132788D01*
X-114576127Y-17978445D01*
X-114522598Y-17813701D01*
X-114495500Y-17642611D01*
X-114495500Y-17469389D01*
X-114502715Y-17423831D01*
X-114502715Y-17423829D01*
X-114505144Y-17408494D01*
X-112766500Y-17408494D01*
X-112766500Y-17703506D01*
X-112727993Y-17995993D01*
X-112651639Y-18280952D01*
X-112538743Y-18553507D01*
X-112391238Y-18808994D01*
X-112211646Y-19043042D01*
X-112003042Y-19251646D01*
X-111768994Y-19431238D01*
X-111513507Y-19578743D01*
X-111240952Y-19691639D01*
X-110955993Y-19767993D01*
X-110663506Y-19806500D01*
X-110663499Y-19806500D01*
X-110368501Y-19806500D01*
X-110368494Y-19806500D01*
X-110076007Y-19767993D01*
X-109791048Y-19691639D01*
X-109775594Y-19685238D01*
X-109581374Y-19604789D01*
X-109518493Y-19578743D01*
X-109518490Y-19578741D01*
X-109518489Y-19578741D01*
X-109263006Y-19431238D01*
X-109028959Y-19251647D01*
X-109028952Y-19251641D01*
X-108820358Y-19043047D01*
X-108820352Y-19043040D01*
X-108640761Y-18808993D01*
X-108493258Y-18553510D01*
X-108493254Y-18553500D01*
X-108380364Y-18280961D01*
X-108380361Y-18280951D01*
X-108378212Y-18272930D01*
X-108304007Y-17995993D01*
X-108281848Y-17827683D01*
X-108265500Y-17703513D01*
X-108265500Y-17469389D01*
X-106536500Y-17469389D01*
X-106536500Y-17642611D01*
X-106509402Y-17813701D01*
X-106455873Y-17978445D01*
X-106377232Y-18132788D01*
X-106275414Y-18272928D01*
X-106152928Y-18395414D01*
X-106012788Y-18497232D01*
X-105858445Y-18575873D01*
X-105693701Y-18629402D01*
X-105522611Y-18656500D01*
X-105522610Y-18656500D01*
X-105349390Y-18656500D01*
X-105349389Y-18656500D01*
X-105178299Y-18629402D01*
X-105013555Y-18575873D01*
X-104859212Y-18497232D01*
X-104719072Y-18395414D01*
X-104596586Y-18272928D01*
X-104494768Y-18132788D01*
X-104416127Y-17978445D01*
X-104362598Y-17813701D01*
X-104348294Y-17723389D01*
X-89391500Y-17723389D01*
X-89391500Y-17896611D01*
X-89364402Y-18067701D01*
X-89310873Y-18232445D01*
X-89232232Y-18386788D01*
X-89130414Y-18526928D01*
X-89007928Y-18649414D01*
X-88867788Y-18751232D01*
X-88713445Y-18829873D01*
X-88548701Y-18883402D01*
X-88377611Y-18910500D01*
X-88377610Y-18910500D01*
X-88204390Y-18910500D01*
X-88204389Y-18910500D01*
X-88033299Y-18883402D01*
X-87868555Y-18829873D01*
X-87714212Y-18751232D01*
X-87574072Y-18649414D01*
X-87451586Y-18526928D01*
X-87349768Y-18386788D01*
X-87271127Y-18232445D01*
X-87217598Y-18067701D01*
X-87206240Y-17995993D01*
X-87190500Y-17896610D01*
X-87190500Y-17723394D01*
X-87190500Y-17723389D01*
X-87197715Y-17677831D01*
X-87197715Y-17677829D01*
X-87200144Y-17662494D01*
X-85461500Y-17662494D01*
X-85461500Y-17957506D01*
X-85422993Y-18249993D01*
X-85346639Y-18534952D01*
X-85233743Y-18807507D01*
X-85086238Y-19062994D01*
X-84906646Y-19297042D01*
X-84698042Y-19505646D01*
X-84463994Y-19685238D01*
X-84208507Y-19832743D01*
X-83935952Y-19945639D01*
X-83650993Y-20021993D01*
X-83358506Y-20060500D01*
X-83358499Y-20060500D01*
X-83063501Y-20060500D01*
X-83063494Y-20060500D01*
X-82771007Y-20021993D01*
X-82486048Y-19945639D01*
X-82213493Y-19832743D01*
X-82213490Y-19832741D01*
X-82213489Y-19832741D01*
X-81958006Y-19685238D01*
X-81723959Y-19505647D01*
X-81723952Y-19505641D01*
X-81515358Y-19297047D01*
X-81515352Y-19297040D01*
X-81335761Y-19062993D01*
X-81188258Y-18807510D01*
X-81188254Y-18807500D01*
X-81075364Y-18534961D01*
X-81075361Y-18534951D01*
X-81073212Y-18526930D01*
X-80999007Y-18249993D01*
X-80992571Y-18201113D01*
X-80960500Y-17957513D01*
X-80960500Y-17723389D01*
X-79231500Y-17723389D01*
X-79231500Y-17896611D01*
X-79204402Y-18067701D01*
X-79150873Y-18232445D01*
X-79072232Y-18386788D01*
X-78970414Y-18526928D01*
X-78847928Y-18649414D01*
X-78707788Y-18751232D01*
X-78553445Y-18829873D01*
X-78388701Y-18883402D01*
X-78217611Y-18910500D01*
X-78217610Y-18910500D01*
X-78044390Y-18910500D01*
X-78044389Y-18910500D01*
X-77873299Y-18883402D01*
X-77708555Y-18829873D01*
X-77554212Y-18751232D01*
X-77414072Y-18649414D01*
X-77291586Y-18526928D01*
X-77189768Y-18386788D01*
X-77111127Y-18232445D01*
X-77057598Y-18067701D01*
X-77046240Y-17995993D01*
X-77030500Y-17896610D01*
X-77030500Y-17827683D01*
X-49421000Y-17827683D01*
X-49421000Y-18046316D01*
X-49386797Y-18262259D01*
X-49319238Y-18470188D01*
X-49319237Y-18470191D01*
X-49219978Y-18664995D01*
X-49175191Y-18726638D01*
X-49175191Y-18726639D01*
X-48479853Y-18031300D01*
X-48457856Y-18113395D01*
X-48397691Y-18217604D01*
X-48312604Y-18302691D01*
X-48208395Y-18362856D01*
X-48126300Y-18384853D01*
X-48821639Y-19080191D01*
X-48759995Y-19124978D01*
X-48565194Y-19224235D01*
X-48561030Y-19225588D01*
X-48503351Y-19265020D01*
X-48476147Y-19329376D01*
X-48488054Y-19398224D01*
X-48535294Y-19449704D01*
X-48543042Y-19454007D01*
X-48631320Y-19498987D01*
X-48663916Y-19522670D01*
X-48776940Y-19604787D01*
X-48904213Y-19732060D01*
X-48977365Y-19832745D01*
X-49010008Y-19877674D01*
X-49091723Y-20038047D01*
X-49091723Y-20038048D01*
X-49147343Y-20209230D01*
X-49175500Y-20387005D01*
X-49175500Y-20566995D01*
X-49147343Y-20744770D01*
X-49091723Y-20915952D01*
X-49010009Y-21076325D01*
X-48904213Y-21221940D01*
X-48776940Y-21349213D01*
X-48631325Y-21455009D01*
X-48470952Y-21536723D01*
X-48299770Y-21592343D01*
X-48121995Y-21620500D01*
X-48121994Y-21620500D01*
X-47942006Y-21620500D01*
X-47942005Y-21620500D01*
X-47764230Y-21592343D01*
X-47678639Y-21564533D01*
X-47593050Y-21536724D01*
X-47593047Y-21536723D01*
X-47511333Y-21495087D01*
X-47432675Y-21455009D01*
X-47287060Y-21349213D01*
X-47159787Y-21221940D01*
X-47053991Y-21076325D01*
X-46972276Y-20915952D01*
X-46972275Y-20915949D01*
X-46916657Y-20744771D01*
X-46888500Y-20566994D01*
X-46888500Y-20387005D01*
X-46916657Y-20209228D01*
X-46972275Y-20038050D01*
X-46972276Y-20038047D01*
X-47053991Y-19877674D01*
X-47133680Y-19767993D01*
X-47159787Y-19732060D01*
X-47159789Y-19732058D01*
X-47159789Y-19732057D01*
X-47287057Y-19604789D01*
X-47432677Y-19498989D01*
X-47520958Y-19454007D01*
X-47571753Y-19406032D01*
X-47588548Y-19338211D01*
X-47566010Y-19272076D01*
X-47511294Y-19228626D01*
X-47502973Y-19225590D01*
X-47498811Y-19224238D01*
X-47498808Y-19224237D01*
X-47304008Y-19124980D01*
X-47242360Y-19080191D01*
X-47937699Y-18384853D01*
X-47855605Y-18362856D01*
X-47751396Y-18302691D01*
X-47666309Y-18217604D01*
X-47606144Y-18113395D01*
X-47584146Y-18031299D01*
X-46888807Y-18726638D01*
X-46888806Y-18726638D01*
X-46844021Y-18664995D01*
X-46844020Y-18664993D01*
X-46744762Y-18470191D01*
X-46744761Y-18470188D01*
X-46677202Y-18262259D01*
X-46643000Y-18046316D01*
X-46643000Y-17827683D01*
X-46677202Y-17611740D01*
X-46744761Y-17403811D01*
X-46744762Y-17403808D01*
X-46844023Y-17209001D01*
X-46888807Y-17147360D01*
X-47584146Y-17842699D01*
X-47606144Y-17760605D01*
X-47666309Y-17656396D01*
X-47751396Y-17571309D01*
X-47855605Y-17511144D01*
X-47937699Y-17489146D01*
X-47242360Y-16793807D01*
X-47242360Y-16793806D01*
X-47282261Y-16764818D01*
X-47324927Y-16709489D01*
X-47330908Y-16639876D01*
X-47298303Y-16578080D01*
X-47237464Y-16543722D01*
X-47209377Y-16540499D01*
X-47117934Y-16540499D01*
X-47043699Y-16525734D01*
X-47008861Y-16502456D01*
X-46959515Y-16469484D01*
X-46925796Y-16419019D01*
X-46903266Y-16385301D01*
X-46903265Y-16385299D01*
X-46903264Y-16385296D01*
X-46888500Y-16311071D01*
X-46888500Y-14482936D01*
X-46903266Y-14408698D01*
X-46959515Y-14324515D01*
X-47043699Y-14268266D01*
X-47043703Y-14268264D01*
X-47117930Y-14253500D01*
X-48946063Y-14253500D01*
X-49020301Y-14268266D01*
X-49104484Y-14324515D01*
X-49122420Y-14351359D01*
X-49160734Y-14408699D01*
X-49175500Y-14482933D01*
X-49175499Y-16311066D01*
X-49160734Y-16385301D01*
X-49104484Y-16469484D01*
X-49020301Y-16525734D01*
X-48946067Y-16540500D01*
X-48854620Y-16540499D01*
X-48787585Y-16560183D01*
X-48741829Y-16612986D01*
X-48731885Y-16682145D01*
X-48760909Y-16745701D01*
X-48781739Y-16764818D01*
X-48821638Y-16793806D01*
X-48821638Y-16793807D01*
X-48126298Y-17489146D01*
X-48208395Y-17511144D01*
X-48312604Y-17571309D01*
X-48397691Y-17656396D01*
X-48457856Y-17760605D01*
X-48479853Y-17842698D01*
X-49175191Y-17147360D01*
X-49219980Y-17209008D01*
X-49319237Y-17403808D01*
X-49319238Y-17403811D01*
X-49386797Y-17611740D01*
X-49421000Y-17827683D01*
X-77030500Y-17827683D01*
X-77030500Y-17723389D01*
X-77057597Y-17552302D01*
X-77111128Y-17387552D01*
X-77189768Y-17233211D01*
X-77262173Y-17133555D01*
X-77291586Y-17093072D01*
X-77291588Y-17093070D01*
X-77291588Y-17093069D01*
X-77414069Y-16970588D01*
X-77554211Y-16868768D01*
X-77708552Y-16790128D01*
X-77873302Y-16736597D01*
X-77873301Y-16736597D01*
X-78012192Y-16714599D01*
X-78044389Y-16709500D01*
X-78217611Y-16709500D01*
X-78262350Y-16716586D01*
X-78388697Y-16736597D01*
X-78388699Y-16736597D01*
X-78388701Y-16736598D01*
X-78553445Y-16790127D01*
X-78553446Y-16790127D01*
X-78553447Y-16790128D01*
X-78597333Y-16812489D01*
X-78707788Y-16868768D01*
X-78847928Y-16970586D01*
X-78970414Y-17093072D01*
X-79072232Y-17233212D01*
X-79150873Y-17387555D01*
X-79204402Y-17552299D01*
X-79231500Y-17723389D01*
X-80960500Y-17723389D01*
X-80960500Y-17662486D01*
X-80999006Y-17370015D01*
X-80999008Y-17370004D01*
X-81018221Y-17298301D01*
X-81075361Y-17085048D01*
X-81075364Y-17085038D01*
X-81188254Y-16812499D01*
X-81188258Y-16812489D01*
X-81335761Y-16557006D01*
X-81515352Y-16322959D01*
X-81515358Y-16322952D01*
X-81723952Y-16114358D01*
X-81723959Y-16114352D01*
X-81958006Y-15934761D01*
X-82213489Y-15787258D01*
X-82213499Y-15787254D01*
X-82486038Y-15674364D01*
X-82486048Y-15674361D01*
X-82538693Y-15660255D01*
X-82771007Y-15598007D01*
X-82785085Y-15596153D01*
X-83063486Y-15559500D01*
X-83063494Y-15559500D01*
X-83358506Y-15559500D01*
X-83358513Y-15559500D01*
X-83602113Y-15591571D01*
X-83650993Y-15598007D01*
X-83935952Y-15674361D01*
X-83935954Y-15674362D01*
X-83935961Y-15674364D01*
X-84208500Y-15787254D01*
X-84208510Y-15787258D01*
X-84463993Y-15934761D01*
X-84698040Y-16114352D01*
X-84698047Y-16114358D01*
X-84906641Y-16322952D01*
X-84906647Y-16322959D01*
X-85086238Y-16557006D01*
X-85178372Y-16716588D01*
X-85233743Y-16812493D01*
X-85346639Y-17085048D01*
X-85422993Y-17370007D01*
X-85461500Y-17662494D01*
X-87200144Y-17662494D01*
X-87217597Y-17552302D01*
X-87217597Y-17552301D01*
X-87256582Y-17432318D01*
X-87258577Y-17362476D01*
X-87222496Y-17302644D01*
X-87159795Y-17271816D01*
X-87138651Y-17270000D01*
X-86889920Y-17270000D01*
X-86889905Y-17269999D01*
X-86629990Y-17235779D01*
X-86629979Y-17235777D01*
X-86376744Y-17167924D01*
X-86134528Y-17067595D01*
X-86134517Y-17067590D01*
X-85907483Y-16936511D01*
X-85907475Y-16936505D01*
X-85794633Y-16849918D01*
X-85794633Y-16849917D01*
X-86696974Y-15947578D01*
X-86665742Y-15934641D01*
X-86542903Y-15852563D01*
X-86438437Y-15748097D01*
X-86356359Y-15625258D01*
X-86343421Y-15594024D01*
X-85441080Y-16496365D01*
X-85354494Y-16383524D01*
X-85354488Y-16383516D01*
X-85223409Y-16156482D01*
X-85223404Y-16156471D01*
X-85123075Y-15914255D01*
X-85055222Y-15661020D01*
X-85055220Y-15661009D01*
X-85021000Y-15401094D01*
X-85021000Y-15138905D01*
X-85055220Y-14878990D01*
X-85055222Y-14878979D01*
X-85123075Y-14625744D01*
X-85223404Y-14383528D01*
X-85223409Y-14383517D01*
X-85354496Y-14156471D01*
X-85441079Y-14043633D01*
X-85441080Y-14043633D01*
X-86343421Y-14945974D01*
X-86356359Y-14914742D01*
X-86438437Y-14791903D01*
X-86542903Y-14687437D01*
X-86665742Y-14605359D01*
X-86696974Y-14592421D01*
X-85794633Y-13690080D01*
X-85794633Y-13690079D01*
X-85907471Y-13603496D01*
X-86134517Y-13472409D01*
X-86134528Y-13472404D01*
X-86376744Y-13372075D01*
X-86629979Y-13304222D01*
X-86629990Y-13304220D01*
X-86889905Y-13270000D01*
X-87152094Y-13270000D01*
X-87412009Y-13304220D01*
X-87412020Y-13304222D01*
X-87665255Y-13372075D01*
X-87907471Y-13472404D01*
X-87907482Y-13472409D01*
X-88134516Y-13603488D01*
X-88134524Y-13603494D01*
X-88247365Y-13690080D01*
X-87345023Y-14592421D01*
X-87376258Y-14605359D01*
X-87499097Y-14687437D01*
X-87603563Y-14791903D01*
X-87685641Y-14914742D01*
X-87698578Y-14945974D01*
X-88600917Y-14043633D01*
X-88600918Y-14043633D01*
X-88687505Y-14156475D01*
X-88687511Y-14156483D01*
X-88818590Y-14383517D01*
X-88818595Y-14383528D01*
X-88918924Y-14625744D01*
X-88986777Y-14878979D01*
X-88986779Y-14878990D01*
X-89020999Y-15138905D01*
X-89021000Y-15138919D01*
X-89021000Y-15401080D01*
X-89020999Y-15401094D01*
X-88986779Y-15661009D01*
X-88986777Y-15661020D01*
X-88918924Y-15914255D01*
X-88818595Y-16156471D01*
X-88818590Y-16156482D01*
X-88687506Y-16383524D01*
X-88549760Y-16563038D01*
X-88524566Y-16628208D01*
X-88538604Y-16696652D01*
X-88587418Y-16746642D01*
X-88609817Y-16756456D01*
X-88713449Y-16790128D01*
X-88867788Y-16868768D01*
X-89007928Y-16970586D01*
X-89130414Y-17093072D01*
X-89232232Y-17233212D01*
X-89310873Y-17387555D01*
X-89364402Y-17552299D01*
X-89391500Y-17723389D01*
X-104348294Y-17723389D01*
X-104335500Y-17642611D01*
X-104335500Y-17469389D01*
X-104341371Y-17432318D01*
X-104362597Y-17298302D01*
X-104416128Y-17133552D01*
X-104494768Y-16979211D01*
X-104588707Y-16849917D01*
X-104596586Y-16839072D01*
X-104596588Y-16839070D01*
X-104596588Y-16839069D01*
X-104719069Y-16716588D01*
X-104859211Y-16614768D01*
X-105013552Y-16536128D01*
X-105178302Y-16482597D01*
X-105178301Y-16482597D01*
X-105317192Y-16460599D01*
X-105349389Y-16455500D01*
X-105522611Y-16455500D01*
X-105574239Y-16463677D01*
X-105693697Y-16482597D01*
X-105693699Y-16482597D01*
X-105693701Y-16482598D01*
X-105858445Y-16536127D01*
X-106012788Y-16614768D01*
X-106152928Y-16716586D01*
X-106275414Y-16839072D01*
X-106377232Y-16979212D01*
X-106455873Y-17133555D01*
X-106509402Y-17298299D01*
X-106536500Y-17469389D01*
X-108265500Y-17469389D01*
X-108265500Y-17408486D01*
X-108304006Y-17116015D01*
X-108304008Y-17116004D01*
X-108310153Y-17093072D01*
X-108380361Y-16831048D01*
X-108380364Y-16831038D01*
X-108493254Y-16558499D01*
X-108493258Y-16558489D01*
X-108640761Y-16303006D01*
X-108820352Y-16068959D01*
X-108820358Y-16068952D01*
X-109028952Y-15860358D01*
X-109028959Y-15860352D01*
X-109263006Y-15680761D01*
X-109518489Y-15533258D01*
X-109518499Y-15533254D01*
X-109791038Y-15420364D01*
X-109791048Y-15420361D01*
X-109863006Y-15401080D01*
X-110076007Y-15344007D01*
X-110090085Y-15342153D01*
X-110368486Y-15305500D01*
X-110368494Y-15305500D01*
X-110663506Y-15305500D01*
X-110663513Y-15305500D01*
X-110907113Y-15337571D01*
X-110955993Y-15344007D01*
X-111240952Y-15420361D01*
X-111240954Y-15420362D01*
X-111240961Y-15420364D01*
X-111513500Y-15533254D01*
X-111513510Y-15533258D01*
X-111768993Y-15680761D01*
X-112003040Y-15860352D01*
X-112003047Y-15860358D01*
X-112211641Y-16068952D01*
X-112211647Y-16068959D01*
X-112391238Y-16303006D01*
X-112537884Y-16557006D01*
X-112538743Y-16558493D01*
X-112651639Y-16831048D01*
X-112727993Y-17116007D01*
X-112761433Y-17370004D01*
X-112765883Y-17403811D01*
X-112766500Y-17408494D01*
X-114505144Y-17408494D01*
X-114522597Y-17298302D01*
X-114522597Y-17298301D01*
X-114561582Y-17178318D01*
X-114563577Y-17108476D01*
X-114527496Y-17048644D01*
X-114464795Y-17017816D01*
X-114443651Y-17016000D01*
X-114194920Y-17016000D01*
X-114194905Y-17015999D01*
X-113934990Y-16981779D01*
X-113934979Y-16981777D01*
X-113681744Y-16913924D01*
X-113439528Y-16813595D01*
X-113439517Y-16813590D01*
X-113212483Y-16682511D01*
X-113212475Y-16682505D01*
X-113099633Y-16595918D01*
X-113099633Y-16595917D01*
X-114001974Y-15693578D01*
X-113970742Y-15680641D01*
X-113847903Y-15598563D01*
X-113743437Y-15494097D01*
X-113661359Y-15371258D01*
X-113648421Y-15340024D01*
X-112746080Y-16242365D01*
X-112659494Y-16129524D01*
X-112659488Y-16129516D01*
X-112528409Y-15902482D01*
X-112528404Y-15902471D01*
X-112428075Y-15660255D01*
X-112360222Y-15407020D01*
X-112360220Y-15407009D01*
X-112326000Y-15147094D01*
X-112326000Y-14884905D01*
X-112360220Y-14624990D01*
X-112360222Y-14624979D01*
X-112428075Y-14371744D01*
X-112528404Y-14129528D01*
X-112528409Y-14129517D01*
X-112659496Y-13902471D01*
X-112746079Y-13789633D01*
X-112746080Y-13789633D01*
X-113648421Y-14691974D01*
X-113661359Y-14660742D01*
X-113743437Y-14537903D01*
X-113847903Y-14433437D01*
X-113970742Y-14351359D01*
X-114001974Y-14338421D01*
X-113099633Y-13436080D01*
X-113099633Y-13436079D01*
X-113212471Y-13349496D01*
X-113439517Y-13218409D01*
X-113439528Y-13218404D01*
X-113681744Y-13118075D01*
X-113934979Y-13050222D01*
X-113934990Y-13050220D01*
X-114194905Y-13016000D01*
X-114457094Y-13016000D01*
X-114717009Y-13050220D01*
X-114717020Y-13050222D01*
X-114970255Y-13118075D01*
X-115212471Y-13218404D01*
X-115212482Y-13218409D01*
X-115439516Y-13349488D01*
X-115439524Y-13349494D01*
X-115552365Y-13436080D01*
X-114650023Y-14338421D01*
X-114681258Y-14351359D01*
X-114804097Y-14433437D01*
X-114908563Y-14537903D01*
X-114990641Y-14660742D01*
X-115003578Y-14691974D01*
X-115905917Y-13789633D01*
X-115905918Y-13789633D01*
X-115992505Y-13902475D01*
X-115992511Y-13902483D01*
X-116123590Y-14129517D01*
X-116123595Y-14129528D01*
X-116223924Y-14371744D01*
X-116291777Y-14624979D01*
X-116291779Y-14624990D01*
X-116325999Y-14884905D01*
X-116326000Y-14884919D01*
X-116326000Y-15147080D01*
X-116325999Y-15147094D01*
X-116291779Y-15407009D01*
X-116291777Y-15407020D01*
X-116223924Y-15660255D01*
X-116123595Y-15902471D01*
X-116123590Y-15902482D01*
X-115992506Y-16129524D01*
X-115854760Y-16309038D01*
X-115829566Y-16374208D01*
X-115843604Y-16442652D01*
X-115892418Y-16492642D01*
X-115914817Y-16502456D01*
X-116018449Y-16536128D01*
X-116169291Y-16612986D01*
X-116172788Y-16614768D01*
X-116312928Y-16716586D01*
X-116435414Y-16839072D01*
X-116537232Y-16979212D01*
X-116615873Y-17133555D01*
X-116669402Y-17298299D01*
X-116696500Y-17469389D01*
X-125509500Y-17469389D01*
X-125509500Y-12361004D01*
X-109730500Y-12361004D01*
X-109730500Y-12590996D01*
X-109700480Y-12819020D01*
X-109640954Y-13041176D01*
X-109552940Y-13253661D01*
X-109437944Y-13452840D01*
X-109297934Y-13635305D01*
X-109135305Y-13797934D01*
X-108952840Y-13937944D01*
X-108753661Y-14052940D01*
X-108541176Y-14140954D01*
X-108319020Y-14200480D01*
X-108090996Y-14230500D01*
X-108090989Y-14230500D01*
X-107861011Y-14230500D01*
X-107861004Y-14230500D01*
X-107632980Y-14200480D01*
X-107410824Y-14140954D01*
X-107383212Y-14129517D01*
X-107362682Y-14121013D01*
X-107198339Y-14052940D01*
X-107198336Y-14052938D01*
X-107198335Y-14052938D01*
X-106999160Y-13937944D01*
X-106816696Y-13797935D01*
X-106816689Y-13797929D01*
X-106654070Y-13635310D01*
X-106654064Y-13635303D01*
X-106514055Y-13452839D01*
X-106399061Y-13253664D01*
X-106399057Y-13253654D01*
X-106311049Y-13041185D01*
X-106311046Y-13041175D01*
X-106258483Y-12845005D01*
X-106251520Y-12819020D01*
X-106231469Y-12666716D01*
X-106224660Y-12615004D01*
X-82425500Y-12615004D01*
X-82425500Y-12844996D01*
X-82395480Y-13073020D01*
X-82335954Y-13295176D01*
X-82247940Y-13507661D01*
X-82132944Y-13706840D01*
X-81992934Y-13889305D01*
X-81830305Y-14051934D01*
X-81647840Y-14191944D01*
X-81448661Y-14306940D01*
X-81236176Y-14394954D01*
X-81014020Y-14454480D01*
X-80785996Y-14484500D01*
X-80785989Y-14484500D01*
X-80556011Y-14484500D01*
X-80556004Y-14484500D01*
X-80327980Y-14454480D01*
X-80105824Y-14394954D01*
X-80078239Y-14383528D01*
X-80026941Y-14362280D01*
X-79971355Y-14339255D01*
X-79893339Y-14306940D01*
X-79893336Y-14306938D01*
X-79893335Y-14306938D01*
X-79694160Y-14191944D01*
X-79511696Y-14051935D01*
X-79511689Y-14051929D01*
X-79349070Y-13889310D01*
X-79349064Y-13889303D01*
X-79209055Y-13706839D01*
X-79094061Y-13507664D01*
X-79094057Y-13507654D01*
X-79006049Y-13295185D01*
X-79006046Y-13295175D01*
X-78994922Y-13253661D01*
X-78946520Y-13073020D01*
X-78931222Y-12956823D01*
X-78931221Y-12956822D01*
X-78916501Y-12845006D01*
X-78916500Y-12844989D01*
X-78916500Y-12615010D01*
X-78916501Y-12614994D01*
X-78946518Y-12386990D01*
X-78946521Y-12386977D01*
X-79006046Y-12164824D01*
X-79006049Y-12164814D01*
X-79094057Y-11952345D01*
X-79094058Y-11952343D01*
X-79094060Y-11952339D01*
X-79115422Y-11915339D01*
X-79142361Y-11868678D01*
X-52850000Y-11868678D01*
X-52850000Y-12067321D01*
X-52818924Y-12263520D01*
X-52818924Y-12263523D01*
X-52757542Y-12452437D01*
X-52667362Y-12629425D01*
X-52640268Y-12666715D01*
X-51988000Y-12014447D01*
X-51988000Y-12020661D01*
X-51960741Y-12122394D01*
X-51908080Y-12213606D01*
X-51833606Y-12288080D01*
X-51742394Y-12340741D01*
X-51640661Y-12368000D01*
X-51634448Y-12368000D01*
X-52286716Y-13020268D01*
X-52249425Y-13047362D01*
X-52072437Y-13137542D01*
X-51883522Y-13198924D01*
X-51687321Y-13230000D01*
X-51488679Y-13230000D01*
X-51292479Y-13198924D01*
X-51292476Y-13198924D01*
X-51103562Y-13137542D01*
X-50926567Y-13047358D01*
X-50889283Y-13020269D01*
X-50889283Y-13020268D01*
X-51541553Y-12368000D01*
X-51535339Y-12368000D01*
X-51433606Y-12340741D01*
X-51342394Y-12288080D01*
X-51267920Y-12213606D01*
X-51215259Y-12122394D01*
X-51188000Y-12020661D01*
X-51188000Y-12014447D01*
X-50535731Y-12666716D01*
X-50535730Y-12666715D01*
X-50508641Y-12629432D01*
X-50418457Y-12452437D01*
X-50357075Y-12263523D01*
X-50357075Y-12263520D01*
X-50326000Y-12067321D01*
X-50326000Y-11868678D01*
X-50357075Y-11672479D01*
X-50357075Y-11672476D01*
X-50418457Y-11483562D01*
X-50508643Y-11306564D01*
X-50535729Y-11269283D01*
X-50535730Y-11269282D01*
X-51188000Y-11921552D01*
X-51188000Y-11915339D01*
X-51215259Y-11813606D01*
X-51267920Y-11722394D01*
X-51342394Y-11647920D01*
X-51433606Y-11595259D01*
X-51535339Y-11568000D01*
X-51541554Y-11568000D01*
X-50889282Y-10915730D01*
X-50889283Y-10915729D01*
X-50926564Y-10888643D01*
X-51103562Y-10798457D01*
X-51292477Y-10737075D01*
X-51488679Y-10706000D01*
X-51687321Y-10706000D01*
X-51883520Y-10737075D01*
X-51883523Y-10737075D01*
X-52072437Y-10798457D01*
X-52249432Y-10888641D01*
X-52286715Y-10915730D01*
X-52286716Y-10915731D01*
X-51634447Y-11568000D01*
X-51640661Y-11568000D01*
X-51742394Y-11595259D01*
X-51833606Y-11647920D01*
X-51908080Y-11722394D01*
X-51960741Y-11813606D01*
X-51988000Y-11915339D01*
X-51988000Y-11921551D01*
X-52640268Y-11269283D01*
X-52640269Y-11269283D01*
X-52667358Y-11306567D01*
X-52757542Y-11483562D01*
X-52818924Y-11672476D01*
X-52818924Y-11672479D01*
X-52850000Y-11868678D01*
X-79142361Y-11868678D01*
X-79209055Y-11753160D01*
X-79349064Y-11570696D01*
X-79349070Y-11570689D01*
X-79511689Y-11408070D01*
X-79511696Y-11408064D01*
X-79694160Y-11268055D01*
X-79893335Y-11153061D01*
X-79893345Y-11153057D01*
X-80075634Y-11077551D01*
X-80105814Y-11065049D01*
X-80105824Y-11065046D01*
X-80327980Y-11005520D01*
X-80327983Y-11005519D01*
X-80327990Y-11005518D01*
X-80555994Y-10975501D01*
X-80555998Y-10975500D01*
X-80556004Y-10975500D01*
X-80785996Y-10975500D01*
X-80786002Y-10975500D01*
X-80786005Y-10975501D01*
X-81014009Y-11005518D01*
X-81014014Y-11005519D01*
X-81014020Y-11005520D01*
X-81236176Y-11065046D01*
X-81236178Y-11065047D01*
X-81236185Y-11065049D01*
X-81448654Y-11153057D01*
X-81448664Y-11153061D01*
X-81647839Y-11268055D01*
X-81830303Y-11408064D01*
X-81830310Y-11408070D01*
X-81992929Y-11570689D01*
X-81992935Y-11570696D01*
X-82132944Y-11753160D01*
X-82223971Y-11910824D01*
X-82247940Y-11952339D01*
X-82335954Y-12164824D01*
X-82395480Y-12386980D01*
X-82425500Y-12615004D01*
X-106224660Y-12615004D01*
X-106221995Y-12594759D01*
X-106221500Y-12591003D01*
X-106221500Y-12361010D01*
X-106221501Y-12360994D01*
X-106251518Y-12132990D01*
X-106251521Y-12132977D01*
X-106254357Y-12122394D01*
X-106311046Y-11910824D01*
X-106311049Y-11910814D01*
X-106399057Y-11698345D01*
X-106399061Y-11698335D01*
X-106514055Y-11499160D01*
X-106654064Y-11316696D01*
X-106654070Y-11316689D01*
X-106816689Y-11154070D01*
X-106816696Y-11154064D01*
X-106999160Y-11014055D01*
X-107198335Y-10899061D01*
X-107198345Y-10899057D01*
X-107410814Y-10811049D01*
X-107410824Y-10811046D01*
X-107457807Y-10798457D01*
X-107632980Y-10751520D01*
X-107632983Y-10751519D01*
X-107632990Y-10751518D01*
X-107860994Y-10721501D01*
X-107860998Y-10721500D01*
X-107861004Y-10721500D01*
X-108090996Y-10721500D01*
X-108091002Y-10721500D01*
X-108091005Y-10721501D01*
X-108319009Y-10751518D01*
X-108319014Y-10751519D01*
X-108319020Y-10751520D01*
X-108541176Y-10811046D01*
X-108541178Y-10811047D01*
X-108541185Y-10811049D01*
X-108753654Y-10899057D01*
X-108753664Y-10899061D01*
X-108952839Y-11014055D01*
X-109135303Y-11154064D01*
X-109135310Y-11154070D01*
X-109297929Y-11316689D01*
X-109297935Y-11316696D01*
X-109437944Y-11499160D01*
X-109504504Y-11614446D01*
X-109552940Y-11698339D01*
X-109640954Y-11910824D01*
X-109700480Y-12132980D01*
X-109730500Y-12361004D01*
X-125509500Y-12361004D01*
X-125509500Y-9327881D01*
X-52604500Y-9327881D01*
X-52604500Y-9327884D01*
X-52604500Y-9528116D01*
X-52565436Y-9724502D01*
X-52488810Y-9909493D01*
X-52377567Y-10075981D01*
X-52235981Y-10217567D01*
X-52069493Y-10328810D01*
X-51884502Y-10405436D01*
X-51820238Y-10418218D01*
X-51688118Y-10444500D01*
X-51688116Y-10444500D01*
X-51487881Y-10444500D01*
X-51291503Y-10405437D01*
X-51291502Y-10405436D01*
X-51291498Y-10405436D01*
X-51106507Y-10328810D01*
X-50940019Y-10217567D01*
X-50940016Y-10217565D01*
X-50798434Y-10075983D01*
X-50687189Y-9909491D01*
X-50610564Y-9724502D01*
X-50610562Y-9724496D01*
X-50571500Y-9528118D01*
X-50571500Y-9327881D01*
X-50571499Y-9327881D01*
X-50610562Y-9131503D01*
X-50610564Y-9131497D01*
X-50687189Y-8946508D01*
X-50798434Y-8780016D01*
X-50940016Y-8638434D01*
X-51106508Y-8527189D01*
X-51291497Y-8450564D01*
X-51291503Y-8450562D01*
X-51487882Y-8411500D01*
X-51487884Y-8411500D01*
X-51688116Y-8411500D01*
X-51688118Y-8411500D01*
X-51884496Y-8450562D01*
X-51884502Y-8450564D01*
X-52069493Y-8527190D01*
X-52152737Y-8582811D01*
X-52235983Y-8638434D01*
X-52377565Y-8780016D01*
X-52377567Y-8780019D01*
X-52488810Y-8946507D01*
X-52565436Y-9131498D01*
X-52565436Y-9131502D01*
X-52565437Y-9131503D01*
X-52604500Y-9327881D01*
X-125509500Y-9327881D01*
X-125509500Y-183881D01*
X-111913500Y-183881D01*
X-111913500Y-183884D01*
X-111913500Y-384116D01*
X-111874436Y-580502D01*
X-111797810Y-765493D01*
X-111686567Y-931981D01*
X-111544981Y-1073567D01*
X-111378493Y-1184810D01*
X-111193502Y-1261436D01*
X-111129238Y-1274218D01*
X-110997118Y-1300500D01*
X-110997116Y-1300500D01*
X-110796881Y-1300500D01*
X-110600503Y-1261437D01*
X-110600502Y-1261436D01*
X-110600498Y-1261436D01*
X-110415507Y-1184810D01*
X-110249019Y-1073567D01*
X-110249016Y-1073565D01*
X-110107434Y-931983D01*
X-109996189Y-765491D01*
X-109919564Y-580502D01*
X-109919562Y-580496D01*
X-109880500Y-384118D01*
X-109880500Y-183881D01*
X-109880499Y-183881D01*
X-109919562Y12496D01*
X-109919564Y12502D01*
X-109996189Y197491D01*
X-110107434Y363983D01*
X-110249015Y505564D01*
X-110249023Y505570D01*
X-110402479Y608106D01*
X-110415505Y616809D01*
X-110415507Y616810D01*
X-110600498Y693436D01*
X-110600503Y693437D01*
X-110659226Y705118D01*
X-102134500Y705118D01*
X-102134500Y504881D01*
X-102095437Y308503D01*
X-102095436Y308498D01*
X-102018810Y123507D01*
X-101907567Y-42981D01*
X-101765981Y-184567D01*
X-101599493Y-295810D01*
X-101414502Y-372436D01*
X-101355783Y-384116D01*
X-101218118Y-411500D01*
X-101218116Y-411500D01*
X-101017881Y-411500D01*
X-100821503Y-372437D01*
X-100821502Y-372436D01*
X-100821498Y-372436D01*
X-100636507Y-295810D01*
X-100470019Y-184567D01*
X-100470016Y-184565D01*
X-100328434Y-42983D01*
X-100217189Y123508D01*
X-100140564Y308497D01*
X-100140562Y308503D01*
X-100101500Y504881D01*
X-100101500Y705118D01*
X-100101499Y705118D01*
X-100140562Y901496D01*
X-100140564Y901502D01*
X-100217189Y1086491D01*
X-100328434Y1252983D01*
X-100470016Y1394565D01*
X-100471135Y1395312D01*
X-100636507Y1505810D01*
X-100821498Y1582436D01*
X-100821503Y1582437D01*
X-101017882Y1621500D01*
X-101017884Y1621500D01*
X-101218116Y1621500D01*
X-101218118Y1621500D01*
X-101350238Y1595218D01*
X-101414502Y1582436D01*
X-101599493Y1505810D01*
X-101765981Y1394567D01*
X-101907567Y1252981D01*
X-102018810Y1086493D01*
X-102095436Y901502D01*
X-102095437Y901496D01*
X-102134500Y705118D01*
X-110659226Y705118D01*
X-110796882Y732500D01*
X-110796884Y732500D01*
X-110997116Y732500D01*
X-110997118Y732500D01*
X-111129238Y706218D01*
X-111193502Y693436D01*
X-111378493Y616810D01*
X-111544981Y505567D01*
X-111686567Y363981D01*
X-111797810Y197493D01*
X-111874436Y12502D01*
X-111874437Y12496D01*
X-111913500Y-183881D01*
X-125509500Y-183881D01*
X-125509500Y3366014D01*
X-84151500Y3366014D01*
X-84151500Y3177985D01*
X-84123600Y3001835D01*
X-84122088Y2992287D01*
X-84081991Y2868880D01*
X-84063985Y2813466D01*
X-84035914Y2758374D01*
X-83978628Y2645945D01*
X-83978625Y2645941D01*
X-83868119Y2493841D01*
X-83868115Y2493836D01*
X-83735163Y2360884D01*
X-83735158Y2360880D01*
X-83583058Y2250374D01*
X-83583055Y2250372D01*
X-83530740Y2223716D01*
X-83415533Y2165014D01*
X-83236713Y2106911D01*
X-83051014Y2077500D01*
X-83051009Y2077500D01*
X-82862986Y2077500D01*
X-82677286Y2106911D01*
X-82498466Y2165014D01*
X-82330941Y2250374D01*
X-82178841Y2360880D01*
X-82178836Y2360884D01*
X-82045884Y2493836D01*
X-82045880Y2493841D01*
X-81935374Y2645941D01*
X-81850014Y2813466D01*
X-81791911Y2992286D01*
X-81762500Y3177985D01*
X-81762500Y3366014D01*
X-81791911Y3551713D01*
X-81850015Y3730535D01*
X-81896918Y3822585D01*
X-81896919Y3822586D01*
X-81923123Y3874014D01*
X-70181500Y3874014D01*
X-70181500Y3685985D01*
X-70160233Y3551713D01*
X-70152088Y3500287D01*
X-70109931Y3370540D01*
X-70093985Y3321466D01*
X-70063017Y3260690D01*
X-70008628Y3153945D01*
X-70008625Y3153941D01*
X-69898119Y3001841D01*
X-69898115Y3001836D01*
X-69765163Y2868884D01*
X-69765158Y2868880D01*
X-69688893Y2813471D01*
X-69613055Y2758372D01*
X-69560740Y2731716D01*
X-69445533Y2673014D01*
X-69266713Y2614911D01*
X-69081014Y2585500D01*
X-69081009Y2585500D01*
X-68892986Y2585500D01*
X-68707286Y2614912D01*
X-68649805Y2633588D01*
X-68579964Y2635582D01*
X-68523808Y2603337D01*
X-63438770Y-2481701D01*
X-63365837Y-2523808D01*
X-63323730Y-2548119D01*
X-63195419Y-2582500D01*
X-51876406Y-2582500D01*
X-51814403Y-2599114D01*
X-51805889Y-2604030D01*
X-51662318Y-2642500D01*
X-51662315Y-2642500D01*
X-51513685Y-2642500D01*
X-51513682Y-2642500D01*
X-51370111Y-2604030D01*
X-51241389Y-2529712D01*
X-51136288Y-2424611D01*
X-51061970Y-2295889D01*
X-51023500Y-2152318D01*
X-51023500Y-2003682D01*
X-51061970Y-1860111D01*
X-51136288Y-1731389D01*
X-51136290Y-1731386D01*
X-51241386Y-1626290D01*
X-51241389Y-1626288D01*
X-51370109Y-1551971D01*
X-51370109Y-1551970D01*
X-51370111Y-1551970D01*
X-51513682Y-1513500D01*
X-51662318Y-1513500D01*
X-51805889Y-1551970D01*
X-51805890Y-1551970D01*
X-51805891Y-1551971D01*
X-51814404Y-1556886D01*
X-51876406Y-1573500D01*
X-62868667Y-1573500D01*
X-62935706Y-1553815D01*
X-62956348Y-1537181D01*
X-67810337Y3316808D01*
X-67843822Y3378131D01*
X-67840588Y3442805D01*
X-67821912Y3500286D01*
X-67792500Y3685985D01*
X-67792500Y3874014D01*
X-67821911Y4059713D01*
X-67880014Y4238533D01*
X-67965374Y4406058D01*
X-68075880Y4558158D01*
X-68075884Y4558163D01*
X-68208836Y4691115D01*
X-68208841Y4691119D01*
X-68360941Y4801625D01*
X-68360945Y4801628D01*
X-68467690Y4856017D01*
X-68528466Y4886985D01*
X-68528468Y4886985D01*
X-68528471Y4886987D01*
X-68624320Y4918130D01*
X-68707286Y4945088D01*
X-68892986Y4974500D01*
X-68892991Y4974500D01*
X-69081009Y4974500D01*
X-69081014Y4974500D01*
X-69266713Y4945088D01*
X-69445529Y4886987D01*
X-69613055Y4801628D01*
X-69765165Y4691114D01*
X-69898114Y4558165D01*
X-70008628Y4406055D01*
X-70093987Y4238529D01*
X-70111992Y4183115D01*
X-70152088Y4059713D01*
X-70181500Y3874014D01*
X-81923123Y3874014D01*
X-81935372Y3898055D01*
X-81935374Y3898059D01*
X-82045880Y4050158D01*
X-82045884Y4050163D01*
X-82178836Y4183115D01*
X-82178841Y4183119D01*
X-82330941Y4293625D01*
X-82330945Y4293628D01*
X-82437690Y4348017D01*
X-82498466Y4378985D01*
X-82498468Y4378985D01*
X-82498471Y4378987D01*
X-82594320Y4410130D01*
X-82677286Y4437088D01*
X-82862986Y4466500D01*
X-82862991Y4466500D01*
X-83051009Y4466500D01*
X-83051014Y4466500D01*
X-83236713Y4437088D01*
X-83415529Y4378987D01*
X-83583055Y4293628D01*
X-83735165Y4183114D01*
X-83868114Y4050165D01*
X-83978628Y3898055D01*
X-84063987Y3730529D01*
X-84078458Y3685991D01*
X-84122088Y3551713D01*
X-84151500Y3366014D01*
X-125509500Y3366014D01*
X-125509500Y7436118D01*
X-111913500Y7436118D01*
X-111913500Y7235881D01*
X-111908053Y7208500D01*
X-111874436Y7039498D01*
X-111797810Y6854507D01*
X-111687312Y6689135D01*
X-111686565Y6688016D01*
X-111544983Y6546434D01*
X-111461737Y6490811D01*
X-111378493Y6435190D01*
X-111378491Y6435189D01*
X-111193502Y6358564D01*
X-111193496Y6358562D01*
X-110997118Y6319500D01*
X-110997116Y6319500D01*
X-110796882Y6319500D01*
X-110600503Y6358562D01*
X-110600497Y6358564D01*
X-110415508Y6435189D01*
X-110249016Y6546434D01*
X-110107434Y6688016D01*
X-109996189Y6854508D01*
X-109919564Y7039497D01*
X-109919562Y7039503D01*
X-109880500Y7235881D01*
X-109880500Y7436118D01*
X-109880499Y7436118D01*
X-109919562Y7632496D01*
X-109919564Y7632502D01*
X-109996189Y7817491D01*
X-110107434Y7983983D01*
X-110249015Y8125564D01*
X-110249023Y8125570D01*
X-110402479Y8228106D01*
X-110415505Y8236809D01*
X-110415507Y8236810D01*
X-110600498Y8313436D01*
X-110600503Y8313437D01*
X-110659226Y8325118D01*
X-102134500Y8325118D01*
X-102134500Y8124881D01*
X-102095437Y7928503D01*
X-102095436Y7928498D01*
X-102018810Y7743507D01*
X-101944639Y7632502D01*
X-101907565Y7577016D01*
X-101765983Y7435434D01*
X-101682737Y7379811D01*
X-101599493Y7324190D01*
X-101599491Y7324189D01*
X-101414502Y7247564D01*
X-101414496Y7247562D01*
X-101218118Y7208500D01*
X-101218116Y7208500D01*
X-101017882Y7208500D01*
X-100821503Y7247562D01*
X-100821497Y7247564D01*
X-100636508Y7324189D01*
X-100470016Y7435434D01*
X-100328434Y7577016D01*
X-100217189Y7743508D01*
X-100140564Y7928497D01*
X-100140562Y7928503D01*
X-100101500Y8124881D01*
X-100101500Y8325118D01*
X-100101499Y8325118D01*
X-100140562Y8521496D01*
X-100140564Y8521502D01*
X-100217189Y8706491D01*
X-100328434Y8872983D01*
X-100470016Y9014565D01*
X-100471135Y9015312D01*
X-100636507Y9125810D01*
X-100821498Y9202436D01*
X-100821503Y9202437D01*
X-101017882Y9241500D01*
X-101017884Y9241500D01*
X-101218116Y9241500D01*
X-101218118Y9241500D01*
X-101350238Y9215218D01*
X-101414502Y9202436D01*
X-101599493Y9125810D01*
X-101765981Y9014567D01*
X-101907567Y8872981D01*
X-102018810Y8706493D01*
X-102095436Y8521502D01*
X-102095437Y8521496D01*
X-102134500Y8325118D01*
X-110659226Y8325118D01*
X-110796882Y8352500D01*
X-110796884Y8352500D01*
X-110997116Y8352500D01*
X-110997118Y8352500D01*
X-111129238Y8326218D01*
X-111193502Y8313436D01*
X-111378493Y8236810D01*
X-111544981Y8125567D01*
X-111686567Y7983981D01*
X-111797810Y7817493D01*
X-111874436Y7632502D01*
X-111874437Y7632496D01*
X-111913500Y7436118D01*
X-125509500Y7436118D01*
X-125509500Y29915118D01*
X-122073500Y29915118D01*
X-122073500Y29714881D01*
X-122034437Y29518503D01*
X-122034436Y29518498D01*
X-121957810Y29333507D01*
X-121847312Y29168135D01*
X-121846565Y29167016D01*
X-121704983Y29025434D01*
X-121621737Y28969811D01*
X-121538493Y28914190D01*
X-121538491Y28914189D01*
X-121353502Y28837564D01*
X-121353496Y28837562D01*
X-121157118Y28798500D01*
X-121157116Y28798500D01*
X-120956882Y28798500D01*
X-120760503Y28837562D01*
X-120760497Y28837564D01*
X-120575508Y28914189D01*
X-120409016Y29025434D01*
X-120267434Y29167016D01*
X-120156189Y29333508D01*
X-120079564Y29518497D01*
X-120079562Y29518503D01*
X-120040500Y29714881D01*
X-120040500Y29915118D01*
X-120040499Y29915118D01*
X-120079562Y30111496D01*
X-120079564Y30111502D01*
X-120156189Y30296491D01*
X-120267434Y30462983D01*
X-120409016Y30604565D01*
X-120410135Y30605312D01*
X-120575507Y30715810D01*
X-120760498Y30792436D01*
X-120760503Y30792437D01*
X-120956882Y30831500D01*
X-120956884Y30831500D01*
X-121157116Y30831500D01*
X-121157118Y30831500D01*
X-121289238Y30805218D01*
X-121353502Y30792436D01*
X-121538493Y30715810D01*
X-121704981Y30604567D01*
X-121846567Y30462981D01*
X-121957810Y30296493D01*
X-122034436Y30111502D01*
X-122034437Y30111496D01*
X-122073500Y29915118D01*
X-125509500Y29915118D01*
X-125509500Y32455118D01*
X-122073500Y32455118D01*
X-122073500Y32254881D01*
X-122042710Y32100092D01*
X-122034436Y32058498D01*
X-121957810Y31873507D01*
X-121847312Y31708135D01*
X-121846565Y31707016D01*
X-121704983Y31565434D01*
X-121621737Y31509811D01*
X-121538493Y31454190D01*
X-121538491Y31454189D01*
X-121353502Y31377564D01*
X-121353496Y31377562D01*
X-121157118Y31338500D01*
X-121157116Y31338500D01*
X-120956885Y31338500D01*
X-120956884Y31338500D01*
X-120883951Y31353007D01*
X-120852640Y31359235D01*
X-120783049Y31353007D01*
X-120740769Y31325298D01*
X-99903770Y10488299D01*
X-99878320Y10473605D01*
X-99830838Y10446191D01*
X-99830837Y10446191D01*
X-99788730Y10421881D01*
X-99788731Y10421881D01*
X-99756652Y10413285D01*
X-99660419Y10387500D01*
X-99660418Y10387500D01*
X-99527581Y10387500D01*
X-84116551Y10387500D01*
X-84049512Y10367815D01*
X-84006066Y10319795D01*
X-83978628Y10265945D01*
X-83978625Y10265941D01*
X-83868119Y10113841D01*
X-83868115Y10113836D01*
X-83735163Y9980884D01*
X-83735158Y9980880D01*
X-83583058Y9870374D01*
X-83583055Y9870372D01*
X-83530740Y9843716D01*
X-83415533Y9785014D01*
X-83236713Y9726911D01*
X-83051014Y9697500D01*
X-83051009Y9697500D01*
X-82862986Y9697500D01*
X-82677286Y9726911D01*
X-82498466Y9785014D01*
X-82330941Y9870374D01*
X-82178841Y9980880D01*
X-82178836Y9980884D01*
X-82045884Y10113836D01*
X-82045880Y10113841D01*
X-81935374Y10265941D01*
X-81850014Y10433466D01*
X-81791911Y10612286D01*
X-81762500Y10797985D01*
X-81762500Y10986014D01*
X-81791912Y11171716D01*
X-81810587Y11229192D01*
X-81812582Y11299033D01*
X-81780337Y11355190D01*
X-81641513Y11494014D01*
X-70181500Y11494014D01*
X-70181500Y11305985D01*
X-70152088Y11120286D01*
X-70093985Y10941466D01*
X-70082477Y10918881D01*
X-70008628Y10773945D01*
X-70008625Y10773941D01*
X-69898119Y10621841D01*
X-69898115Y10621836D01*
X-69765163Y10488884D01*
X-69765158Y10488880D01*
X-69625619Y10387500D01*
X-69613055Y10378372D01*
X-69560740Y10351716D01*
X-69445533Y10293014D01*
X-69266713Y10234911D01*
X-69081014Y10205500D01*
X-69081009Y10205500D01*
X-68892986Y10205500D01*
X-68707286Y10234911D01*
X-68528466Y10293014D01*
X-68360941Y10378374D01*
X-68208841Y10488880D01*
X-68208836Y10488884D01*
X-68075884Y10621836D01*
X-68075880Y10621841D01*
X-67965374Y10773941D01*
X-67880014Y10941466D01*
X-67822291Y11119118D01*
X-48032500Y11119118D01*
X-48032500Y10918881D01*
X-48003670Y10773945D01*
X-47993436Y10722498D01*
X-47916810Y10537507D01*
X-47816579Y10387500D01*
X-47805565Y10371016D01*
X-47663983Y10229434D01*
X-47628163Y10205500D01*
X-47497493Y10118190D01*
X-47497491Y10118189D01*
X-47312502Y10041564D01*
X-47312496Y10041562D01*
X-47116118Y10002500D01*
X-47116116Y10002500D01*
X-46915882Y10002500D01*
X-46719503Y10041562D01*
X-46719497Y10041564D01*
X-46534508Y10118189D01*
X-46368016Y10229434D01*
X-46226434Y10371016D01*
X-46115189Y10537508D01*
X-46038564Y10722497D01*
X-46038562Y10722503D01*
X-45999500Y10918881D01*
X-45999500Y11119118D01*
X-45999499Y11119118D01*
X-46038562Y11315496D01*
X-46038564Y11315502D01*
X-46115189Y11500491D01*
X-46126925Y11518055D01*
X-46226433Y11666981D01*
X-46226434Y11666983D01*
X-46368016Y11808565D01*
X-46442799Y11858533D01*
X-46534507Y11919810D01*
X-46719498Y11996436D01*
X-46719503Y11996437D01*
X-46915882Y12035500D01*
X-46915884Y12035500D01*
X-47116116Y12035500D01*
X-47116118Y12035500D01*
X-47248238Y12009218D01*
X-47312502Y11996436D01*
X-47497493Y11919810D01*
X-47663981Y11808567D01*
X-47805567Y11666981D01*
X-47916810Y11500493D01*
X-47993436Y11315502D01*
X-47993437Y11315496D01*
X-48032500Y11119118D01*
X-67822291Y11119118D01*
X-67821911Y11120286D01*
X-67818060Y11144606D01*
X-67792500Y11305985D01*
X-67792500Y11494014D01*
X-67821911Y11679713D01*
X-67880014Y11858533D01*
X-67950280Y11996435D01*
X-67965372Y12026055D01*
X-67974349Y12038411D01*
X-68075880Y12178158D01*
X-68075884Y12178163D01*
X-68208836Y12311115D01*
X-68208841Y12311119D01*
X-68360941Y12421625D01*
X-68360945Y12421628D01*
X-68413553Y12448433D01*
X-68528466Y12506985D01*
X-68528468Y12506985D01*
X-68528471Y12506987D01*
X-68624320Y12538130D01*
X-68707286Y12565088D01*
X-68892986Y12594500D01*
X-68892991Y12594500D01*
X-69081009Y12594500D01*
X-69081014Y12594500D01*
X-69266713Y12565088D01*
X-69445529Y12506987D01*
X-69613055Y12421628D01*
X-69765165Y12311114D01*
X-69898114Y12178165D01*
X-70008628Y12026055D01*
X-70093987Y11858529D01*
X-70111992Y11803115D01*
X-70152088Y11679713D01*
X-70181500Y11494014D01*
X-81641513Y11494014D01*
X-81548965Y11586562D01*
X-79609349Y13526181D01*
X-79548026Y13559666D01*
X-79521668Y13562500D01*
X-59522584Y13562500D01*
X-59522581Y13562500D01*
X-59432387Y13586667D01*
X-59394265Y13596882D01*
X-59352161Y13621191D01*
X-59287851Y13658321D01*
X-48278000Y13658321D01*
X-48278000Y13459678D01*
X-48246924Y13263479D01*
X-48246924Y13263476D01*
X-48185542Y13074562D01*
X-48095358Y12897567D01*
X-48068268Y12860283D01*
X-47416000Y13512551D01*
X-47416000Y13506339D01*
X-47388741Y13404606D01*
X-47336080Y13313394D01*
X-47261606Y13238920D01*
X-47170394Y13186259D01*
X-47068661Y13159000D01*
X-47062447Y13159000D01*
X-47714716Y12506731D01*
X-47714715Y12506730D01*
X-47677432Y12479641D01*
X-47500437Y12389457D01*
X-47311522Y12328075D01*
X-47115321Y12297000D01*
X-46916679Y12297000D01*
X-46720479Y12328075D01*
X-46720476Y12328075D01*
X-46531562Y12389457D01*
X-46354564Y12479643D01*
X-46317283Y12506729D01*
X-46317282Y12506730D01*
X-46969554Y13159000D01*
X-46963339Y13159000D01*
X-46861606Y13186259D01*
X-46770394Y13238920D01*
X-46695920Y13313394D01*
X-46643259Y13404606D01*
X-46616000Y13506339D01*
X-46616000Y13512552D01*
X-45963730Y12860282D01*
X-45963729Y12860283D01*
X-45936643Y12897564D01*
X-45846457Y13074562D01*
X-45785075Y13263476D01*
X-45785075Y13263479D01*
X-45754000Y13459678D01*
X-45754000Y13658321D01*
X-45785075Y13854520D01*
X-45785075Y13854523D01*
X-45846457Y14043437D01*
X-45936641Y14220432D01*
X-45963730Y14257715D01*
X-45963731Y14257716D01*
X-46616000Y13605447D01*
X-46616000Y13611661D01*
X-46643259Y13713394D01*
X-46695920Y13804606D01*
X-46770394Y13879080D01*
X-46861606Y13931741D01*
X-46963339Y13959000D01*
X-46969553Y13959000D01*
X-46317283Y14611268D01*
X-46317283Y14611269D01*
X-46354567Y14638358D01*
X-46531562Y14728542D01*
X-46720477Y14789924D01*
X-46916679Y14821000D01*
X-47115321Y14821000D01*
X-47311520Y14789924D01*
X-47311523Y14789924D01*
X-47500437Y14728542D01*
X-47677425Y14638362D01*
X-47714716Y14611268D01*
X-47062448Y13959000D01*
X-47068661Y13959000D01*
X-47170394Y13931741D01*
X-47261606Y13879080D01*
X-47336080Y13804606D01*
X-47388741Y13713394D01*
X-47416000Y13611661D01*
X-47416000Y13605447D01*
X-48068268Y14257715D01*
X-48095362Y14220425D01*
X-48185542Y14043437D01*
X-48246924Y13854523D01*
X-48246924Y13854520D01*
X-48278000Y13658321D01*
X-59287851Y13658321D01*
X-59279236Y13663295D01*
X-59279227Y13663301D01*
X-59191654Y13750875D01*
X-58290839Y14651690D01*
X-56010300Y16932228D01*
X-56010298Y16932231D01*
X-55954544Y17028802D01*
X-55954542Y17028805D01*
X-55943882Y17047267D01*
X-55943881Y17047270D01*
X-55909500Y17175581D01*
X-55909500Y18256247D01*
X-55889815Y18323286D01*
X-55837011Y18369041D01*
X-55823819Y18374178D01*
X-55745612Y18399589D01*
X-55594218Y18476729D01*
X-55515789Y18533711D01*
X-55456753Y18576604D01*
X-55456751Y18576606D01*
X-55456750Y18576606D01*
X-55336606Y18696750D01*
X-55336606Y18696751D01*
X-55336604Y18696753D01*
X-55293711Y18755789D01*
X-55236729Y18834218D01*
X-55159589Y18985611D01*
X-55107080Y19147215D01*
X-55080500Y19315036D01*
X-55080500Y19484963D01*
X-54699500Y19484963D01*
X-54699500Y19315036D01*
X-54672919Y19147215D01*
X-54620410Y18985611D01*
X-54579715Y18905745D01*
X-54543271Y18834219D01*
X-54443396Y18696753D01*
X-54323247Y18576604D01*
X-54185781Y18476729D01*
X-54034388Y18399589D01*
X-53872784Y18347080D01*
X-53704963Y18320500D01*
X-53704958Y18320500D01*
X-53535037Y18320500D01*
X-53367215Y18347080D01*
X-53205611Y18399589D01*
X-53082396Y18462372D01*
X-53082394Y18462372D01*
X-53054220Y18476727D01*
X-52958052Y18546598D01*
X-52916753Y18576604D01*
X-52916751Y18576606D01*
X-52916750Y18576606D01*
X-52796606Y18696750D01*
X-52796606Y18696751D01*
X-52796604Y18696753D01*
X-52753711Y18755789D01*
X-52696729Y18834218D01*
X-52619589Y18985612D01*
X-52596673Y19056141D01*
X-52557235Y19113816D01*
X-52492876Y19141014D01*
X-52424030Y19129099D01*
X-52372554Y19081854D01*
X-52360811Y19056140D01*
X-52307924Y18893374D01*
X-52213244Y18707556D01*
X-52213236Y18707543D01*
X-52177372Y18658180D01*
X-52177371Y18658179D01*
X-51562962Y19272589D01*
X-51545925Y19209007D01*
X-51480099Y19094993D01*
X-51387007Y19001901D01*
X-51272993Y18936075D01*
X-51209408Y18919037D01*
X-51823819Y18304627D01*
X-51774451Y18268759D01*
X-51588627Y18174075D01*
X-51390272Y18109626D01*
X-51184279Y18077000D01*
X-50975721Y18077000D01*
X-50769727Y18109626D01*
X-50571372Y18174075D01*
X-50385552Y18268757D01*
X-50336180Y18304627D01*
X-50950591Y18919037D01*
X-50887007Y18936075D01*
X-50772993Y19001901D01*
X-50679901Y19094993D01*
X-50614075Y19209007D01*
X-50597037Y19272590D01*
X-49982627Y18658180D01*
X-49946757Y18707552D01*
X-49852075Y18893372D01*
X-49787626Y19091727D01*
X-49755000Y19297720D01*
X-49755000Y19506279D01*
X-49787626Y19712272D01*
X-49852075Y19910627D01*
X-49946759Y20096451D01*
X-49982627Y20145818D01*
X-49982627Y20145819D01*
X-50597037Y19531409D01*
X-50614075Y19594993D01*
X-50679901Y19709007D01*
X-50772993Y19802099D01*
X-50887007Y19867925D01*
X-50950590Y19884962D01*
X-50336179Y20499371D01*
X-50336180Y20499372D01*
X-50385543Y20535236D01*
X-50385556Y20535244D01*
X-50571372Y20629924D01*
X-50769727Y20694373D01*
X-50975721Y20727000D01*
X-51184279Y20727000D01*
X-51390272Y20694373D01*
X-51588627Y20629924D01*
X-51774451Y20535240D01*
X-51823818Y20499372D01*
X-51823818Y20499371D01*
X-51209409Y19884962D01*
X-51272993Y19867925D01*
X-51387007Y19802099D01*
X-51480099Y19709007D01*
X-51545925Y19594993D01*
X-51562962Y19531409D01*
X-52177371Y20145818D01*
X-52177372Y20145818D01*
X-52213240Y20096451D01*
X-52307924Y19910625D01*
X-52361461Y19745859D01*
X-52400899Y19688183D01*
X-52465257Y19660985D01*
X-52534104Y19672900D01*
X-52585579Y19720144D01*
X-52597323Y19745859D01*
X-52600473Y19755553D01*
X-52619588Y19814384D01*
X-52696729Y19965781D01*
X-52796604Y20103247D01*
X-52916753Y20223396D01*
X-53054219Y20323271D01*
X-53126720Y20360212D01*
X-53205611Y20400410D01*
X-53205613Y20400410D01*
X-53205616Y20400412D01*
X-53292237Y20428557D01*
X-53367215Y20452919D01*
X-53535037Y20479500D01*
X-53535042Y20479500D01*
X-53704958Y20479500D01*
X-53704963Y20479500D01*
X-53872784Y20452919D01*
X-54034384Y20400412D01*
X-54185781Y20323271D01*
X-54323247Y20223396D01*
X-54443396Y20103247D01*
X-54543271Y19965781D01*
X-54620412Y19814384D01*
X-54639527Y19755553D01*
X-54672919Y19652784D01*
X-54699500Y19484963D01*
X-55080500Y19484963D01*
X-55107080Y19652784D01*
X-55159589Y19814388D01*
X-55236729Y19965781D01*
X-55336604Y20103247D01*
X-55456753Y20223396D01*
X-55594219Y20323271D01*
X-55665745Y20359715D01*
X-55745611Y20400410D01*
X-55745613Y20400410D01*
X-55745616Y20400412D01*
X-55832237Y20428557D01*
X-55907215Y20452919D01*
X-56075037Y20479500D01*
X-56075042Y20479500D01*
X-56244958Y20479500D01*
X-56244963Y20479500D01*
X-56412784Y20452919D01*
X-56574384Y20400412D01*
X-56725781Y20323271D01*
X-56863247Y20223396D01*
X-56983396Y20103247D01*
X-57083271Y19965781D01*
X-57160412Y19814384D01*
X-57179527Y19755553D01*
X-57212919Y19652784D01*
X-57239500Y19484963D01*
X-57239500Y19315036D01*
X-57212919Y19147215D01*
X-57160410Y18985611D01*
X-57119715Y18905745D01*
X-57083271Y18834219D01*
X-56983396Y18696753D01*
X-56983393Y18696750D01*
X-56954819Y18668176D01*
X-56921334Y18606853D01*
X-56918500Y18580495D01*
X-56918500Y17502333D01*
X-56938185Y17435294D01*
X-56954819Y17414652D01*
X-59761652Y14607819D01*
X-59822975Y14574334D01*
X-59849333Y14571500D01*
X-79848419Y14571500D01*
X-79976730Y14537119D01*
X-80091770Y14470700D01*
X-82493810Y12068659D01*
X-82555131Y12035176D01*
X-82619805Y12038410D01*
X-82677287Y12057088D01*
X-82770139Y12071794D01*
X-82862986Y12086500D01*
X-82862991Y12086500D01*
X-83051009Y12086500D01*
X-83051014Y12086500D01*
X-83236713Y12057088D01*
X-83415529Y11998987D01*
X-83583055Y11913628D01*
X-83735165Y11803114D01*
X-83868114Y11670165D01*
X-83978628Y11518055D01*
X-84006066Y11464205D01*
X-84054041Y11413409D01*
X-84116551Y11396500D01*
X-99333667Y11396500D01*
X-99400706Y11416185D01*
X-99421348Y11432819D01*
X-107473492Y19484963D01*
X-59779500Y19484963D01*
X-59779500Y19315036D01*
X-59752919Y19147215D01*
X-59700410Y18985611D01*
X-59659715Y18905745D01*
X-59623271Y18834219D01*
X-59523396Y18696753D01*
X-59403247Y18576604D01*
X-59265781Y18476729D01*
X-59114388Y18399589D01*
X-58952784Y18347080D01*
X-58784963Y18320500D01*
X-58784958Y18320500D01*
X-58615037Y18320500D01*
X-58447215Y18347080D01*
X-58285611Y18399589D01*
X-58134218Y18476729D01*
X-58055789Y18533711D01*
X-57996753Y18576604D01*
X-57996751Y18576606D01*
X-57996750Y18576606D01*
X-57876606Y18696750D01*
X-57876606Y18696751D01*
X-57876604Y18696753D01*
X-57833711Y18755789D01*
X-57776729Y18834218D01*
X-57699589Y18985611D01*
X-57647080Y19147215D01*
X-57620500Y19315036D01*
X-57620500Y19484963D01*
X-57647080Y19652784D01*
X-57699589Y19814388D01*
X-57776729Y19965781D01*
X-57876604Y20103247D01*
X-57996753Y20223396D01*
X-58134219Y20323271D01*
X-58205745Y20359715D01*
X-58285611Y20400410D01*
X-58285613Y20400410D01*
X-58285616Y20400412D01*
X-58372237Y20428557D01*
X-58447215Y20452919D01*
X-58615037Y20479500D01*
X-58615042Y20479500D01*
X-58784958Y20479500D01*
X-58784963Y20479500D01*
X-58952784Y20452919D01*
X-59114384Y20400412D01*
X-59265781Y20323271D01*
X-59403247Y20223396D01*
X-59523396Y20103247D01*
X-59623271Y19965781D01*
X-59700412Y19814384D01*
X-59719527Y19755553D01*
X-59752919Y19652784D01*
X-59779500Y19484963D01*
X-107473492Y19484963D01*
X-120027298Y32038769D01*
X-120060783Y32100092D01*
X-120061235Y32150640D01*
X-120040500Y32254885D01*
X-120040500Y32455118D01*
X-120040499Y32455118D01*
X-120079562Y32651496D01*
X-120079564Y32651502D01*
X-120156189Y32836491D01*
X-120267434Y33002983D01*
X-120409016Y33144565D01*
X-120410135Y33145312D01*
X-120575507Y33255810D01*
X-120760498Y33332436D01*
X-120760503Y33332437D01*
X-120956882Y33371500D01*
X-120956884Y33371500D01*
X-121157116Y33371500D01*
X-121157118Y33371500D01*
X-121289238Y33345218D01*
X-121353502Y33332436D01*
X-121538493Y33255810D01*
X-121704981Y33144567D01*
X-121846567Y33002981D01*
X-121957810Y32836493D01*
X-122034436Y32651502D01*
X-122034437Y32651496D01*
X-122073500Y32455118D01*
X-125509500Y32455118D01*
X-125509500Y34995118D01*
X-122073500Y34995118D01*
X-122073500Y34794881D01*
X-122034437Y34598503D01*
X-122034436Y34598498D01*
X-121957810Y34413507D01*
X-121905615Y34335391D01*
X-121846565Y34247016D01*
X-121704983Y34105434D01*
X-121621737Y34049811D01*
X-121538493Y33994190D01*
X-121538491Y33994189D01*
X-121353502Y33917564D01*
X-121353496Y33917562D01*
X-121157118Y33878500D01*
X-121157116Y33878500D01*
X-120956882Y33878500D01*
X-120760503Y33917562D01*
X-120760497Y33917564D01*
X-120575508Y33994189D01*
X-120409016Y34105434D01*
X-120267434Y34247016D01*
X-120208385Y34335391D01*
X-120154773Y34380196D01*
X-120105283Y34390500D01*
X-115348333Y34390500D01*
X-115281294Y34370815D01*
X-115260652Y34354181D01*
X-102824770Y21918299D01*
X-102741612Y21870288D01*
X-102709732Y21851882D01*
X-102709731Y21851881D01*
X-102677652Y21843285D01*
X-102581419Y21817500D01*
X-77784406Y21817500D01*
X-77722404Y21800886D01*
X-77713889Y21795970D01*
X-77570318Y21757500D01*
X-77570315Y21757500D01*
X-77421685Y21757500D01*
X-77421682Y21757500D01*
X-77278111Y21795970D01*
X-77149389Y21870288D01*
X-77149386Y21870290D01*
X-77044290Y21975386D01*
X-77044288Y21975389D01*
X-76969971Y22104109D01*
X-76969970Y22104111D01*
X-76931500Y22247682D01*
X-76931500Y22396318D01*
X-76969970Y22539889D01*
X-77044288Y22668611D01*
X-77149389Y22773712D01*
X-77278111Y22848030D01*
X-77421682Y22886500D01*
X-77570318Y22886500D01*
X-77713889Y22848030D01*
X-77721160Y22843832D01*
X-77722404Y22843114D01*
X-77784406Y22826500D01*
X-102254667Y22826500D01*
X-102321706Y22846185D01*
X-102342348Y22862819D01*
X-109394647Y29915118D01*
X-106833500Y29915118D01*
X-106833500Y29714881D01*
X-106794437Y29518503D01*
X-106794436Y29518498D01*
X-106717810Y29333507D01*
X-106607312Y29168135D01*
X-106606565Y29167016D01*
X-106464983Y29025434D01*
X-106381737Y28969811D01*
X-106298493Y28914190D01*
X-106298491Y28914189D01*
X-106113502Y28837564D01*
X-106113496Y28837562D01*
X-105917118Y28798500D01*
X-105917116Y28798500D01*
X-105716882Y28798500D01*
X-105520503Y28837562D01*
X-105520497Y28837564D01*
X-105335508Y28914189D01*
X-105169016Y29025434D01*
X-105027434Y29167016D01*
X-104916189Y29333508D01*
X-104839564Y29518497D01*
X-104839562Y29518503D01*
X-104800500Y29714881D01*
X-104800500Y29915118D01*
X-104800499Y29915118D01*
X-104839562Y30111496D01*
X-104839564Y30111502D01*
X-104916189Y30296491D01*
X-105027434Y30462983D01*
X-105169016Y30604565D01*
X-105170135Y30605312D01*
X-105335507Y30715810D01*
X-105520498Y30792436D01*
X-105520503Y30792437D01*
X-105716882Y30831500D01*
X-105716884Y30831500D01*
X-105917116Y30831500D01*
X-105917118Y30831500D01*
X-106049238Y30805218D01*
X-106113502Y30792436D01*
X-106298493Y30715810D01*
X-106464981Y30604567D01*
X-106606567Y30462981D01*
X-106717810Y30296493D01*
X-106794436Y30111502D01*
X-106794437Y30111496D01*
X-106833500Y29915118D01*
X-109394647Y29915118D01*
X-111934647Y32455118D01*
X-106833500Y32455118D01*
X-106833500Y32254881D01*
X-106802710Y32100092D01*
X-106794436Y32058498D01*
X-106717810Y31873507D01*
X-106607312Y31708135D01*
X-106606565Y31707016D01*
X-106464983Y31565434D01*
X-106381737Y31509811D01*
X-106298493Y31454190D01*
X-106298491Y31454189D01*
X-106113502Y31377564D01*
X-106113496Y31377562D01*
X-105917118Y31338500D01*
X-105917116Y31338500D01*
X-105716882Y31338500D01*
X-105520503Y31377562D01*
X-105520497Y31377564D01*
X-105335508Y31454189D01*
X-105169016Y31565434D01*
X-105027434Y31707016D01*
X-104916189Y31873508D01*
X-104839564Y32058497D01*
X-104839562Y32058503D01*
X-104800500Y32254881D01*
X-104800500Y32455118D01*
X-104800499Y32455118D01*
X-104839562Y32651496D01*
X-104839564Y32651502D01*
X-104916189Y32836491D01*
X-105027434Y33002983D01*
X-105169016Y33144565D01*
X-105170135Y33145312D01*
X-105335507Y33255810D01*
X-105520498Y33332436D01*
X-105520503Y33332437D01*
X-105716882Y33371500D01*
X-105716884Y33371500D01*
X-105917116Y33371500D01*
X-105917118Y33371500D01*
X-106049238Y33345218D01*
X-106113502Y33332436D01*
X-106298493Y33255810D01*
X-106464981Y33144567D01*
X-106606567Y33002981D01*
X-106717810Y32836493D01*
X-106794436Y32651502D01*
X-106794437Y32651496D01*
X-106833500Y32455118D01*
X-111934647Y32455118D01*
X-114474647Y34995118D01*
X-106833500Y34995118D01*
X-106833500Y34794881D01*
X-106794437Y34598503D01*
X-106794436Y34598498D01*
X-106717810Y34413507D01*
X-106665615Y34335391D01*
X-106606565Y34247016D01*
X-106464983Y34105434D01*
X-106381737Y34049811D01*
X-106298493Y33994190D01*
X-106298491Y33994189D01*
X-106113502Y33917564D01*
X-106113496Y33917562D01*
X-105917118Y33878500D01*
X-105917116Y33878500D01*
X-105716882Y33878500D01*
X-105520503Y33917562D01*
X-105520497Y33917564D01*
X-105335508Y33994189D01*
X-105169016Y34105434D01*
X-105027434Y34247016D01*
X-104916189Y34413508D01*
X-104839564Y34598497D01*
X-104839562Y34598503D01*
X-104800500Y34794881D01*
X-104800500Y34995118D01*
X-104800499Y34995118D01*
X-104839562Y35191496D01*
X-104839564Y35191502D01*
X-104916189Y35376491D01*
X-105027434Y35542983D01*
X-105169016Y35684565D01*
X-105170135Y35685312D01*
X-105335507Y35795810D01*
X-105520498Y35872436D01*
X-105520503Y35872437D01*
X-105716882Y35911500D01*
X-105716884Y35911500D01*
X-105917116Y35911500D01*
X-105917118Y35911500D01*
X-106049238Y35885218D01*
X-106113502Y35872436D01*
X-106298493Y35795810D01*
X-106464981Y35684567D01*
X-106606567Y35542981D01*
X-106717810Y35376493D01*
X-106794436Y35191502D01*
X-106794437Y35191496D01*
X-106833500Y34995118D01*
X-114474647Y34995118D01*
X-114778228Y35298699D01*
X-114778233Y35298703D01*
X-114796736Y35309385D01*
X-114855108Y35343086D01*
X-114855109Y35343087D01*
X-114893264Y35365116D01*
X-114893265Y35365117D01*
X-114893267Y35365117D01*
X-114893270Y35365119D01*
X-115021581Y35399500D01*
X-115021584Y35399500D01*
X-120105283Y35399500D01*
X-120172322Y35419185D01*
X-120208385Y35454609D01*
X-120267434Y35542983D01*
X-120409016Y35684565D01*
X-120410135Y35685312D01*
X-120575507Y35795810D01*
X-120760498Y35872436D01*
X-120760503Y35872437D01*
X-120956882Y35911500D01*
X-120956884Y35911500D01*
X-121157116Y35911500D01*
X-121157118Y35911500D01*
X-121289238Y35885218D01*
X-121353502Y35872436D01*
X-121538493Y35795810D01*
X-121704981Y35684567D01*
X-121846567Y35542981D01*
X-121957810Y35376493D01*
X-122034436Y35191502D01*
X-122034437Y35191496D01*
X-122073500Y34995118D01*
X-125509500Y34995118D01*
X-125509500Y37535118D01*
X-122073500Y37535118D01*
X-122073500Y37334881D01*
X-122034437Y37138503D01*
X-122034436Y37138498D01*
X-121957810Y36953507D01*
X-121847312Y36788135D01*
X-121846565Y36787016D01*
X-121704983Y36645434D01*
X-121621737Y36589811D01*
X-121538493Y36534190D01*
X-121538491Y36534189D01*
X-121353502Y36457564D01*
X-121353496Y36457562D01*
X-121157118Y36418500D01*
X-121157116Y36418500D01*
X-120956882Y36418500D01*
X-120760503Y36457562D01*
X-120760497Y36457564D01*
X-120575508Y36534189D01*
X-120409016Y36645434D01*
X-120267434Y36787016D01*
X-120156189Y36953508D01*
X-120079564Y37138497D01*
X-120079562Y37138503D01*
X-120040500Y37334881D01*
X-120040500Y37535118D01*
X-120040499Y37535118D01*
X-106833500Y37535118D01*
X-106833500Y37334881D01*
X-106794437Y37138503D01*
X-106794436Y37138498D01*
X-106717810Y36953507D01*
X-106607312Y36788135D01*
X-106606565Y36787016D01*
X-106464983Y36645434D01*
X-106381737Y36589811D01*
X-106298493Y36534190D01*
X-106298491Y36534189D01*
X-106113502Y36457564D01*
X-106113496Y36457562D01*
X-105917118Y36418500D01*
X-105917116Y36418500D01*
X-105716882Y36418500D01*
X-105520503Y36457562D01*
X-105520497Y36457564D01*
X-105335508Y36534189D01*
X-105169016Y36645434D01*
X-105027434Y36787016D01*
X-104916189Y36953508D01*
X-104839564Y37138497D01*
X-104839562Y37138503D01*
X-104800500Y37334881D01*
X-104800500Y37535118D01*
X-104800499Y37535118D01*
X-104839562Y37731496D01*
X-104839564Y37731502D01*
X-104916189Y37916491D01*
X-105027434Y38082983D01*
X-105169016Y38224565D01*
X-105170135Y38225312D01*
X-105335507Y38335810D01*
X-105520498Y38412436D01*
X-105520503Y38412437D01*
X-105716882Y38451500D01*
X-105716884Y38451500D01*
X-105917116Y38451500D01*
X-105917118Y38451500D01*
X-106049238Y38425218D01*
X-106113502Y38412436D01*
X-106298493Y38335810D01*
X-106464981Y38224567D01*
X-106606567Y38082981D01*
X-106717810Y37916493D01*
X-106794436Y37731502D01*
X-106794437Y37731496D01*
X-106833500Y37535118D01*
X-120040499Y37535118D01*
X-120079562Y37731496D01*
X-120079564Y37731502D01*
X-120156189Y37916491D01*
X-120267434Y38082983D01*
X-120409016Y38224565D01*
X-120410135Y38225312D01*
X-120575507Y38335810D01*
X-120760498Y38412436D01*
X-120760503Y38412437D01*
X-120956882Y38451500D01*
X-120956884Y38451500D01*
X-121157116Y38451500D01*
X-121157118Y38451500D01*
X-121289238Y38425218D01*
X-121353502Y38412436D01*
X-121538493Y38335810D01*
X-121704981Y38224567D01*
X-121846567Y38082981D01*
X-121957810Y37916493D01*
X-122034436Y37731502D01*
X-122034437Y37731496D01*
X-122073500Y37535118D01*
X-125509500Y37535118D01*
X-125509500Y40075118D01*
X-122073500Y40075118D01*
X-122073500Y39874881D01*
X-122034437Y39678503D01*
X-122034436Y39678498D01*
X-121957810Y39493507D01*
X-121847312Y39328135D01*
X-121846565Y39327016D01*
X-121704983Y39185434D01*
X-121621737Y39129811D01*
X-121538493Y39074190D01*
X-121538491Y39074189D01*
X-121353502Y38997564D01*
X-121353496Y38997562D01*
X-121157118Y38958500D01*
X-121157116Y38958500D01*
X-120956882Y38958500D01*
X-120760503Y38997562D01*
X-120760497Y38997564D01*
X-120575508Y39074189D01*
X-120409016Y39185434D01*
X-120267434Y39327016D01*
X-120156189Y39493508D01*
X-120079564Y39678497D01*
X-120079562Y39678503D01*
X-120040500Y39874881D01*
X-120040500Y40075118D01*
X-120040499Y40075118D01*
X-106833500Y40075118D01*
X-106833500Y39874881D01*
X-106794437Y39678503D01*
X-106794436Y39678498D01*
X-106717810Y39493507D01*
X-106607312Y39328135D01*
X-106606565Y39327016D01*
X-106464983Y39185434D01*
X-106381737Y39129811D01*
X-106298493Y39074190D01*
X-106298491Y39074189D01*
X-106113502Y38997564D01*
X-106113496Y38997562D01*
X-105917118Y38958500D01*
X-105917116Y38958500D01*
X-105716882Y38958500D01*
X-105520503Y38997562D01*
X-105520497Y38997564D01*
X-105335508Y39074189D01*
X-105169016Y39185434D01*
X-105027434Y39327016D01*
X-104916189Y39493508D01*
X-104839564Y39678497D01*
X-104839562Y39678503D01*
X-104800500Y39874881D01*
X-104800500Y40075118D01*
X-104800499Y40075118D01*
X-104839562Y40271496D01*
X-104839564Y40271502D01*
X-104916189Y40456491D01*
X-105027434Y40622983D01*
X-105169016Y40764565D01*
X-105170135Y40765312D01*
X-105335507Y40875810D01*
X-105520498Y40952436D01*
X-105520503Y40952437D01*
X-105716882Y40991500D01*
X-105716884Y40991500D01*
X-105917116Y40991500D01*
X-105917118Y40991500D01*
X-106049238Y40965218D01*
X-106113502Y40952436D01*
X-106298493Y40875810D01*
X-106464981Y40764567D01*
X-106606567Y40622981D01*
X-106717810Y40456493D01*
X-106794436Y40271502D01*
X-106794437Y40271496D01*
X-106833500Y40075118D01*
X-120040499Y40075118D01*
X-120079562Y40271496D01*
X-120079564Y40271502D01*
X-120156189Y40456491D01*
X-120267434Y40622983D01*
X-120409016Y40764565D01*
X-120410135Y40765312D01*
X-120575507Y40875810D01*
X-120760498Y40952436D01*
X-120760503Y40952437D01*
X-120956882Y40991500D01*
X-120956884Y40991500D01*
X-121157116Y40991500D01*
X-121157118Y40991500D01*
X-121289238Y40965218D01*
X-121353502Y40952436D01*
X-121538493Y40875810D01*
X-121704981Y40764567D01*
X-121846567Y40622981D01*
X-121957810Y40456493D01*
X-122034436Y40271502D01*
X-122034437Y40271496D01*
X-122073500Y40075118D01*
X-125509500Y40075118D01*
X-125509500Y42615118D01*
X-122073500Y42615118D01*
X-122073500Y42414881D01*
X-122038628Y42239570D01*
X-122034436Y42218498D01*
X-121957810Y42033507D01*
X-121955842Y42030562D01*
X-121846565Y41867016D01*
X-121704983Y41725434D01*
X-121621737Y41669811D01*
X-121538493Y41614190D01*
X-121538491Y41614189D01*
X-121353502Y41537564D01*
X-121353496Y41537562D01*
X-121157118Y41498500D01*
X-121157116Y41498500D01*
X-120956882Y41498500D01*
X-120760503Y41537562D01*
X-120760497Y41537564D01*
X-120575504Y41614190D01*
X-120575503Y41614191D01*
X-120409023Y41725429D01*
X-120409015Y41725435D01*
X-120267434Y41867016D01*
X-120156189Y42033508D01*
X-120079564Y42218497D01*
X-120079562Y42218503D01*
X-120040500Y42414881D01*
X-120040500Y42614321D01*
X-107079000Y42614321D01*
X-107079000Y42415678D01*
X-107047924Y42219479D01*
X-107047924Y42219476D01*
X-106986542Y42030562D01*
X-106896358Y41853567D01*
X-106869268Y41816283D01*
X-106255175Y42430376D01*
X-106231208Y42340929D01*
X-106172689Y42239570D01*
X-106089930Y42156811D01*
X-105988571Y42098292D01*
X-105903066Y42075380D01*
X-106515716Y41462731D01*
X-106515715Y41462730D01*
X-106478432Y41435641D01*
X-106301437Y41345457D01*
X-106112522Y41284075D01*
X-105916321Y41253000D01*
X-105717679Y41253000D01*
X-105521479Y41284075D01*
X-105521476Y41284075D01*
X-105332562Y41345457D01*
X-105155564Y41435643D01*
X-105118283Y41462729D01*
X-105118282Y41462730D01*
X-105730934Y42075380D01*
X-105645429Y42098292D01*
X-105544070Y42156811D01*
X-105461311Y42239570D01*
X-105402792Y42340929D01*
X-105378824Y42430377D01*
X-104764730Y41816282D01*
X-104764729Y41816283D01*
X-104737643Y41853564D01*
X-104647457Y42030562D01*
X-104586075Y42219476D01*
X-104586075Y42219479D01*
X-104555000Y42415678D01*
X-104555000Y42614321D01*
X-104586075Y42810520D01*
X-104586075Y42810523D01*
X-104647457Y42999437D01*
X-104737641Y43176432D01*
X-104764730Y43213715D01*
X-104764731Y43213716D01*
X-105378824Y42599622D01*
X-105402792Y42689071D01*
X-105461311Y42790430D01*
X-105544070Y42873189D01*
X-105645429Y42931708D01*
X-105730933Y42954618D01*
X-105118283Y43567268D01*
X-105118283Y43567269D01*
X-105155567Y43594358D01*
X-105332562Y43684542D01*
X-105521477Y43745924D01*
X-105717679Y43777000D01*
X-105916321Y43777000D01*
X-106112520Y43745924D01*
X-106112523Y43745924D01*
X-106301437Y43684542D01*
X-106478425Y43594362D01*
X-106515716Y43567268D01*
X-105903066Y42954618D01*
X-105988571Y42931708D01*
X-106089930Y42873189D01*
X-106172689Y42790430D01*
X-106231208Y42689071D01*
X-106255175Y42599622D01*
X-106869268Y43213715D01*
X-106896362Y43176425D01*
X-106986542Y42999437D01*
X-107047924Y42810523D01*
X-107047924Y42810520D01*
X-107079000Y42614321D01*
X-120040500Y42614321D01*
X-120040500Y42615118D01*
X-120040499Y42615118D01*
X-120079562Y42811496D01*
X-120079564Y42811502D01*
X-120156189Y42996491D01*
X-120267434Y43162983D01*
X-120409016Y43304565D01*
X-120411225Y43306041D01*
X-120575507Y43415810D01*
X-120760498Y43492436D01*
X-120760503Y43492437D01*
X-120956882Y43531500D01*
X-120956884Y43531500D01*
X-121157116Y43531500D01*
X-121157118Y43531500D01*
X-121289238Y43505218D01*
X-121353502Y43492436D01*
X-121538493Y43415810D01*
X-121704981Y43304567D01*
X-121846567Y43162981D01*
X-121957810Y42996493D01*
X-122034436Y42811502D01*
X-122047218Y42747238D01*
X-122073500Y42615118D01*
X-125509500Y42615118D01*
X-125509500Y45155118D01*
X-122073500Y45155118D01*
X-122073500Y44954881D01*
X-122034437Y44758503D01*
X-122034436Y44758498D01*
X-121957810Y44573507D01*
X-121847312Y44408135D01*
X-121846565Y44407016D01*
X-121704983Y44265434D01*
X-121621737Y44209811D01*
X-121538493Y44154190D01*
X-121538491Y44154189D01*
X-121353502Y44077564D01*
X-121353496Y44077562D01*
X-121157118Y44038500D01*
X-121157116Y44038500D01*
X-120956882Y44038500D01*
X-120760503Y44077562D01*
X-120760497Y44077564D01*
X-120575508Y44154189D01*
X-120409016Y44265434D01*
X-120267434Y44407016D01*
X-120156189Y44573508D01*
X-120079564Y44758497D01*
X-120079562Y44758503D01*
X-120040500Y44954881D01*
X-120040500Y45155118D01*
X-120040499Y45155118D01*
X-106833500Y45155118D01*
X-106833500Y44954881D01*
X-106794437Y44758503D01*
X-106794436Y44758498D01*
X-106717810Y44573507D01*
X-106607312Y44408135D01*
X-106606565Y44407016D01*
X-106464983Y44265434D01*
X-106381737Y44209811D01*
X-106298493Y44154190D01*
X-106298491Y44154189D01*
X-106113502Y44077564D01*
X-106113496Y44077562D01*
X-105917118Y44038500D01*
X-105917116Y44038500D01*
X-105716882Y44038500D01*
X-105520503Y44077562D01*
X-105520497Y44077564D01*
X-105335508Y44154189D01*
X-105169016Y44265434D01*
X-105027434Y44407016D01*
X-104916189Y44573508D01*
X-104839564Y44758497D01*
X-104839562Y44758503D01*
X-104800500Y44954881D01*
X-104800500Y45155118D01*
X-104800499Y45155118D01*
X-104839562Y45351496D01*
X-104839564Y45351502D01*
X-104916189Y45536491D01*
X-105027434Y45702983D01*
X-105169016Y45844565D01*
X-105170135Y45845312D01*
X-105335507Y45955810D01*
X-105520498Y46032436D01*
X-105520503Y46032437D01*
X-105716882Y46071500D01*
X-105716884Y46071500D01*
X-105917116Y46071500D01*
X-105917118Y46071500D01*
X-106049238Y46045218D01*
X-106113502Y46032436D01*
X-106298493Y45955810D01*
X-106464981Y45844567D01*
X-106606567Y45702981D01*
X-106717810Y45536493D01*
X-106794436Y45351502D01*
X-106794437Y45351496D01*
X-106833500Y45155118D01*
X-120040499Y45155118D01*
X-120079562Y45351496D01*
X-120079564Y45351502D01*
X-120156189Y45536491D01*
X-120267434Y45702983D01*
X-120409016Y45844565D01*
X-120410135Y45845312D01*
X-120575507Y45955810D01*
X-120760498Y46032436D01*
X-120760503Y46032437D01*
X-120956882Y46071500D01*
X-120956884Y46071500D01*
X-121157116Y46071500D01*
X-121157118Y46071500D01*
X-121289238Y46045218D01*
X-121353502Y46032436D01*
X-121538493Y45955810D01*
X-121704981Y45844567D01*
X-121846567Y45702981D01*
X-121957810Y45536493D01*
X-122034436Y45351502D01*
X-122034437Y45351496D01*
X-122073500Y45155118D01*
X-125509500Y45155118D01*
X-125509500Y47602952D01*
X-125489815Y47669991D01*
X-125437011Y47715746D01*
X-125384995Y47726951D01*
X-33032397Y47351024D01*
G37*
%TD.AperFunction*%
%TD*%
M02*
