%TF.GenerationSoftware,KiCad,Pcbnew,9.0.8-9.0.8~ubuntu22.04.1*%
%TF.CreationDate,2026-04-04T02:28:35+02:00*%
%TF.ProjectId,PCB_PCB_hermes_2026-04-04,5043425f-5043-4425-9f68-65726d65735f,rev?*%
%TF.SameCoordinates,Original*%
%TF.FileFunction,Paste,Top*%
%TF.FilePolarity,Positive*%
%FSLAX46Y46*%
G04 Gerber Fmt 4.6, Leading zero omitted, Abs format (unit mm)*
G04 Created by KiCad (PCBNEW 9.0.8-9.0.8~ubuntu22.04.1) date 2026-04-04 02:28:35*
%MOMM*%
%LPD*%
G01*
G04 APERTURE LIST*
G04 Aperture macros list*
%AMFreePoly0*
4,1,25,1.083384,0.808090,1.190384,0.763090,1.217090,0.736384,1.262090,0.629384,1.266000,0.610000,1.266000,-0.610000,1.262090,-0.629384,1.217090,-0.736384,1.190384,-0.763090,1.083384,-0.808090,1.064000,-0.812000,-1.063000,-0.812000,-1.082231,-0.808154,-1.190231,-0.763154,-1.217090,-0.736384,-1.262090,-0.629384,-1.266000,-0.610000,-1.266000,0.610000,-1.262090,0.629384,-1.217090,0.736384,
-1.190231,0.763154,-1.082231,0.808154,-1.063000,0.812000,1.064000,0.812000,1.083384,0.808090,1.083384,0.808090,$1*%
%AMFreePoly1*
4,1,49,0.283870,1.182402,0.465343,1.123438,0.635358,1.036810,0.789729,0.924654,0.902383,0.812000,1.064000,0.812000,1.083384,0.808090,1.190384,0.763090,1.217090,0.736384,1.262090,0.629384,1.266000,0.610000,1.266000,-0.610000,1.262090,-0.629384,1.217090,-0.736384,1.190384,-0.763090,1.083384,-0.808090,1.064000,-0.812000,0.902383,-0.812000,0.789729,-0.924654,0.635358,-1.036810,
0.465343,-1.123438,0.283870,-1.182402,0.095406,-1.212251,-0.095406,-1.212251,-0.283870,-1.182402,-0.465343,-1.123438,-0.635358,-1.036810,-0.789729,-0.924654,-0.902383,-0.812000,-1.063000,-0.812000,-1.082231,-0.808154,-1.190231,-0.763154,-1.217090,-0.736384,-1.262090,-0.629384,-1.266000,-0.610000,-1.266000,0.610000,-1.262090,0.629384,-1.217090,0.736384,-1.190231,0.763154,-1.082231,0.808154,
-1.063000,0.812000,-0.902383,0.812000,-0.789729,0.924654,-0.635358,1.036810,-0.465343,1.123438,-0.283870,1.182402,-0.095406,1.212251,0.095406,1.212251,0.283870,1.182402,0.283870,1.182402,$1*%
G04 Aperture macros list end*
%ADD10C,1.880000*%
%ADD11C,3.000000*%
%ADD12C,1.524000*%
%ADD13R,1.778000X1.778000*%
%ADD14C,1.778000*%
%ADD15C,1.650000*%
%ADD16FreePoly0,180.000000*%
%ADD17FreePoly1,180.000000*%
%ADD18FreePoly0,0.000000*%
%ADD19FreePoly1,0.000000*%
G04 APERTURE END LIST*
D10*
%TO.C,R2*%
X-82957000Y10892000D03*
X-82957000Y3272000D03*
%TD*%
D11*
%TO.C,SW2*%
X-87021000Y-15270000D03*
X-80671000Y-12730000D03*
%TD*%
D12*
%TO.C,C1*%
X-51588000Y-9428000D03*
X-51588000Y-11968000D03*
%TD*%
%TO.C,D2*%
X-110897000Y7336000D03*
X-110897000Y-284000D03*
%TD*%
D10*
%TO.C,R1*%
X-68987000Y11400000D03*
X-68987000Y3780000D03*
%TD*%
D11*
%TO.C,SW1*%
X-114326000Y-15016000D03*
X-107976000Y-12476000D03*
%TD*%
D13*
%TO.C,A1*%
X-48032000Y-15397000D03*
D14*
X-48032000Y-17937000D03*
X-48032000Y-20477000D03*
X-48032000Y-23017000D03*
%TD*%
D12*
%TO.C,D1*%
X-101118000Y8225000D03*
X-101118000Y605000D03*
%TD*%
%TO.C,C2*%
X-47016000Y11019000D03*
X-47016000Y13559000D03*
%TD*%
D15*
%TO.C,OLED1*%
X-51080000Y19402000D03*
X-53620000Y19400000D03*
X-56160000Y19400000D03*
X-58700000Y19400000D03*
%TD*%
D16*
%TO.C,U1*%
X-121892000Y45055000D03*
D12*
X-121057000Y45055000D03*
D17*
X-121892000Y42515000D03*
D12*
X-121057000Y42515000D03*
D17*
X-121892000Y39975000D03*
D12*
X-121057000Y39975000D03*
D16*
X-121892000Y37435000D03*
D12*
X-121057000Y37435000D03*
D16*
X-121892000Y34895000D03*
D12*
X-121057000Y34895000D03*
D16*
X-121892000Y32355000D03*
D12*
X-121057000Y32355000D03*
D16*
X-121892000Y29815000D03*
D12*
X-121057000Y29815000D03*
X-105817000Y29815000D03*
D18*
X-104982000Y29815000D03*
D12*
X-105817000Y32355000D03*
D18*
X-104982000Y32355000D03*
D12*
X-105817000Y34895000D03*
D18*
X-104982000Y34895000D03*
D12*
X-105817000Y37435000D03*
D19*
X-104982000Y37435000D03*
D12*
X-105817000Y39975000D03*
D18*
X-104982000Y39975000D03*
D12*
X-105817000Y42515000D03*
D18*
X-104982000Y42515000D03*
D12*
X-105817000Y45055000D03*
D18*
X-104982000Y45055000D03*
%TD*%
M02*
