%TF.GenerationSoftware,KiCad,Pcbnew,9.0.8-9.0.8~ubuntu22.04.1*%
%TF.CreationDate,2026-04-04T02:28:31+02:00*%
%TF.ProjectId,PCB_PCB_hermes_2026-04-04,5043425f-5043-4425-9f68-65726d65735f,rev?*%
%TF.SameCoordinates,Original*%
%TF.FileFunction,Copper,L1,Top*%
%TF.FilePolarity,Positive*%
%FSLAX46Y46*%
G04 Gerber Fmt 4.6, Leading zero omitted, Abs format (unit mm)*
G04 Created by KiCad (PCBNEW 9.0.8-9.0.8~ubuntu22.04.1) date 2026-04-04 02:28:31*
%MOMM*%
%LPD*%
G01*
G04 APERTURE LIST*
G04 Aperture macros list*
%AMFreePoly0*
4,1,25,1.083384,0.808090,1.190384,0.763090,1.217090,0.736384,1.262090,0.629384,1.266000,0.610000,1.266000,-0.610000,1.262090,-0.629384,1.217090,-0.736384,1.190384,-0.763090,1.083384,-0.808090,1.064000,-0.812000,-1.063000,-0.812000,-1.082231,-0.808154,-1.190231,-0.763154,-1.217090,-0.736384,-1.262090,-0.629384,-1.266000,-0.610000,-1.266000,0.610000,-1.262090,0.629384,-1.217090,0.736384,
-1.190231,0.763154,-1.082231,0.808154,-1.063000,0.812000,1.064000,0.812000,1.083384,0.808090,1.083384,0.808090,$1*%
%AMFreePoly1*
4,1,49,0.283870,1.182402,0.465343,1.123438,0.635358,1.036810,0.789729,0.924654,0.902383,0.812000,1.064000,0.812000,1.083384,0.808090,1.190384,0.763090,1.217090,0.736384,1.262090,0.629384,1.266000,0.610000,1.266000,-0.610000,1.262090,-0.629384,1.217090,-0.736384,1.190384,-0.763090,1.083384,-0.808090,1.064000,-0.812000,0.902383,-0.812000,0.789729,-0.924654,0.635358,-1.036810,
0.465343,-1.123438,0.283870,-1.182402,0.095406,-1.212251,-0.095406,-1.212251,-0.283870,-1.182402,-0.465343,-1.123438,-0.635358,-1.036810,-0.789729,-0.924654,-0.902383,-0.812000,-1.063000,-0.812000,-1.082231,-0.808154,-1.190231,-0.763154,-1.217090,-0.736384,-1.262090,-0.629384,-1.266000,-0.610000,-1.266000,0.610000,-1.262090,0.629384,-1.217090,0.736384,-1.190231,0.763154,-1.082231,0.808154,
-1.063000,0.812000,-0.902383,0.812000,-0.789729,0.924654,-0.635358,1.036810,-0.465343,1.123438,-0.283870,1.182402,-0.095406,1.212251,0.095406,1.212251,0.283870,1.182402,0.283870,1.182402,$1*%
G04 Aperture macros list end*
%TA.AperFunction,ComponentPad*%
%ADD10C,1.880000*%
%TD*%
%TA.AperFunction,ComponentPad*%
%ADD11C,3.000000*%
%TD*%
%TA.AperFunction,ComponentPad*%
%ADD12C,1.524000*%
%TD*%
%TA.AperFunction,ComponentPad*%
%ADD13R,1.778000X1.778000*%
%TD*%
%TA.AperFunction,ComponentPad*%
%ADD14C,1.778000*%
%TD*%
%TA.AperFunction,ComponentPad*%
%ADD15C,1.650000*%
%TD*%
%TA.AperFunction,SMDPad,CuDef*%
%ADD16FreePoly0,180.000000*%
%TD*%
%TA.AperFunction,SMDPad,CuDef*%
%ADD17FreePoly1,180.000000*%
%TD*%
%TA.AperFunction,SMDPad,CuDef*%
%ADD18FreePoly0,0.000000*%
%TD*%
%TA.AperFunction,SMDPad,CuDef*%
%ADD19FreePoly1,0.000000*%
%TD*%
%TA.AperFunction,ViaPad*%
%ADD20C,0.620000*%
%TD*%
%TA.AperFunction,Conductor*%
%ADD21C,0.500000*%
%TD*%
G04 APERTURE END LIST*
D10*
%TO.P,R2,1*%
%TO.N,SCL*%
X-82957000Y10892000D03*
%TO.P,R2,2*%
%TO.N,3.3V*%
X-82957000Y3272000D03*
%TD*%
D11*
%TO.P,SW2,1*%
%TO.N,GND*%
X-87021000Y-15270000D03*
%TO.P,SW2,2*%
%TO.N,SW2_2*%
X-80671000Y-12730000D03*
%TD*%
D12*
%TO.P,C1,1*%
%TO.N,3.3V*%
X-51588000Y-9428000D03*
%TO.P,C1,2*%
%TO.N,GND*%
X-51588000Y-11968000D03*
%TD*%
%TO.P,D2,1*%
%TO.N,U1_2*%
X-110897000Y7336000D03*
%TO.P,D2,2*%
%TO.N,SW1_2*%
X-110897000Y-284000D03*
%TD*%
D10*
%TO.P,R1,1*%
%TO.N,SDA*%
X-68987000Y11400000D03*
%TO.P,R1,2*%
%TO.N,3.3V*%
X-68987000Y3780000D03*
%TD*%
D11*
%TO.P,SW1,1*%
%TO.N,GND*%
X-114326000Y-15016000D03*
%TO.P,SW1,2*%
%TO.N,SW1_2*%
X-107976000Y-12476000D03*
%TD*%
D13*
%TO.P,A1,1*%
%TO.N,3.3V*%
X-48032000Y-15397000D03*
D14*
%TO.P,A1,2*%
%TO.N,GND*%
X-48032000Y-17937000D03*
%TO.P,A1,3*%
%TO.N,SCL*%
X-48032000Y-20477000D03*
%TO.P,A1,4*%
%TO.N,SDA*%
X-48032000Y-23017000D03*
%TD*%
D12*
%TO.P,D1,1*%
%TO.N,U1_1*%
X-101118000Y8225000D03*
%TO.P,D1,2*%
%TO.N,SW2_2*%
X-101118000Y605000D03*
%TD*%
%TO.P,C2,1*%
%TO.N,3.3V*%
X-47016000Y11019000D03*
%TO.P,C2,2*%
%TO.N,GND*%
X-47016000Y13559000D03*
%TD*%
D15*
%TO.P,OLED1,1*%
%TO.N,GND*%
X-51080000Y19402000D03*
%TO.P,OLED1,2*%
%TO.N,3.3V*%
X-53620000Y19400000D03*
%TO.P,OLED1,3*%
%TO.N,SCL*%
X-56160000Y19400000D03*
%TO.P,OLED1,4*%
%TO.N,SDA*%
X-58700000Y19400000D03*
%TD*%
D16*
%TO.P,U1,1*%
%TO.N,U1_1*%
X-121892000Y45055000D03*
D12*
X-121057000Y45055000D03*
D17*
%TO.P,U1,2*%
%TO.N,U1_2*%
X-121892000Y42515000D03*
D12*
X-121057000Y42515000D03*
D17*
%TO.P,U1,3*%
%TO.N,N/C*%
X-121892000Y39975000D03*
D12*
X-121057000Y39975000D03*
D16*
%TO.P,U1,4*%
X-121892000Y37435000D03*
D12*
X-121057000Y37435000D03*
D16*
%TO.P,U1,5*%
%TO.N,SDA*%
X-121892000Y34895000D03*
D12*
X-121057000Y34895000D03*
D16*
%TO.P,U1,6*%
%TO.N,SCL*%
X-121892000Y32355000D03*
D12*
X-121057000Y32355000D03*
D16*
%TO.P,U1,7*%
%TO.N,N/C*%
X-121892000Y29815000D03*
D12*
X-121057000Y29815000D03*
%TO.P,U1,8*%
X-105817000Y29815000D03*
D18*
X-104982000Y29815000D03*
D12*
%TO.P,U1,9*%
X-105817000Y32355000D03*
D18*
X-104982000Y32355000D03*
D12*
%TO.P,U1,10*%
X-105817000Y34895000D03*
D18*
X-104982000Y34895000D03*
D12*
%TO.P,U1,11*%
X-105817000Y37435000D03*
D19*
X-104982000Y37435000D03*
D12*
%TO.P,U1,12*%
%TO.N,3.3V*%
X-105817000Y39975000D03*
D18*
X-104982000Y39975000D03*
D12*
%TO.P,U1,13*%
%TO.N,GND*%
X-105817000Y42515000D03*
D18*
X-104982000Y42515000D03*
D12*
%TO.P,U1,14*%
%TO.N,N/C*%
X-105817000Y45055000D03*
D18*
X-104982000Y45055000D03*
%TD*%
D20*
%TO.N,*%
X9880000Y-17683000D03*
%TO.N,3.3V*%
X-51588000Y-2078000D03*
%TO.N,SDA*%
X-77496000Y22322000D03*
%TD*%
D21*
%TO.N,3.3V*%
X-104981000Y39975000D02*
X-103531000Y39975000D01*
X-47016000Y11019000D02*
X-47016000Y-4856000D01*
X-49556000Y11019000D02*
X-52858000Y14321000D01*
X-48032000Y-10190000D02*
X-48032000Y-15397000D01*
X-52858000Y14321000D02*
X-52858000Y18638000D01*
X-52858000Y18638000D02*
X-53620000Y19400000D01*
X-103531000Y39975000D02*
X-87148000Y23592000D01*
X-82957000Y3272000D02*
X-82957000Y3272000D01*
X-47016000Y11019000D02*
X-49556000Y11019000D01*
X-68987000Y3780000D02*
X-82957000Y3272000D01*
X-51588000Y-9428000D02*
X-48794000Y-9428000D01*
X-48794000Y-9428000D02*
X-48032000Y-10190000D01*
X-87148000Y4669000D02*
X-85751000Y3272000D01*
X-85751000Y3272000D02*
X-82957000Y3272000D01*
X-47016000Y-4856000D02*
X-51588000Y-9428000D01*
X-87148000Y23592000D02*
X-87148000Y4669000D01*
X-51588000Y-9428000D02*
X-51588000Y-1935000D01*
%TO.N,SCL*%
X-55652000Y18892000D02*
X-56160000Y19400000D01*
X-51207000Y-20477000D02*
X-55652000Y-16032000D01*
X-55652000Y-16032000D02*
X-55652000Y18892000D01*
X-48032000Y-20477000D02*
X-51207000Y-20477000D01*
X-48032000Y-20477000D02*
X-51207000Y-20477000D01*
%TO.N,SDA*%
X-68987000Y11400000D02*
X-68987000Y13813000D01*
X-59716000Y2129000D02*
X-68987000Y11400000D01*
X-68987000Y13813000D02*
X-77496000Y22322000D01*
X-66700000Y11400000D02*
X-58700000Y19400000D01*
X-48032000Y-23017000D02*
X-53874000Y-23017000D01*
X-68987000Y11400000D02*
X-66700000Y11400000D01*
X-53874000Y-23017000D02*
X-59716000Y-17175000D01*
X-59716000Y-17175000D02*
X-59716000Y2129000D01*
%TO.N,SW2_2*%
X-100356000Y-5364000D02*
X-100356000Y-157000D01*
X-80671000Y-10952000D02*
X-86259000Y-5364000D01*
X-100356000Y-157000D02*
X-101118000Y605000D01*
X-86259000Y-5364000D02*
X-100356000Y-5364000D01*
X-80671000Y-12730000D02*
X-80671000Y-10952000D01*
%TO.N,SW1_2*%
X-107976000Y-3205000D02*
X-110897000Y-284000D01*
X-107976000Y-12476000D02*
X-107976000Y-3205000D01*
%TO.N,U1_1*%
X-101118000Y18004000D02*
X-111151000Y28037000D01*
X-111151000Y28037000D02*
X-111151000Y37308000D01*
X-118898000Y45055000D02*
X-121893000Y45055000D01*
X-111151000Y37308000D02*
X-118898000Y45055000D01*
X-101118000Y8225000D02*
X-101118000Y18004000D01*
%TO.N,U1_2*%
X-110897000Y7336000D02*
X-110897000Y13559000D01*
X-115342000Y18004000D02*
X-115342000Y37562000D01*
X-120295000Y42515000D02*
X-121893000Y42515000D01*
X-110897000Y13559000D02*
X-115342000Y18004000D01*
X-115342000Y37562000D02*
X-120295000Y42515000D01*
%TD*%
%TA.AperFunction,Conductor*%
%TO.N,GND*%
G36*
X-33032397Y47351024D02*
G01*
X-32965438Y47331067D01*
X-32919899Y47278077D01*
X-32908903Y47227546D01*
X-32784498Y17494646D01*
X-32784547Y17494476D01*
X-32784498Y17494477D01*
X-32668478Y-23924305D01*
X-32659246Y-27219844D01*
X-32678743Y-27286938D01*
X-32731419Y-27332841D01*
X-32782910Y-27344191D01*
X-125385164Y-27594806D01*
X-125452257Y-27575302D01*
X-125498155Y-27522623D01*
X-125509500Y-27470806D01*
X-125509500Y-17469389D01*
X-116696500Y-17469389D01*
X-116696500Y-17642611D01*
X-116669402Y-17813701D01*
X-116615873Y-17978445D01*
X-116537232Y-18132788D01*
X-116435414Y-18272928D01*
X-116312928Y-18395414D01*
X-116172788Y-18497232D01*
X-116018445Y-18575873D01*
X-115853701Y-18629402D01*
X-115682611Y-18656500D01*
X-115682610Y-18656500D01*
X-115509390Y-18656500D01*
X-115509389Y-18656500D01*
X-115338299Y-18629402D01*
X-115173555Y-18575873D01*
X-115019212Y-18497232D01*
X-114879072Y-18395414D01*
X-114756586Y-18272928D01*
X-114654768Y-18132788D01*
X-114576127Y-17978445D01*
X-114522598Y-17813701D01*
X-114495500Y-17642611D01*
X-114495500Y-17469389D01*
X-114502715Y-17423831D01*
X-114502715Y-17423829D01*
X-114505144Y-17408494D01*
X-112766500Y-17408494D01*
X-112766500Y-17703506D01*
X-112727993Y-17995993D01*
X-112651639Y-18280952D01*
X-112538743Y-18553507D01*
X-112391238Y-18808994D01*
X-112211646Y-19043042D01*
X-112003042Y-19251646D01*
X-111768994Y-19431238D01*
X-111513507Y-19578743D01*
X-111240952Y-19691639D01*
X-110955993Y-19767993D01*
X-110663506Y-19806500D01*
X-110663499Y-19806500D01*
X-110368501Y-19806500D01*
X-110368494Y-19806500D01*
X-110076007Y-19767993D01*
X-109791048Y-19691639D01*
X-109775594Y-19685238D01*
X-109729296Y-19666060D01*
X-109518493Y-19578743D01*
X-109518490Y-19578741D01*
X-109518489Y-19578741D01*
X-109263006Y-19431238D01*
X-109028959Y-19251647D01*
X-109028952Y-19251641D01*
X-108820358Y-19043047D01*
X-108820352Y-19043040D01*
X-108640761Y-18808993D01*
X-108493258Y-18553510D01*
X-108493254Y-18553500D01*
X-108380364Y-18280961D01*
X-108380361Y-18280951D01*
X-108378212Y-18272930D01*
X-108304007Y-17995993D01*
X-108281848Y-17827683D01*
X-108265500Y-17703513D01*
X-108265500Y-17469389D01*
X-106536500Y-17469389D01*
X-106536500Y-17642611D01*
X-106509402Y-17813701D01*
X-106455873Y-17978445D01*
X-106377232Y-18132788D01*
X-106275414Y-18272928D01*
X-106152928Y-18395414D01*
X-106012788Y-18497232D01*
X-105858445Y-18575873D01*
X-105693701Y-18629402D01*
X-105522611Y-18656500D01*
X-105522610Y-18656500D01*
X-105349390Y-18656500D01*
X-105349389Y-18656500D01*
X-105178299Y-18629402D01*
X-105013555Y-18575873D01*
X-104859212Y-18497232D01*
X-104719072Y-18395414D01*
X-104596586Y-18272928D01*
X-104494768Y-18132788D01*
X-104416127Y-17978445D01*
X-104362598Y-17813701D01*
X-104348294Y-17723389D01*
X-89391500Y-17723389D01*
X-89391500Y-17896611D01*
X-89364402Y-18067701D01*
X-89310873Y-18232445D01*
X-89232232Y-18386788D01*
X-89130414Y-18526928D01*
X-89007928Y-18649414D01*
X-88867788Y-18751232D01*
X-88713445Y-18829873D01*
X-88548701Y-18883402D01*
X-88377611Y-18910500D01*
X-88377610Y-18910500D01*
X-88204390Y-18910500D01*
X-88204389Y-18910500D01*
X-88033299Y-18883402D01*
X-87868555Y-18829873D01*
X-87714212Y-18751232D01*
X-87574072Y-18649414D01*
X-87451586Y-18526928D01*
X-87349768Y-18386788D01*
X-87271127Y-18232445D01*
X-87217598Y-18067701D01*
X-87206240Y-17995993D01*
X-87190500Y-17896610D01*
X-87190500Y-17723394D01*
X-87190500Y-17723389D01*
X-87197715Y-17677831D01*
X-87197715Y-17677829D01*
X-87200144Y-17662494D01*
X-85461500Y-17662494D01*
X-85461500Y-17957506D01*
X-85422993Y-18249993D01*
X-85346639Y-18534952D01*
X-85233743Y-18807507D01*
X-85086238Y-19062994D01*
X-84906646Y-19297042D01*
X-84698042Y-19505646D01*
X-84463994Y-19685238D01*
X-84208507Y-19832743D01*
X-83935952Y-19945639D01*
X-83650993Y-20021993D01*
X-83358506Y-20060500D01*
X-83358499Y-20060500D01*
X-83063501Y-20060500D01*
X-83063494Y-20060500D01*
X-82771007Y-20021993D01*
X-82486048Y-19945639D01*
X-82213493Y-19832743D01*
X-82213490Y-19832741D01*
X-82213489Y-19832741D01*
X-81958006Y-19685238D01*
X-81723959Y-19505647D01*
X-81723952Y-19505641D01*
X-81515358Y-19297047D01*
X-81515352Y-19297040D01*
X-81335761Y-19062993D01*
X-81188258Y-18807510D01*
X-81188254Y-18807500D01*
X-81075364Y-18534961D01*
X-81075361Y-18534951D01*
X-81073212Y-18526930D01*
X-80999007Y-18249993D01*
X-80992571Y-18201113D01*
X-80960500Y-17957513D01*
X-80960500Y-17723389D01*
X-79231500Y-17723389D01*
X-79231500Y-17896611D01*
X-79204402Y-18067701D01*
X-79150873Y-18232445D01*
X-79072232Y-18386788D01*
X-78970414Y-18526928D01*
X-78847928Y-18649414D01*
X-78707788Y-18751232D01*
X-78553445Y-18829873D01*
X-78388701Y-18883402D01*
X-78217611Y-18910500D01*
X-78217610Y-18910500D01*
X-78044390Y-18910500D01*
X-78044389Y-18910500D01*
X-77873299Y-18883402D01*
X-77708555Y-18829873D01*
X-77554212Y-18751232D01*
X-77414072Y-18649414D01*
X-77291586Y-18526928D01*
X-77189768Y-18386788D01*
X-77111127Y-18232445D01*
X-77057598Y-18067701D01*
X-77046240Y-17995993D01*
X-77030500Y-17896610D01*
X-77030500Y-17723389D01*
X-77057597Y-17552302D01*
X-77111128Y-17387552D01*
X-77189768Y-17233211D01*
X-77262173Y-17133555D01*
X-77291586Y-17093072D01*
X-77291588Y-17093070D01*
X-77291588Y-17093069D01*
X-77414069Y-16970588D01*
X-77554211Y-16868768D01*
X-77708552Y-16790128D01*
X-77873302Y-16736597D01*
X-77873301Y-16736597D01*
X-78012192Y-16714599D01*
X-78044389Y-16709500D01*
X-78217611Y-16709500D01*
X-78262350Y-16716586D01*
X-78388697Y-16736597D01*
X-78388699Y-16736597D01*
X-78388701Y-16736598D01*
X-78553445Y-16790127D01*
X-78553446Y-16790127D01*
X-78553447Y-16790128D01*
X-78597333Y-16812489D01*
X-78707788Y-16868768D01*
X-78847928Y-16970586D01*
X-78970414Y-17093072D01*
X-79072232Y-17233212D01*
X-79150873Y-17387555D01*
X-79204402Y-17552299D01*
X-79231500Y-17723389D01*
X-80960500Y-17723389D01*
X-80960500Y-17662486D01*
X-80999006Y-17370014D01*
X-80999008Y-17370004D01*
X-81018221Y-17298301D01*
X-81075361Y-17085048D01*
X-81075364Y-17085038D01*
X-81188254Y-16812499D01*
X-81188258Y-16812489D01*
X-81335761Y-16557006D01*
X-81515352Y-16322959D01*
X-81515358Y-16322952D01*
X-81723952Y-16114358D01*
X-81723959Y-16114352D01*
X-81958006Y-15934761D01*
X-82213489Y-15787258D01*
X-82213499Y-15787254D01*
X-82486038Y-15674364D01*
X-82486048Y-15674361D01*
X-82538693Y-15660255D01*
X-82771007Y-15598007D01*
X-82785085Y-15596153D01*
X-83063486Y-15559500D01*
X-83063494Y-15559500D01*
X-83358506Y-15559500D01*
X-83358513Y-15559500D01*
X-83602113Y-15591571D01*
X-83650993Y-15598007D01*
X-83935952Y-15674361D01*
X-83935954Y-15674362D01*
X-83935961Y-15674364D01*
X-84208500Y-15787254D01*
X-84208510Y-15787258D01*
X-84463993Y-15934761D01*
X-84698040Y-16114352D01*
X-84698047Y-16114358D01*
X-84906641Y-16322952D01*
X-84906647Y-16322959D01*
X-85086238Y-16557006D01*
X-85217536Y-16784422D01*
X-85233743Y-16812493D01*
X-85346639Y-17085048D01*
X-85422993Y-17370007D01*
X-85422993Y-17370013D01*
X-85422994Y-17370014D01*
X-85436077Y-17469389D01*
X-85461500Y-17662494D01*
X-87200144Y-17662494D01*
X-87217597Y-17552302D01*
X-87217597Y-17552301D01*
X-87256582Y-17432318D01*
X-87258577Y-17362476D01*
X-87222496Y-17302644D01*
X-87159795Y-17271816D01*
X-87138651Y-17270000D01*
X-86889920Y-17270000D01*
X-86889905Y-17269999D01*
X-86629990Y-17235779D01*
X-86629979Y-17235777D01*
X-86376744Y-17167924D01*
X-86134528Y-17067595D01*
X-86134517Y-17067590D01*
X-85907483Y-16936511D01*
X-85907475Y-16936505D01*
X-85794633Y-16849918D01*
X-85794633Y-16849917D01*
X-86696974Y-15947578D01*
X-86665742Y-15934641D01*
X-86542903Y-15852563D01*
X-86438437Y-15748097D01*
X-86356359Y-15625258D01*
X-86343421Y-15594024D01*
X-85441080Y-16496365D01*
X-85354494Y-16383524D01*
X-85354488Y-16383516D01*
X-85223409Y-16156482D01*
X-85223404Y-16156471D01*
X-85123075Y-15914255D01*
X-85055222Y-15661020D01*
X-85055220Y-15661009D01*
X-85021000Y-15401094D01*
X-85021000Y-15138905D01*
X-85055220Y-14878990D01*
X-85055222Y-14878979D01*
X-85123075Y-14625744D01*
X-85223404Y-14383528D01*
X-85223409Y-14383517D01*
X-85354496Y-14156471D01*
X-85441079Y-14043633D01*
X-85441080Y-14043633D01*
X-86343421Y-14945974D01*
X-86356359Y-14914742D01*
X-86438437Y-14791903D01*
X-86542903Y-14687437D01*
X-86665742Y-14605359D01*
X-86696974Y-14592421D01*
X-85794633Y-13690080D01*
X-85794633Y-13690079D01*
X-85907471Y-13603496D01*
X-86134517Y-13472409D01*
X-86134528Y-13472404D01*
X-86376744Y-13372075D01*
X-86629979Y-13304222D01*
X-86629990Y-13304220D01*
X-86889905Y-13270000D01*
X-87152094Y-13270000D01*
X-87412009Y-13304220D01*
X-87412020Y-13304222D01*
X-87665255Y-13372075D01*
X-87907471Y-13472404D01*
X-87907482Y-13472409D01*
X-88134516Y-13603488D01*
X-88134524Y-13603494D01*
X-88247365Y-13690080D01*
X-87345023Y-14592421D01*
X-87376258Y-14605359D01*
X-87499097Y-14687437D01*
X-87603563Y-14791903D01*
X-87685641Y-14914742D01*
X-87698578Y-14945974D01*
X-88600917Y-14043633D01*
X-88600918Y-14043633D01*
X-88687505Y-14156475D01*
X-88687511Y-14156483D01*
X-88818590Y-14383517D01*
X-88818595Y-14383528D01*
X-88918924Y-14625744D01*
X-88986777Y-14878979D01*
X-88986779Y-14878990D01*
X-89020999Y-15138905D01*
X-89021000Y-15138919D01*
X-89021000Y-15401080D01*
X-89020999Y-15401094D01*
X-88986779Y-15661009D01*
X-88986777Y-15661020D01*
X-88918924Y-15914255D01*
X-88818595Y-16156471D01*
X-88818590Y-16156482D01*
X-88687506Y-16383524D01*
X-88549760Y-16563038D01*
X-88524566Y-16628208D01*
X-88538604Y-16696652D01*
X-88587418Y-16746642D01*
X-88609817Y-16756456D01*
X-88713449Y-16790128D01*
X-88867788Y-16868768D01*
X-89007928Y-16970586D01*
X-89130414Y-17093072D01*
X-89232232Y-17233212D01*
X-89310873Y-17387555D01*
X-89364402Y-17552299D01*
X-89391500Y-17723389D01*
X-104348294Y-17723389D01*
X-104335500Y-17642611D01*
X-104335500Y-17469389D01*
X-104341371Y-17432318D01*
X-104362597Y-17298302D01*
X-104416128Y-17133552D01*
X-104494768Y-16979211D01*
X-104588707Y-16849917D01*
X-104596586Y-16839072D01*
X-104596588Y-16839070D01*
X-104596588Y-16839069D01*
X-104719069Y-16716588D01*
X-104859211Y-16614768D01*
X-105013552Y-16536128D01*
X-105178302Y-16482597D01*
X-105178301Y-16482597D01*
X-105328781Y-16458764D01*
X-105349389Y-16455500D01*
X-105522611Y-16455500D01*
X-105543225Y-16458765D01*
X-105693697Y-16482597D01*
X-105693699Y-16482597D01*
X-105693701Y-16482598D01*
X-105858445Y-16536127D01*
X-106012788Y-16614768D01*
X-106152928Y-16716586D01*
X-106275414Y-16839072D01*
X-106377232Y-16979212D01*
X-106455873Y-17133555D01*
X-106509402Y-17298299D01*
X-106536500Y-17469389D01*
X-108265500Y-17469389D01*
X-108265500Y-17408486D01*
X-108304006Y-17116015D01*
X-108304008Y-17116004D01*
X-108310153Y-17093072D01*
X-108380361Y-16831048D01*
X-108380364Y-16831038D01*
X-108493254Y-16558499D01*
X-108493258Y-16558489D01*
X-108640761Y-16303006D01*
X-108820352Y-16068959D01*
X-108820358Y-16068952D01*
X-109028952Y-15860358D01*
X-109028959Y-15860352D01*
X-109263006Y-15680761D01*
X-109518489Y-15533258D01*
X-109518499Y-15533254D01*
X-109791038Y-15420364D01*
X-109791048Y-15420361D01*
X-109863006Y-15401080D01*
X-110076007Y-15344007D01*
X-110090085Y-15342153D01*
X-110368486Y-15305500D01*
X-110368494Y-15305500D01*
X-110663506Y-15305500D01*
X-110663513Y-15305500D01*
X-110907113Y-15337571D01*
X-110955993Y-15344007D01*
X-111240952Y-15420361D01*
X-111240954Y-15420362D01*
X-111240961Y-15420364D01*
X-111513500Y-15533254D01*
X-111513510Y-15533258D01*
X-111768993Y-15680761D01*
X-112003040Y-15860352D01*
X-112003047Y-15860358D01*
X-112211641Y-16068952D01*
X-112211647Y-16068959D01*
X-112391238Y-16303006D01*
X-112537884Y-16557006D01*
X-112538743Y-16558493D01*
X-112616677Y-16746642D01*
X-112630053Y-16778936D01*
X-112651639Y-16831048D01*
X-112727993Y-17116007D01*
X-112761433Y-17370004D01*
X-112765883Y-17403811D01*
X-112766500Y-17408494D01*
X-114505144Y-17408494D01*
X-114522597Y-17298302D01*
X-114522597Y-17298301D01*
X-114561582Y-17178318D01*
X-114563577Y-17108476D01*
X-114527496Y-17048644D01*
X-114464795Y-17017816D01*
X-114443651Y-17016000D01*
X-114194920Y-17016000D01*
X-114194905Y-17015999D01*
X-113934990Y-16981779D01*
X-113934979Y-16981777D01*
X-113681744Y-16913924D01*
X-113439528Y-16813595D01*
X-113439517Y-16813590D01*
X-113212483Y-16682511D01*
X-113212475Y-16682505D01*
X-113099633Y-16595918D01*
X-113099633Y-16595917D01*
X-114001974Y-15693578D01*
X-113970742Y-15680641D01*
X-113847903Y-15598563D01*
X-113743437Y-15494097D01*
X-113661359Y-15371258D01*
X-113648421Y-15340024D01*
X-112746080Y-16242365D01*
X-112659494Y-16129524D01*
X-112659488Y-16129516D01*
X-112528409Y-15902482D01*
X-112528404Y-15902471D01*
X-112428075Y-15660255D01*
X-112360222Y-15407020D01*
X-112360220Y-15407009D01*
X-112326000Y-15147094D01*
X-112326000Y-14884905D01*
X-112360220Y-14624990D01*
X-112360222Y-14624979D01*
X-112428075Y-14371744D01*
X-112528404Y-14129528D01*
X-112528409Y-14129517D01*
X-112659496Y-13902471D01*
X-112746079Y-13789633D01*
X-112746080Y-13789633D01*
X-113648421Y-14691974D01*
X-113661359Y-14660742D01*
X-113743437Y-14537903D01*
X-113847903Y-14433437D01*
X-113970742Y-14351359D01*
X-114001974Y-14338421D01*
X-113099633Y-13436080D01*
X-113099633Y-13436079D01*
X-113212471Y-13349496D01*
X-113439517Y-13218409D01*
X-113439528Y-13218404D01*
X-113681744Y-13118075D01*
X-113934979Y-13050222D01*
X-113934990Y-13050220D01*
X-114194905Y-13016000D01*
X-114457094Y-13016000D01*
X-114717009Y-13050220D01*
X-114717020Y-13050222D01*
X-114970255Y-13118075D01*
X-115212471Y-13218404D01*
X-115212482Y-13218409D01*
X-115439516Y-13349488D01*
X-115439524Y-13349494D01*
X-115552365Y-13436080D01*
X-114650023Y-14338421D01*
X-114681258Y-14351359D01*
X-114804097Y-14433437D01*
X-114908563Y-14537903D01*
X-114990641Y-14660742D01*
X-115003578Y-14691974D01*
X-115905917Y-13789633D01*
X-115905918Y-13789633D01*
X-115992505Y-13902475D01*
X-115992511Y-13902483D01*
X-116123590Y-14129517D01*
X-116123595Y-14129528D01*
X-116223924Y-14371744D01*
X-116291777Y-14624979D01*
X-116291779Y-14624990D01*
X-116325999Y-14884905D01*
X-116326000Y-14884919D01*
X-116326000Y-15147080D01*
X-116325999Y-15147094D01*
X-116291779Y-15407009D01*
X-116291777Y-15407020D01*
X-116223924Y-15660255D01*
X-116123595Y-15902471D01*
X-116123590Y-15902482D01*
X-115992506Y-16129524D01*
X-115854760Y-16309038D01*
X-115829566Y-16374208D01*
X-115843604Y-16442652D01*
X-115892418Y-16492642D01*
X-115914817Y-16502456D01*
X-116018449Y-16536128D01*
X-116155937Y-16606182D01*
X-116172788Y-16614768D01*
X-116312928Y-16716586D01*
X-116435414Y-16839072D01*
X-116537232Y-16979212D01*
X-116615873Y-17133555D01*
X-116669402Y-17298299D01*
X-116696500Y-17469389D01*
X-125509500Y-17469389D01*
X-125509500Y-179353D01*
X-111959500Y-179353D01*
X-111959500Y-388647D01*
X-111918669Y-593920D01*
X-111838575Y-787282D01*
X-111722298Y-961304D01*
X-111574304Y-1109298D01*
X-111400282Y-1225575D01*
X-111206920Y-1305669D01*
X-111001649Y-1346499D01*
X-111001648Y-1346500D01*
X-111001647Y-1346500D01*
X-110792352Y-1346500D01*
X-110777134Y-1343472D01*
X-110707780Y-1329677D01*
X-110638192Y-1335903D01*
X-110595912Y-1363611D01*
X-108562817Y-3396707D01*
X-108529334Y-3458028D01*
X-108526500Y-3484386D01*
X-108526500Y-10672323D01*
X-108546185Y-10739362D01*
X-108598989Y-10785117D01*
X-108603047Y-10786884D01*
X-108774045Y-10857714D01*
X-108774056Y-10857719D01*
X-108874534Y-10915731D01*
X-108978450Y-10975727D01*
X-108978453Y-10975729D01*
X-108978454Y-10975730D01*
X-109165697Y-11119406D01*
X-109165704Y-11119412D01*
X-109332587Y-11286295D01*
X-109332593Y-11286302D01*
X-109399435Y-11373412D01*
X-109476273Y-11473550D01*
X-109546542Y-11595259D01*
X-109594280Y-11677943D01*
X-109594282Y-11677948D01*
X-109594284Y-11677951D01*
X-109684606Y-11896007D01*
X-109745693Y-12123986D01*
X-109776500Y-12357989D01*
X-109776500Y-12594011D01*
X-109745693Y-12828014D01*
X-109684606Y-13055993D01*
X-109594284Y-13274049D01*
X-109476273Y-13478450D01*
X-109332592Y-13665699D01*
X-109165699Y-13832592D01*
X-108978450Y-13976273D01*
X-108774049Y-14094284D01*
X-108555993Y-14184606D01*
X-108328014Y-14245693D01*
X-108094011Y-14276500D01*
X-108094004Y-14276500D01*
X-107857996Y-14276500D01*
X-107857989Y-14276500D01*
X-107623986Y-14245693D01*
X-107396007Y-14184606D01*
X-107177951Y-14094284D01*
X-107177948Y-14094282D01*
X-107177943Y-14094280D01*
X-107090221Y-14043633D01*
X-106973550Y-13976273D01*
X-106786301Y-13832592D01*
X-106786295Y-13832587D01*
X-106619408Y-13665700D01*
X-106616990Y-13662548D01*
X-106616989Y-13662547D01*
X-106475730Y-13478454D01*
X-106475729Y-13478453D01*
X-106475727Y-13478450D01*
X-106401274Y-13349494D01*
X-106357719Y-13274056D01*
X-106357714Y-13274045D01*
X-106267394Y-13055993D01*
X-106206306Y-12828010D01*
X-106175501Y-12594020D01*
X-106175500Y-12594004D01*
X-106175500Y-12357995D01*
X-106175501Y-12357979D01*
X-106206306Y-12123989D01*
X-106267394Y-11896006D01*
X-106357714Y-11677954D01*
X-106357719Y-11677943D01*
X-106475730Y-11473545D01*
X-106619406Y-11286302D01*
X-106619412Y-11286295D01*
X-106786295Y-11119412D01*
X-106786302Y-11119406D01*
X-106973545Y-10975730D01*
X-107177943Y-10857719D01*
X-107177954Y-10857714D01*
X-107348953Y-10786884D01*
X-107403356Y-10743043D01*
X-107425421Y-10676749D01*
X-107425500Y-10672323D01*
X-107425500Y-3132527D01*
X-107425500Y-3132525D01*
X-107463016Y-2992515D01*
X-107463015Y-2992515D01*
X-107463016Y-2992514D01*
X-107535489Y-2866986D01*
X-107535491Y-2866983D01*
X-109817385Y-585088D01*
X-109850870Y-523765D01*
X-109851321Y-473216D01*
X-109834500Y-388651D01*
X-109834500Y-179348D01*
X-109875329Y25912D01*
X-109875331Y25920D01*
X-109955423Y219280D01*
X-110071703Y393306D01*
X-110219693Y541296D01*
X-110326462Y612636D01*
X-110326463Y612638D01*
X-110393716Y657574D01*
X-110393718Y657575D01*
X-110519430Y709647D01*
X-102180500Y709647D01*
X-102180500Y500353D01*
X-102139669Y295080D01*
X-102108272Y219282D01*
X-102059576Y101719D01*
X-102059575Y101718D01*
X-101943298Y-72304D01*
X-101795304Y-220298D01*
X-101621282Y-336575D01*
X-101427920Y-416669D01*
X-101222649Y-457499D01*
X-101222648Y-457500D01*
X-101030500Y-457500D01*
X-100963461Y-477185D01*
X-100917706Y-529989D01*
X-100906500Y-581500D01*
X-100906500Y-5291525D01*
X-100906500Y-5436475D01*
X-100868984Y-5576485D01*
X-100796509Y-5702015D01*
X-100694015Y-5804509D01*
X-100568488Y-5876982D01*
X-100568487Y-5876982D01*
X-100568485Y-5876984D01*
X-100428475Y-5914500D01*
X-86538387Y-5914500D01*
X-86471348Y-5934185D01*
X-86450705Y-5950819D01*
X-81469681Y-10931842D01*
X-81436198Y-10993163D01*
X-81441182Y-11062855D01*
X-81483054Y-11118788D01*
X-81495363Y-11126908D01*
X-81547664Y-11157104D01*
X-81673450Y-11229727D01*
X-81673455Y-11229730D01*
X-81673457Y-11229732D01*
X-81860697Y-11373406D01*
X-81860704Y-11373412D01*
X-82027587Y-11540295D01*
X-82027592Y-11540301D01*
X-82171273Y-11727550D01*
X-82220957Y-11813606D01*
X-82289280Y-11931943D01*
X-82289282Y-11931948D01*
X-82289284Y-11931951D01*
X-82379606Y-12150007D01*
X-82440693Y-12377986D01*
X-82471500Y-12611989D01*
X-82471500Y-12848011D01*
X-82440693Y-13082014D01*
X-82379606Y-13309993D01*
X-82289284Y-13528049D01*
X-82171273Y-13732450D01*
X-82027592Y-13919699D01*
X-81860699Y-14086592D01*
X-81673450Y-14230273D01*
X-81469049Y-14348284D01*
X-81250993Y-14438606D01*
X-81023014Y-14499693D01*
X-80789011Y-14530500D01*
X-80789004Y-14530500D01*
X-80552996Y-14530500D01*
X-80552989Y-14530500D01*
X-80318986Y-14499693D01*
X-80091007Y-14438606D01*
X-79872951Y-14348284D01*
X-79872948Y-14348282D01*
X-79872943Y-14348280D01*
X-79780352Y-14294822D01*
X-79668550Y-14230273D01*
X-79537242Y-14129517D01*
X-79481302Y-14086593D01*
X-79481295Y-14086587D01*
X-79314412Y-13919704D01*
X-79314406Y-13919697D01*
X-79170730Y-13732454D01*
X-79170729Y-13732453D01*
X-79170727Y-13732450D01*
X-79096274Y-13603494D01*
X-79052719Y-13528056D01*
X-79052714Y-13528045D01*
X-78962394Y-13309993D01*
X-78901306Y-13082010D01*
X-78870501Y-12848020D01*
X-78870500Y-12848004D01*
X-78870500Y-12611995D01*
X-78870501Y-12611979D01*
X-78901306Y-12377989D01*
X-78962394Y-12150006D01*
X-79052714Y-11931954D01*
X-79052719Y-11931943D01*
X-79170730Y-11727545D01*
X-79314406Y-11540302D01*
X-79314412Y-11540295D01*
X-79481295Y-11373412D01*
X-79481302Y-11373406D01*
X-79668545Y-11229730D01*
X-79872943Y-11111719D01*
X-79872954Y-11111714D01*
X-80043953Y-11040884D01*
X-80098356Y-10997043D01*
X-80120421Y-10930749D01*
X-80120500Y-10926323D01*
X-80120500Y-10879527D01*
X-80120500Y-10879525D01*
X-80152663Y-10759491D01*
X-80158016Y-10739514D01*
X-80230489Y-10613986D01*
X-80230491Y-10613983D01*
X-85920983Y-4923491D01*
X-85920986Y-4923489D01*
X-86046514Y-4851016D01*
X-86046513Y-4851016D01*
X-86102519Y-4836009D01*
X-86186525Y-4813500D01*
X-86186528Y-4813500D01*
X-99681500Y-4813500D01*
X-99748539Y-4793815D01*
X-99794294Y-4741011D01*
X-99805500Y-4689500D01*
X-99805500Y-84527D01*
X-99805500Y-84525D01*
X-99843016Y55485D01*
X-99915490Y181015D01*
X-100038385Y303910D01*
X-100071870Y365233D01*
X-100072322Y415781D01*
X-100055500Y500354D01*
X-100055500Y709651D01*
X-100096329Y914912D01*
X-100096331Y914920D01*
X-100176423Y1108280D01*
X-100292703Y1282306D01*
X-100440693Y1430296D01*
X-100614719Y1546576D01*
X-100711399Y1586622D01*
X-100808080Y1626669D01*
X-101013348Y1667499D01*
X-101013352Y1667500D01*
X-101013353Y1667500D01*
X-101222647Y1667500D01*
X-101222648Y1667500D01*
X-101222649Y1667499D01*
X-101427920Y1626669D01*
X-101621282Y1546575D01*
X-101795304Y1430298D01*
X-101943298Y1282304D01*
X-102059575Y1108282D01*
X-102139669Y914920D01*
X-102180500Y709647D01*
X-110519430Y709647D01*
X-110587080Y737669D01*
X-110792348Y778499D01*
X-110792352Y778500D01*
X-110792353Y778500D01*
X-111001647Y778500D01*
X-111001648Y778500D01*
X-111001649Y778499D01*
X-111206920Y737669D01*
X-111400282Y657575D01*
X-111574304Y541298D01*
X-111722298Y393304D01*
X-111838575Y219282D01*
X-111918669Y25920D01*
X-111959500Y-179353D01*
X-125509500Y-179353D01*
X-125509500Y30425000D01*
X-123468500Y30425000D01*
X-123468500Y29205000D01*
X-123462468Y29144592D01*
X-123458167Y29123270D01*
X-123440308Y29065244D01*
X-123395308Y28958244D01*
X-123393169Y28953280D01*
X-123329720Y28860657D01*
X-123300343Y28831280D01*
X-123300286Y28831224D01*
X-123300279Y28831217D01*
X-123296489Y28827493D01*
X-123296483Y28827489D01*
X-123295315Y28826719D01*
X-123202756Y28765692D01*
X-123095756Y28720692D01*
X-123095753Y28720691D01*
X-123037738Y28702835D01*
X-123037728Y28702832D01*
X-123016415Y28698533D01*
X-123016390Y28698529D01*
X-122956005Y28692500D01*
X-122956000Y28692500D01*
X-120829005Y28692500D01*
X-120829000Y28692500D01*
X-120799042Y28695466D01*
X-120769079Y28698433D01*
X-120747934Y28702662D01*
X-120747931Y28702663D01*
X-120690355Y28720228D01*
X-120690351Y28720229D01*
X-120690346Y28720231D01*
X-120648802Y28737541D01*
X-120582330Y28765237D01*
X-120576915Y28767555D01*
X-120484185Y28830850D01*
X-120484176Y28830858D01*
X-120454671Y28860266D01*
X-120454643Y28860294D01*
X-120454639Y28860298D01*
X-120453217Y28861742D01*
X-120450493Y28864511D01*
X-120450492Y28864513D01*
X-120388693Y28958240D01*
X-120388692Y28958243D01*
X-120381813Y28974598D01*
X-120355195Y29014200D01*
X-120231705Y29137692D01*
X-120231701Y29137696D01*
X-120115424Y29311718D01*
X-120035331Y29505079D01*
X-120035329Y29505087D01*
X-119994500Y29710348D01*
X-119994500Y29919651D01*
X-120035329Y30124912D01*
X-120035331Y30124920D01*
X-120115423Y30318280D01*
X-120231702Y30492304D01*
X-120246136Y30506738D01*
X-120355195Y30615797D01*
X-120381815Y30655405D01*
X-120388711Y30671803D01*
X-120391032Y30677176D01*
X-120391035Y30677181D01*
X-120454637Y30769700D01*
X-120454642Y30769705D01*
X-120484176Y30799141D01*
X-120488407Y30803277D01*
X-120488410Y30803280D01*
X-120582346Y30864769D01*
X-120690346Y30909769D01*
X-120747930Y30927336D01*
X-120747932Y30927336D01*
X-120747934Y30927337D01*
X-120758507Y30929451D01*
X-120769084Y30931567D01*
X-120829000Y30937500D01*
X-122956000Y30937500D01*
X-122956005Y30937500D01*
X-123016390Y30931470D01*
X-123016393Y30931469D01*
X-123016408Y30931468D01*
X-123037730Y30927167D01*
X-123095756Y30909308D01*
X-123202756Y30864308D01*
X-123207720Y30862169D01*
X-123300343Y30798720D01*
X-123329720Y30769343D01*
X-123333508Y30765487D01*
X-123395308Y30671756D01*
X-123440308Y30564756D01*
X-123458167Y30506730D01*
X-123462468Y30485408D01*
X-123468500Y30425000D01*
X-125509500Y30425000D01*
X-125509500Y32965000D01*
X-123468500Y32965000D01*
X-123468500Y31745000D01*
X-123462468Y31684592D01*
X-123458167Y31663270D01*
X-123440308Y31605244D01*
X-123395308Y31498244D01*
X-123393169Y31493280D01*
X-123329720Y31400657D01*
X-123300343Y31371280D01*
X-123300286Y31371224D01*
X-123300279Y31371217D01*
X-123296489Y31367493D01*
X-123296483Y31367489D01*
X-123295315Y31366719D01*
X-123202756Y31305692D01*
X-123095756Y31260692D01*
X-123095753Y31260691D01*
X-123037738Y31242835D01*
X-123037728Y31242832D01*
X-123016415Y31238533D01*
X-123016390Y31238529D01*
X-122956005Y31232500D01*
X-122956000Y31232500D01*
X-120829005Y31232500D01*
X-120829000Y31232500D01*
X-120799042Y31235466D01*
X-120769079Y31238433D01*
X-120747934Y31242662D01*
X-120747931Y31242663D01*
X-120690355Y31260228D01*
X-120690351Y31260229D01*
X-120690346Y31260231D01*
X-120648802Y31277541D01*
X-120582330Y31305237D01*
X-120576915Y31307555D01*
X-120484185Y31370850D01*
X-120484176Y31370858D01*
X-120454671Y31400266D01*
X-120454643Y31400294D01*
X-120454639Y31400298D01*
X-120453217Y31401742D01*
X-120450493Y31404511D01*
X-120450492Y31404513D01*
X-120388693Y31498240D01*
X-120388692Y31498243D01*
X-120381813Y31514598D01*
X-120355195Y31554200D01*
X-120231705Y31677692D01*
X-120231701Y31677696D01*
X-120115424Y31851718D01*
X-120035331Y32045079D01*
X-120035329Y32045087D01*
X-119994500Y32250348D01*
X-119994500Y32459651D01*
X-120035329Y32664912D01*
X-120035331Y32664920D01*
X-120115423Y32858280D01*
X-120231702Y33032304D01*
X-120246136Y33046738D01*
X-120355195Y33155797D01*
X-120381815Y33195405D01*
X-120388711Y33211803D01*
X-120391032Y33217176D01*
X-120391035Y33217181D01*
X-120454637Y33309700D01*
X-120454642Y33309705D01*
X-120484176Y33339141D01*
X-120488407Y33343277D01*
X-120488410Y33343280D01*
X-120582346Y33404769D01*
X-120690346Y33449769D01*
X-120747930Y33467336D01*
X-120747932Y33467336D01*
X-120747934Y33467337D01*
X-120758507Y33469451D01*
X-120769084Y33471567D01*
X-120829000Y33477500D01*
X-122956000Y33477500D01*
X-122956005Y33477500D01*
X-123016390Y33471470D01*
X-123016393Y33471469D01*
X-123016408Y33471468D01*
X-123037730Y33467167D01*
X-123095756Y33449308D01*
X-123202756Y33404308D01*
X-123207720Y33402169D01*
X-123300343Y33338720D01*
X-123329720Y33309343D01*
X-123333508Y33305487D01*
X-123395308Y33211756D01*
X-123440308Y33104756D01*
X-123458167Y33046730D01*
X-123462468Y33025408D01*
X-123468500Y32965000D01*
X-125509500Y32965000D01*
X-125509500Y35505000D01*
X-123468500Y35505000D01*
X-123468500Y34285000D01*
X-123462468Y34224592D01*
X-123458167Y34203270D01*
X-123440308Y34145244D01*
X-123395308Y34038244D01*
X-123393169Y34033280D01*
X-123329720Y33940657D01*
X-123300343Y33911280D01*
X-123300286Y33911224D01*
X-123300279Y33911217D01*
X-123296489Y33907493D01*
X-123296483Y33907489D01*
X-123295315Y33906719D01*
X-123202756Y33845692D01*
X-123095756Y33800692D01*
X-123095753Y33800691D01*
X-123037738Y33782835D01*
X-123037728Y33782832D01*
X-123016415Y33778533D01*
X-123016390Y33778529D01*
X-122956005Y33772500D01*
X-122956000Y33772500D01*
X-120829005Y33772500D01*
X-120829000Y33772500D01*
X-120799042Y33775466D01*
X-120769079Y33778433D01*
X-120747934Y33782662D01*
X-120747931Y33782663D01*
X-120690355Y33800228D01*
X-120690351Y33800229D01*
X-120690346Y33800231D01*
X-120648802Y33817541D01*
X-120582330Y33845237D01*
X-120576915Y33847555D01*
X-120484185Y33910850D01*
X-120484176Y33910858D01*
X-120454671Y33940266D01*
X-120454643Y33940294D01*
X-120454639Y33940298D01*
X-120453217Y33941742D01*
X-120450493Y33944511D01*
X-120450492Y33944513D01*
X-120388693Y34038240D01*
X-120388692Y34038243D01*
X-120381813Y34054598D01*
X-120355195Y34094200D01*
X-120231705Y34217692D01*
X-120231701Y34217696D01*
X-120115424Y34391718D01*
X-120035331Y34585079D01*
X-120035329Y34585087D01*
X-119994500Y34790348D01*
X-119994500Y34999651D01*
X-120035329Y35204912D01*
X-120035331Y35204920D01*
X-120115423Y35398280D01*
X-120231702Y35572304D01*
X-120246136Y35586738D01*
X-120355195Y35695797D01*
X-120381815Y35735405D01*
X-120388711Y35751803D01*
X-120391032Y35757176D01*
X-120391035Y35757181D01*
X-120454637Y35849700D01*
X-120454642Y35849705D01*
X-120484176Y35879141D01*
X-120488407Y35883277D01*
X-120488410Y35883280D01*
X-120582346Y35944769D01*
X-120690346Y35989769D01*
X-120747930Y36007336D01*
X-120747932Y36007336D01*
X-120747934Y36007337D01*
X-120758507Y36009451D01*
X-120769084Y36011567D01*
X-120829000Y36017500D01*
X-122956000Y36017500D01*
X-122956005Y36017500D01*
X-123016390Y36011470D01*
X-123016393Y36011469D01*
X-123016408Y36011468D01*
X-123037730Y36007167D01*
X-123095756Y35989308D01*
X-123202756Y35944308D01*
X-123207720Y35942169D01*
X-123300343Y35878720D01*
X-123329720Y35849343D01*
X-123333508Y35845487D01*
X-123395308Y35751756D01*
X-123440308Y35644756D01*
X-123458167Y35586730D01*
X-123462468Y35565408D01*
X-123468500Y35505000D01*
X-125509500Y35505000D01*
X-125509500Y45665000D01*
X-123468500Y45665000D01*
X-123468500Y44445000D01*
X-123462468Y44384592D01*
X-123458167Y44363270D01*
X-123440308Y44305244D01*
X-123395308Y44198244D01*
X-123393169Y44193280D01*
X-123329720Y44100657D01*
X-123300343Y44071280D01*
X-123300286Y44071224D01*
X-123300279Y44071217D01*
X-123296489Y44067493D01*
X-123296483Y44067489D01*
X-123295315Y44066719D01*
X-123202756Y44005692D01*
X-123095756Y43960692D01*
X-123095753Y43960691D01*
X-123037738Y43942835D01*
X-123037728Y43942832D01*
X-123016415Y43938533D01*
X-123016390Y43938529D01*
X-122956005Y43932500D01*
X-122956000Y43932500D01*
X-122911142Y43932500D01*
X-122883260Y43924312D01*
X-122854709Y43918914D01*
X-122850139Y43914587D01*
X-122844103Y43912815D01*
X-122825076Y43890857D01*
X-122803973Y43870876D01*
X-122802467Y43864765D01*
X-122798348Y43860011D01*
X-122794212Y43831247D01*
X-122787263Y43803034D01*
X-122789299Y43797081D01*
X-122788404Y43790853D01*
X-122800476Y43764417D01*
X-122809883Y43736928D01*
X-122815741Y43730993D01*
X-122817429Y43727297D01*
X-122834149Y43711299D01*
X-122836173Y43709695D01*
X-122863739Y43689668D01*
X-122892894Y43664766D01*
X-122894683Y43663350D01*
X-122925032Y43651076D01*
X-122954903Y43637691D01*
X-122959356Y43637165D01*
X-123016391Y43631470D01*
X-123016395Y43631469D01*
X-123016408Y43631468D01*
X-123037730Y43627167D01*
X-123095756Y43609308D01*
X-123202756Y43564308D01*
X-123207720Y43562169D01*
X-123300343Y43498720D01*
X-123329720Y43469343D01*
X-123333508Y43465487D01*
X-123395308Y43371756D01*
X-123440308Y43264756D01*
X-123458167Y43206730D01*
X-123462468Y43185408D01*
X-123462469Y43185393D01*
X-123462470Y43185390D01*
X-123468500Y43125004D01*
X-123468500Y41904995D01*
X-123462470Y41844609D01*
X-123462468Y41844592D01*
X-123458167Y41823270D01*
X-123440308Y41765244D01*
X-123395308Y41658244D01*
X-123393169Y41653280D01*
X-123329720Y41560657D01*
X-123300343Y41531280D01*
X-123300286Y41531224D01*
X-123300279Y41531217D01*
X-123296489Y41527493D01*
X-123296483Y41527489D01*
X-123212901Y41472381D01*
X-123202756Y41465692D01*
X-123095756Y41420692D01*
X-123095753Y41420691D01*
X-123037738Y41402835D01*
X-123037728Y41402832D01*
X-123016415Y41398533D01*
X-123016394Y41398530D01*
X-122959354Y41392834D01*
X-122940803Y41385314D01*
X-122920971Y41382607D01*
X-122897508Y41367763D01*
X-122894603Y41366586D01*
X-122891145Y41363738D01*
X-122862520Y41339290D01*
X-122824326Y41280784D01*
X-122823827Y41210916D01*
X-122861181Y41151869D01*
X-122862518Y41150711D01*
X-122863739Y41149668D01*
X-122891144Y41126261D01*
X-122954903Y41097691D01*
X-122959356Y41097165D01*
X-123016391Y41091470D01*
X-123016395Y41091469D01*
X-123016408Y41091468D01*
X-123037730Y41087167D01*
X-123095756Y41069308D01*
X-123202756Y41024308D01*
X-123207720Y41022169D01*
X-123300343Y40958720D01*
X-123329720Y40929343D01*
X-123333508Y40925487D01*
X-123395308Y40831756D01*
X-123440308Y40724756D01*
X-123458167Y40666730D01*
X-123462468Y40645408D01*
X-123462469Y40645393D01*
X-123462470Y40645390D01*
X-123467547Y40594539D01*
X-123468500Y40585000D01*
X-123468500Y39365000D01*
X-123462468Y39304592D01*
X-123458167Y39283270D01*
X-123440308Y39225244D01*
X-123395308Y39118244D01*
X-123393169Y39113280D01*
X-123329720Y39020657D01*
X-123300343Y38991280D01*
X-123300286Y38991224D01*
X-123300279Y38991217D01*
X-123296489Y38987493D01*
X-123296483Y38987489D01*
X-123295315Y38986719D01*
X-123202756Y38925692D01*
X-123095756Y38880692D01*
X-123095753Y38880691D01*
X-123037738Y38862835D01*
X-123037728Y38862832D01*
X-123016415Y38858533D01*
X-123016394Y38858530D01*
X-122959354Y38852834D01*
X-122942853Y38846153D01*
X-122925188Y38844404D01*
X-122898458Y38828178D01*
X-122894684Y38826650D01*
X-122892882Y38825223D01*
X-122863739Y38800332D01*
X-122836170Y38780302D01*
X-122834150Y38778702D01*
X-122815412Y38752192D01*
X-122795591Y38726488D01*
X-122795362Y38723826D01*
X-122793821Y38721646D01*
X-122792389Y38689211D01*
X-122789612Y38656875D01*
X-122790857Y38654513D01*
X-122790740Y38651845D01*
X-122807073Y38623782D01*
X-122822218Y38595080D01*
X-122824543Y38593766D01*
X-122825887Y38591458D01*
X-122854792Y38576683D01*
X-122883056Y38560723D01*
X-122886879Y38560284D01*
X-122888101Y38559660D01*
X-122890365Y38559884D01*
X-122911142Y38557500D01*
X-122956005Y38557500D01*
X-123016390Y38551470D01*
X-123016393Y38551469D01*
X-123016408Y38551468D01*
X-123037730Y38547167D01*
X-123095756Y38529308D01*
X-123202756Y38484308D01*
X-123207720Y38482169D01*
X-123300343Y38418720D01*
X-123329720Y38389343D01*
X-123333508Y38385487D01*
X-123395308Y38291756D01*
X-123440308Y38184756D01*
X-123458167Y38126730D01*
X-123462468Y38105408D01*
X-123468500Y38045000D01*
X-123468500Y36825000D01*
X-123462468Y36764592D01*
X-123458167Y36743270D01*
X-123440308Y36685244D01*
X-123395308Y36578244D01*
X-123393169Y36573280D01*
X-123329720Y36480657D01*
X-123300343Y36451280D01*
X-123300286Y36451224D01*
X-123300279Y36451217D01*
X-123296489Y36447493D01*
X-123296483Y36447489D01*
X-123295315Y36446719D01*
X-123202756Y36385692D01*
X-123095756Y36340692D01*
X-123095753Y36340691D01*
X-123037738Y36322835D01*
X-123037728Y36322832D01*
X-123016415Y36318533D01*
X-123016390Y36318529D01*
X-122956005Y36312500D01*
X-122956000Y36312500D01*
X-120829005Y36312500D01*
X-120829000Y36312500D01*
X-120799042Y36315466D01*
X-120769079Y36318433D01*
X-120747934Y36322662D01*
X-120747931Y36322663D01*
X-120690355Y36340228D01*
X-120690351Y36340229D01*
X-120690346Y36340231D01*
X-120648802Y36357541D01*
X-120582330Y36385237D01*
X-120576915Y36387555D01*
X-120484185Y36450850D01*
X-120484176Y36450858D01*
X-120454671Y36480266D01*
X-120454643Y36480294D01*
X-120454639Y36480298D01*
X-120453217Y36481742D01*
X-120450493Y36484511D01*
X-120450492Y36484513D01*
X-120388693Y36578240D01*
X-120388692Y36578243D01*
X-120381813Y36594598D01*
X-120355195Y36634200D01*
X-120231705Y36757692D01*
X-120231701Y36757696D01*
X-120115424Y36931718D01*
X-120035331Y37125079D01*
X-120035329Y37125087D01*
X-119994500Y37330348D01*
X-119994500Y37539651D01*
X-120035329Y37744912D01*
X-120035331Y37744920D01*
X-120115423Y37938280D01*
X-120231702Y38112304D01*
X-120246136Y38126738D01*
X-120355195Y38235797D01*
X-120381815Y38275405D01*
X-120388711Y38291803D01*
X-120391032Y38297176D01*
X-120391035Y38297181D01*
X-120454637Y38389700D01*
X-120454642Y38389705D01*
X-120484176Y38419141D01*
X-120488407Y38423277D01*
X-120488410Y38423280D01*
X-120582346Y38484769D01*
X-120690346Y38529769D01*
X-120747930Y38547336D01*
X-120747932Y38547336D01*
X-120747934Y38547337D01*
X-120758507Y38549451D01*
X-120769084Y38551567D01*
X-120829000Y38557500D01*
X-120829005Y38557500D01*
X-120872858Y38557500D01*
X-120900730Y38565684D01*
X-120929284Y38571082D01*
X-120933857Y38575411D01*
X-120939897Y38577185D01*
X-120958919Y38599138D01*
X-120980023Y38619117D01*
X-120981529Y38625231D01*
X-120985652Y38629989D01*
X-120989786Y38658743D01*
X-120996738Y38686957D01*
X-120994699Y38692914D01*
X-120995596Y38699147D01*
X-120983526Y38725575D01*
X-120974122Y38753066D01*
X-120968259Y38759005D01*
X-120966571Y38762703D01*
X-120949858Y38778696D01*
X-120947838Y38780296D01*
X-120920261Y38800332D01*
X-120890992Y38825329D01*
X-120889196Y38826753D01*
X-120858844Y38839030D01*
X-120828966Y38852418D01*
X-120824427Y38852951D01*
X-120824424Y38852953D01*
X-120824420Y38852952D01*
X-120824416Y38852953D01*
X-120769098Y38858431D01*
X-120769080Y38858433D01*
X-120747934Y38862662D01*
X-120747931Y38862663D01*
X-120690355Y38880228D01*
X-120690351Y38880229D01*
X-120690346Y38880231D01*
X-120648802Y38897541D01*
X-120582330Y38925237D01*
X-120576915Y38927555D01*
X-120484185Y38990850D01*
X-120484176Y38990858D01*
X-120454665Y39020272D01*
X-120450493Y39024511D01*
X-120450492Y39024513D01*
X-120388693Y39118240D01*
X-120388692Y39118243D01*
X-120381813Y39134598D01*
X-120355195Y39174200D01*
X-120231705Y39297692D01*
X-120231701Y39297696D01*
X-120115424Y39471718D01*
X-120035331Y39665079D01*
X-120035329Y39665087D01*
X-119994500Y39870348D01*
X-119994500Y40079651D01*
X-120035329Y40284912D01*
X-120035331Y40284920D01*
X-120115423Y40478280D01*
X-120231702Y40652304D01*
X-120246136Y40666738D01*
X-120355195Y40775797D01*
X-120381815Y40815405D01*
X-120388711Y40831803D01*
X-120391032Y40837176D01*
X-120391035Y40837181D01*
X-120454637Y40929700D01*
X-120454642Y40929705D01*
X-120484176Y40959141D01*
X-120488407Y40963277D01*
X-120488410Y40963280D01*
X-120582346Y41024769D01*
X-120690346Y41069769D01*
X-120747930Y41087336D01*
X-120747932Y41087336D01*
X-120747934Y41087337D01*
X-120758507Y41089451D01*
X-120769084Y41091567D01*
X-120824416Y41097046D01*
X-120843019Y41104569D01*
X-120862904Y41107284D01*
X-120886240Y41122048D01*
X-120889187Y41123240D01*
X-120892730Y41126154D01*
X-120921482Y41150712D01*
X-120959674Y41209220D01*
X-120960171Y41279088D01*
X-120922815Y41338133D01*
X-120921480Y41339290D01*
X-120892728Y41363847D01*
X-120828967Y41392418D01*
X-120824416Y41392953D01*
X-120769098Y41398431D01*
X-120769080Y41398433D01*
X-120747934Y41402662D01*
X-120747931Y41402663D01*
X-120690355Y41420228D01*
X-120690351Y41420229D01*
X-120690346Y41420231D01*
X-120648802Y41437541D01*
X-120582330Y41465237D01*
X-120576915Y41467555D01*
X-120484185Y41530850D01*
X-120484176Y41530858D01*
X-120454671Y41560265D01*
X-120450494Y41564510D01*
X-120404071Y41634919D01*
X-120350734Y41680051D01*
X-120281464Y41689184D01*
X-120218252Y41659416D01*
X-120212867Y41654342D01*
X-115928819Y37370294D01*
X-115895334Y37308971D01*
X-115892500Y37282613D01*
X-115892500Y18076475D01*
X-115892500Y18076474D01*
X-115892500Y17931526D01*
X-115854984Y17791515D01*
X-115782510Y17665985D01*
X-115782508Y17665983D01*
X-111483819Y13367294D01*
X-111450334Y13305971D01*
X-111447500Y13279613D01*
X-111447500Y8312304D01*
X-111467185Y8245265D01*
X-111502610Y8209201D01*
X-111574304Y8161298D01*
X-111722298Y8013304D01*
X-111838575Y7839282D01*
X-111918669Y7645920D01*
X-111959500Y7440647D01*
X-111959500Y7231353D01*
X-111918669Y7026080D01*
X-111878622Y6929399D01*
X-111838576Y6832719D01*
X-111722296Y6658693D01*
X-111574306Y6510703D01*
X-111400280Y6394423D01*
X-111206920Y6314331D01*
X-111206912Y6314329D01*
X-111001651Y6273500D01*
X-111001647Y6273500D01*
X-110792348Y6273500D01*
X-110587087Y6314329D01*
X-110587079Y6314331D01*
X-110393719Y6394423D01*
X-110219693Y6510703D01*
X-110071703Y6658693D01*
X-109955423Y6832719D01*
X-109875331Y7026079D01*
X-109875329Y7026087D01*
X-109834500Y7231348D01*
X-109834500Y7440651D01*
X-109875329Y7645912D01*
X-109875331Y7645920D01*
X-109955423Y7839280D01*
X-110071703Y8013306D01*
X-110219692Y8161295D01*
X-110219697Y8161299D01*
X-110291389Y8209201D01*
X-110336195Y8262813D01*
X-110346500Y8312304D01*
X-110346500Y13631472D01*
X-110346500Y13631475D01*
X-110384016Y13771485D01*
X-110384016Y13771486D01*
X-110384017Y13771487D01*
X-110405104Y13808011D01*
X-110405107Y13808016D01*
X-110446135Y13879080D01*
X-110456489Y13897014D01*
X-114755181Y18195706D01*
X-114788666Y18257029D01*
X-114791500Y18283387D01*
X-114791500Y37634472D01*
X-114791500Y37634475D01*
X-114829016Y37774485D01*
X-114829016Y37774486D01*
X-114829017Y37774487D01*
X-114877522Y37858500D01*
X-114877523Y37858502D01*
X-114901487Y37900011D01*
X-114901491Y37900016D01*
X-119956983Y42955508D01*
X-119956985Y42955510D01*
X-120082515Y43027984D01*
X-120085418Y43028761D01*
X-120087589Y43030085D01*
X-120090022Y43031093D01*
X-120089864Y43031472D01*
X-120145076Y43065124D01*
X-120156426Y43079646D01*
X-120231698Y43192299D01*
X-120231700Y43192302D01*
X-120285571Y43246173D01*
X-120355195Y43315797D01*
X-120381815Y43355405D01*
X-120388711Y43371803D01*
X-120391032Y43377176D01*
X-120391035Y43377181D01*
X-120454637Y43469700D01*
X-120454642Y43469705D01*
X-120484176Y43499141D01*
X-120488407Y43503277D01*
X-120488410Y43503280D01*
X-120582346Y43564769D01*
X-120690346Y43609769D01*
X-120747930Y43627336D01*
X-120747932Y43627336D01*
X-120747934Y43627337D01*
X-120758507Y43629451D01*
X-120769084Y43631567D01*
X-120824416Y43637046D01*
X-120840947Y43643731D01*
X-120858694Y43645490D01*
X-120885424Y43661718D01*
X-120889187Y43663240D01*
X-120889197Y43663247D01*
X-120890980Y43664659D01*
X-120920261Y43689668D01*
X-120947835Y43709701D01*
X-120949859Y43711305D01*
X-120968596Y43737818D01*
X-120988409Y43763512D01*
X-120988637Y43766177D01*
X-120990183Y43768364D01*
X-120991611Y43800795D01*
X-120994388Y43833125D01*
X-120993139Y43835491D01*
X-120993257Y43838166D01*
X-120976922Y43866225D01*
X-120961782Y43894920D01*
X-120959452Y43896235D01*
X-120958106Y43898549D01*
X-120929199Y43913320D01*
X-120900944Y43929277D01*
X-120897112Y43929716D01*
X-120895889Y43930342D01*
X-120893621Y43930117D01*
X-120872858Y43932500D01*
X-120829005Y43932500D01*
X-120829000Y43932500D01*
X-120799042Y43935466D01*
X-120769079Y43938433D01*
X-120747934Y43942662D01*
X-120747931Y43942663D01*
X-120690355Y43960228D01*
X-120690351Y43960229D01*
X-120690346Y43960231D01*
X-120648802Y43977541D01*
X-120582330Y44005237D01*
X-120576915Y44007555D01*
X-120484185Y44070850D01*
X-120484176Y44070858D01*
X-120454671Y44100266D01*
X-120454643Y44100294D01*
X-120454639Y44100298D01*
X-120453217Y44101742D01*
X-120450493Y44104511D01*
X-120450492Y44104513D01*
X-120388693Y44198240D01*
X-120388692Y44198243D01*
X-120381813Y44214598D01*
X-120355195Y44254200D01*
X-120231705Y44377692D01*
X-120231701Y44377697D01*
X-120183797Y44449391D01*
X-120130185Y44494196D01*
X-120080695Y44504500D01*
X-119177387Y44504500D01*
X-119110348Y44484815D01*
X-119089706Y44468181D01*
X-111737819Y37116294D01*
X-111704334Y37054971D01*
X-111701500Y37028613D01*
X-111701500Y28109474D01*
X-111701500Y27964526D01*
X-111663984Y27824515D01*
X-111591510Y27698985D01*
X-111591508Y27698983D01*
X-101704819Y17812294D01*
X-101671334Y17750971D01*
X-101668500Y17724613D01*
X-101668500Y9201304D01*
X-101688185Y9134265D01*
X-101723610Y9098201D01*
X-101795304Y9050298D01*
X-101943298Y8902304D01*
X-102059575Y8728282D01*
X-102139669Y8534920D01*
X-102180500Y8329647D01*
X-102180500Y8120353D01*
X-102139669Y7915080D01*
X-102108272Y7839282D01*
X-102059576Y7721719D01*
X-101943296Y7547693D01*
X-101795306Y7399703D01*
X-101621280Y7283423D01*
X-101427920Y7203331D01*
X-101427912Y7203329D01*
X-101222651Y7162500D01*
X-101222647Y7162500D01*
X-101013348Y7162500D01*
X-100808087Y7203329D01*
X-100808079Y7203331D01*
X-100614719Y7283423D01*
X-100440693Y7399703D01*
X-100292703Y7547693D01*
X-100176423Y7721719D01*
X-100096331Y7915079D01*
X-100096329Y7915087D01*
X-100055500Y8120348D01*
X-100055500Y8329651D01*
X-100096329Y8534912D01*
X-100096331Y8534920D01*
X-100176423Y8728280D01*
X-100292703Y8902306D01*
X-100440692Y9050295D01*
X-100440697Y9050299D01*
X-100512389Y9098201D01*
X-100557195Y9151813D01*
X-100567500Y9201304D01*
X-100567500Y18076472D01*
X-100567500Y18076475D01*
X-100605016Y18216485D01*
X-100605017Y18216488D01*
X-100677488Y18342011D01*
X-100677493Y18342017D01*
X-110564181Y28228705D01*
X-110597666Y28290028D01*
X-110600500Y28316386D01*
X-110600500Y29919647D01*
X-106879500Y29919647D01*
X-106879500Y29710353D01*
X-106838669Y29505080D01*
X-106798622Y29408399D01*
X-106758576Y29311719D01*
X-106758575Y29311718D01*
X-106642298Y29137696D01*
X-106518803Y29014201D01*
X-106492184Y28974593D01*
X-106485308Y28958244D01*
X-106482963Y28952816D01*
X-106439240Y28889215D01*
X-106419362Y28860299D01*
X-106419357Y28860294D01*
X-106389858Y28830892D01*
X-106385592Y28826722D01*
X-106385589Y28826719D01*
X-106291654Y28765231D01*
X-106291653Y28765230D01*
X-106183652Y28720230D01*
X-106183644Y28720228D01*
X-106126068Y28702663D01*
X-106126065Y28702662D01*
X-106104919Y28698433D01*
X-106104920Y28698433D01*
X-106078286Y28695796D01*
X-106045000Y28692500D01*
X-106044995Y28692500D01*
X-103917995Y28692500D01*
X-103857609Y28698529D01*
X-103857584Y28698533D01*
X-103836271Y28702832D01*
X-103836261Y28702835D01*
X-103778246Y28720691D01*
X-103778244Y28720692D01*
X-103671189Y28765715D01*
X-103666280Y28767830D01*
X-103573657Y28831279D01*
X-103558934Y28846003D01*
X-103544280Y28860657D01*
X-103544211Y28860727D01*
X-103540493Y28864510D01*
X-103540489Y28864516D01*
X-103478696Y28958238D01*
X-103478693Y28958241D01*
X-103433692Y29065244D01*
X-103433691Y29065246D01*
X-103415835Y29123261D01*
X-103415832Y29123271D01*
X-103411533Y29144584D01*
X-103411529Y29144609D01*
X-103405500Y29204995D01*
X-103405500Y30425004D01*
X-103411529Y30485390D01*
X-103411533Y30485415D01*
X-103415832Y30506728D01*
X-103415835Y30506738D01*
X-103433691Y30564753D01*
X-103433692Y30564755D01*
X-103471816Y30655405D01*
X-103478692Y30671756D01*
X-103478715Y30671810D01*
X-103480830Y30676719D01*
X-103544279Y30769342D01*
X-103544671Y30769734D01*
X-103573657Y30798720D01*
X-103573720Y30798782D01*
X-103577510Y30802506D01*
X-103577516Y30802510D01*
X-103668000Y30862169D01*
X-103671244Y30864308D01*
X-103778244Y30909308D01*
X-103836270Y30927167D01*
X-103857592Y30931468D01*
X-103857603Y30931469D01*
X-103857609Y30931470D01*
X-103917995Y30937500D01*
X-103918000Y30937500D01*
X-106045000Y30937500D01*
X-106104916Y30931567D01*
X-106126070Y30927336D01*
X-106183654Y30909769D01*
X-106291654Y30864769D01*
X-106297087Y30862443D01*
X-106389816Y30799149D01*
X-106419361Y30769702D01*
X-106423508Y30765487D01*
X-106485308Y30671756D01*
X-106492183Y30655406D01*
X-106518802Y30615798D01*
X-106642298Y30492304D01*
X-106758575Y30318282D01*
X-106838669Y30124920D01*
X-106879500Y29919647D01*
X-110600500Y29919647D01*
X-110600500Y32459647D01*
X-106879500Y32459647D01*
X-106879500Y32250353D01*
X-106838669Y32045080D01*
X-106798622Y31948399D01*
X-106758576Y31851719D01*
X-106758575Y31851718D01*
X-106642298Y31677696D01*
X-106518803Y31554201D01*
X-106492184Y31514593D01*
X-106485308Y31498244D01*
X-106482963Y31492816D01*
X-106439240Y31429215D01*
X-106419362Y31400299D01*
X-106419357Y31400294D01*
X-106389858Y31370892D01*
X-106385592Y31366722D01*
X-106385589Y31366719D01*
X-106291654Y31305231D01*
X-106291653Y31305230D01*
X-106183652Y31260230D01*
X-106183644Y31260228D01*
X-106126068Y31242663D01*
X-106126065Y31242662D01*
X-106104919Y31238433D01*
X-106104920Y31238433D01*
X-106078286Y31235796D01*
X-106045000Y31232500D01*
X-106044995Y31232500D01*
X-103917995Y31232500D01*
X-103857609Y31238529D01*
X-103857584Y31238533D01*
X-103836271Y31242832D01*
X-103836261Y31242835D01*
X-103778246Y31260691D01*
X-103778244Y31260692D01*
X-103671189Y31305715D01*
X-103666280Y31307830D01*
X-103573657Y31371279D01*
X-103558934Y31386003D01*
X-103544280Y31400657D01*
X-103544211Y31400727D01*
X-103540493Y31404510D01*
X-103540489Y31404516D01*
X-103478696Y31498238D01*
X-103478693Y31498241D01*
X-103433692Y31605244D01*
X-103433691Y31605246D01*
X-103415835Y31663261D01*
X-103415832Y31663271D01*
X-103411533Y31684584D01*
X-103411529Y31684609D01*
X-103405500Y31744995D01*
X-103405500Y32965004D01*
X-103411529Y33025390D01*
X-103411533Y33025415D01*
X-103415832Y33046728D01*
X-103415835Y33046738D01*
X-103433691Y33104753D01*
X-103433692Y33104755D01*
X-103471816Y33195405D01*
X-103478692Y33211756D01*
X-103478715Y33211810D01*
X-103480830Y33216719D01*
X-103544279Y33309342D01*
X-103544671Y33309734D01*
X-103573657Y33338720D01*
X-103573720Y33338782D01*
X-103577510Y33342506D01*
X-103577516Y33342510D01*
X-103668000Y33402169D01*
X-103671244Y33404308D01*
X-103778244Y33449308D01*
X-103836270Y33467167D01*
X-103857592Y33471468D01*
X-103857603Y33471469D01*
X-103857609Y33471470D01*
X-103917995Y33477500D01*
X-103918000Y33477500D01*
X-106045000Y33477500D01*
X-106104916Y33471567D01*
X-106126070Y33467336D01*
X-106183654Y33449769D01*
X-106291654Y33404769D01*
X-106297087Y33402443D01*
X-106389816Y33339149D01*
X-106419361Y33309702D01*
X-106423508Y33305487D01*
X-106485308Y33211756D01*
X-106492183Y33195406D01*
X-106518802Y33155798D01*
X-106642298Y33032304D01*
X-106758575Y32858282D01*
X-106838669Y32664920D01*
X-106879500Y32459647D01*
X-110600500Y32459647D01*
X-110600500Y37380472D01*
X-110600500Y37380475D01*
X-110638016Y37520485D01*
X-110638016Y37520486D01*
X-110638018Y37520489D01*
X-110649078Y37539646D01*
X-110710487Y37646011D01*
X-110710491Y37646016D01*
X-115678796Y42614321D01*
X-107079000Y42614321D01*
X-107079000Y42415678D01*
X-107047924Y42219479D01*
X-107047924Y42219476D01*
X-106986542Y42030562D01*
X-106896358Y41853567D01*
X-106869268Y41816283D01*
X-106255175Y42430376D01*
X-106231208Y42340929D01*
X-106172689Y42239570D01*
X-106089930Y42156811D01*
X-105988571Y42098292D01*
X-105903065Y42075380D01*
X-106559821Y41418624D01*
X-106530662Y41389561D01*
X-106530644Y41389544D01*
X-106491849Y41354681D01*
X-106368386Y41281077D01*
X-106297090Y41251370D01*
X-106242778Y41207415D01*
X-106220853Y41141074D01*
X-106238274Y41073412D01*
X-106289512Y41025909D01*
X-106295982Y41022915D01*
X-106297087Y41022443D01*
X-106389816Y40959149D01*
X-106419361Y40929702D01*
X-106423508Y40925487D01*
X-106485308Y40831756D01*
X-106492183Y40815406D01*
X-106518802Y40775798D01*
X-106642298Y40652304D01*
X-106758575Y40478282D01*
X-106838669Y40284920D01*
X-106879500Y40079647D01*
X-106879500Y39870353D01*
X-106838669Y39665080D01*
X-106798622Y39568399D01*
X-106758576Y39471719D01*
X-106758575Y39471718D01*
X-106642298Y39297696D01*
X-106518803Y39174201D01*
X-106492184Y39134593D01*
X-106485308Y39118244D01*
X-106482963Y39112816D01*
X-106447226Y39060831D01*
X-106419362Y39020299D01*
X-106419357Y39020294D01*
X-106389858Y38990892D01*
X-106385592Y38986722D01*
X-106385589Y38986719D01*
X-106291654Y38925231D01*
X-106291653Y38925230D01*
X-106183652Y38880230D01*
X-106183644Y38880228D01*
X-106126068Y38862663D01*
X-106126065Y38862662D01*
X-106104919Y38858433D01*
X-106104920Y38858433D01*
X-106078286Y38855796D01*
X-106045000Y38852500D01*
X-106001142Y38852500D01*
X-105973267Y38844314D01*
X-105944718Y38838919D01*
X-105940143Y38834588D01*
X-105934103Y38832815D01*
X-105915081Y38810862D01*
X-105893978Y38790885D01*
X-105892471Y38784769D01*
X-105888348Y38780011D01*
X-105884213Y38751257D01*
X-105877262Y38723045D01*
X-105879300Y38717086D01*
X-105878404Y38710853D01*
X-105890473Y38684423D01*
X-105899877Y38656936D01*
X-105905739Y38650996D01*
X-105907429Y38647297D01*
X-105924141Y38631305D01*
X-105926164Y38629702D01*
X-105953739Y38609668D01*
X-105983031Y38584649D01*
X-105984802Y38583247D01*
X-106015148Y38570971D01*
X-106045029Y38557582D01*
X-106049538Y38557050D01*
X-106104916Y38551567D01*
X-106126070Y38547336D01*
X-106183654Y38529769D01*
X-106291654Y38484769D01*
X-106297087Y38482443D01*
X-106389816Y38419149D01*
X-106419361Y38389702D01*
X-106423508Y38385487D01*
X-106485308Y38291756D01*
X-106492183Y38275406D01*
X-106518802Y38235798D01*
X-106642298Y38112304D01*
X-106758575Y37938282D01*
X-106838669Y37744920D01*
X-106879500Y37539647D01*
X-106879500Y37330353D01*
X-106838669Y37125080D01*
X-106798711Y37028613D01*
X-106758576Y36931719D01*
X-106758575Y36931718D01*
X-106642298Y36757696D01*
X-106518803Y36634201D01*
X-106492184Y36594593D01*
X-106485308Y36578244D01*
X-106482963Y36572816D01*
X-106439240Y36509215D01*
X-106419362Y36480299D01*
X-106419357Y36480294D01*
X-106389858Y36450892D01*
X-106385592Y36446722D01*
X-106385589Y36446719D01*
X-106291654Y36385231D01*
X-106291653Y36385230D01*
X-106183652Y36340230D01*
X-106183644Y36340228D01*
X-106126068Y36322663D01*
X-106126065Y36322662D01*
X-106104919Y36318433D01*
X-106104901Y36318431D01*
X-106049583Y36312953D01*
X-106033051Y36306267D01*
X-106015305Y36304509D01*
X-105988573Y36288279D01*
X-105984810Y36286758D01*
X-105984803Y36286752D01*
X-105983003Y36285326D01*
X-105953739Y36260332D01*
X-105926176Y36240306D01*
X-105924142Y36238695D01*
X-105905409Y36212189D01*
X-105885591Y36186488D01*
X-105885362Y36183822D01*
X-105883817Y36181636D01*
X-105882388Y36149204D01*
X-105879612Y36116875D01*
X-105880860Y36114508D01*
X-105880743Y36111834D01*
X-105897077Y36083774D01*
X-105912218Y36055080D01*
X-105914547Y36053764D01*
X-105915894Y36051451D01*
X-105944800Y36036679D01*
X-105973056Y36020723D01*
X-105976887Y36020283D01*
X-105978111Y36019658D01*
X-105980378Y36019882D01*
X-106001142Y36017500D01*
X-106045000Y36017500D01*
X-106104916Y36011567D01*
X-106126070Y36007336D01*
X-106183654Y35989769D01*
X-106291654Y35944769D01*
X-106297087Y35942443D01*
X-106389816Y35879149D01*
X-106419361Y35849702D01*
X-106423508Y35845487D01*
X-106485308Y35751756D01*
X-106492183Y35735406D01*
X-106518802Y35695798D01*
X-106642298Y35572304D01*
X-106758575Y35398282D01*
X-106838669Y35204920D01*
X-106879500Y34999647D01*
X-106879500Y34790353D01*
X-106838669Y34585080D01*
X-106798622Y34488399D01*
X-106758576Y34391719D01*
X-106758575Y34391718D01*
X-106642298Y34217696D01*
X-106518803Y34094201D01*
X-106492184Y34054593D01*
X-106485308Y34038244D01*
X-106482963Y34032816D01*
X-106439240Y33969215D01*
X-106419362Y33940299D01*
X-106419357Y33940294D01*
X-106389858Y33910892D01*
X-106385592Y33906722D01*
X-106385589Y33906719D01*
X-106291654Y33845231D01*
X-106291653Y33845230D01*
X-106183652Y33800230D01*
X-106183644Y33800228D01*
X-106126068Y33782663D01*
X-106126065Y33782662D01*
X-106104919Y33778433D01*
X-106104920Y33778433D01*
X-106078286Y33775796D01*
X-106045000Y33772500D01*
X-106044995Y33772500D01*
X-103917995Y33772500D01*
X-103857609Y33778529D01*
X-103857584Y33778533D01*
X-103836271Y33782832D01*
X-103836261Y33782835D01*
X-103778246Y33800691D01*
X-103778244Y33800692D01*
X-103671189Y33845715D01*
X-103666280Y33847830D01*
X-103573657Y33911279D01*
X-103558934Y33926003D01*
X-103544280Y33940657D01*
X-103544211Y33940727D01*
X-103540493Y33944510D01*
X-103540489Y33944516D01*
X-103478696Y34038238D01*
X-103478693Y34038241D01*
X-103433692Y34145244D01*
X-103433691Y34145246D01*
X-103415835Y34203261D01*
X-103415832Y34203271D01*
X-103411533Y34224584D01*
X-103411529Y34224609D01*
X-103405500Y34284995D01*
X-103405500Y35505004D01*
X-103411529Y35565390D01*
X-103411533Y35565415D01*
X-103415832Y35586728D01*
X-103415835Y35586738D01*
X-103433691Y35644753D01*
X-103433692Y35644755D01*
X-103471816Y35735405D01*
X-103478692Y35751756D01*
X-103478715Y35751810D01*
X-103480830Y35756719D01*
X-103544279Y35849342D01*
X-103544671Y35849734D01*
X-103573657Y35878720D01*
X-103573720Y35878782D01*
X-103577510Y35882506D01*
X-103577516Y35882510D01*
X-103668000Y35942169D01*
X-103671244Y35944308D01*
X-103778244Y35989308D01*
X-103836270Y36007167D01*
X-103857592Y36011468D01*
X-103857603Y36011469D01*
X-103857609Y36011470D01*
X-103917995Y36017500D01*
X-103918000Y36017500D01*
X-103962858Y36017500D01*
X-103990737Y36025686D01*
X-104019293Y36031087D01*
X-104023861Y36035412D01*
X-104029897Y36037185D01*
X-104048924Y36059144D01*
X-104070028Y36079126D01*
X-104071532Y36085234D01*
X-104075652Y36089989D01*
X-104079787Y36118753D01*
X-104086737Y36146968D01*
X-104084700Y36152919D01*
X-104085596Y36159147D01*
X-104073523Y36185581D01*
X-104064116Y36213074D01*
X-104058258Y36219008D01*
X-104056571Y36222703D01*
X-104039849Y36238703D01*
X-104037831Y36240300D01*
X-104010261Y36260332D01*
X-103981126Y36285215D01*
X-103979314Y36286651D01*
X-103948953Y36298928D01*
X-103919092Y36312309D01*
X-103914645Y36312834D01*
X-103914543Y36312844D01*
X-103914541Y36312845D01*
X-103914538Y36312844D01*
X-103857605Y36318530D01*
X-103857584Y36318533D01*
X-103836271Y36322832D01*
X-103836261Y36322835D01*
X-103778246Y36340691D01*
X-103778244Y36340692D01*
X-103671189Y36385715D01*
X-103666280Y36387830D01*
X-103573657Y36451279D01*
X-103558934Y36466003D01*
X-103544280Y36480657D01*
X-103544211Y36480727D01*
X-103540493Y36484510D01*
X-103540489Y36484516D01*
X-103478696Y36578238D01*
X-103478693Y36578241D01*
X-103433692Y36685244D01*
X-103433691Y36685246D01*
X-103415835Y36743261D01*
X-103415832Y36743271D01*
X-103411533Y36764584D01*
X-103411529Y36764609D01*
X-103405500Y36824995D01*
X-103405500Y38045004D01*
X-103411529Y38105390D01*
X-103411533Y38105415D01*
X-103415832Y38126728D01*
X-103415835Y38126738D01*
X-103433691Y38184753D01*
X-103433692Y38184755D01*
X-103471816Y38275405D01*
X-103478692Y38291756D01*
X-103478715Y38291810D01*
X-103480830Y38296719D01*
X-103544279Y38389342D01*
X-103544671Y38389734D01*
X-103573657Y38418720D01*
X-103573720Y38418782D01*
X-103577510Y38422506D01*
X-103577516Y38422510D01*
X-103668000Y38482169D01*
X-103671244Y38484308D01*
X-103778244Y38529308D01*
X-103836270Y38547167D01*
X-103857592Y38551468D01*
X-103857601Y38551468D01*
X-103857608Y38551470D01*
X-103914643Y38557165D01*
X-103931142Y38563845D01*
X-103948812Y38565595D01*
X-103975541Y38581821D01*
X-103979315Y38583349D01*
X-103981114Y38584774D01*
X-104010261Y38609668D01*
X-104037829Y38629697D01*
X-104039850Y38631298D01*
X-104058587Y38657807D01*
X-104078409Y38683512D01*
X-104078637Y38686173D01*
X-104080179Y38688354D01*
X-104081610Y38720788D01*
X-104084388Y38753125D01*
X-104083142Y38755486D01*
X-104083260Y38758156D01*
X-104066923Y38786223D01*
X-104051782Y38814920D01*
X-104049456Y38816233D01*
X-104048113Y38818542D01*
X-104019198Y38833320D01*
X-103990944Y38849277D01*
X-103987122Y38849715D01*
X-103985899Y38850341D01*
X-103983629Y38850116D01*
X-103962858Y38852500D01*
X-103917995Y38852500D01*
X-103857609Y38858529D01*
X-103857584Y38858533D01*
X-103836271Y38862832D01*
X-103836261Y38862835D01*
X-103778246Y38880691D01*
X-103778244Y38880692D01*
X-103671189Y38925715D01*
X-103666280Y38927830D01*
X-103573657Y38991279D01*
X-103544207Y39020730D01*
X-103538237Y39026807D01*
X-103477211Y39060831D01*
X-103407478Y39056460D01*
X-103362107Y39027582D01*
X-87734819Y23400294D01*
X-87701334Y23338971D01*
X-87698500Y23312613D01*
X-87698500Y4596525D01*
X-87667801Y4481955D01*
X-87660984Y4456515D01*
X-87588510Y4330985D01*
X-87588508Y4330983D01*
X-86089016Y2831491D01*
X-86089013Y2831489D01*
X-85963485Y2759016D01*
X-85963486Y2759016D01*
X-85928482Y2749637D01*
X-85823475Y2721500D01*
X-84144740Y2721500D01*
X-84077701Y2701815D01*
X-84034255Y2653795D01*
X-84017971Y2621836D01*
X-84017968Y2621832D01*
X-83903206Y2463874D01*
X-83903202Y2463869D01*
X-83765130Y2325797D01*
X-83765125Y2325793D01*
X-83607167Y2211031D01*
X-83607164Y2211029D01*
X-83588413Y2201475D01*
X-83433187Y2122382D01*
X-83433184Y2122381D01*
X-83247485Y2062045D01*
X-83054634Y2031500D01*
X-83054629Y2031500D01*
X-82859366Y2031500D01*
X-82666514Y2062045D01*
X-82480815Y2122381D01*
X-82480812Y2122382D01*
X-82306832Y2211031D01*
X-82148874Y2325793D01*
X-82148869Y2325797D01*
X-82010797Y2463869D01*
X-82010793Y2463874D01*
X-81896029Y2621834D01*
X-81857553Y2697346D01*
X-81809578Y2748142D01*
X-81751575Y2764968D01*
X-70156755Y3186598D01*
X-70089045Y3169363D01*
X-70052034Y3132905D01*
X-70050835Y3133777D01*
X-69933206Y2971874D01*
X-69933202Y2971869D01*
X-69795130Y2833797D01*
X-69795125Y2833793D01*
X-69696748Y2762319D01*
X-69637164Y2719029D01*
X-69594609Y2697346D01*
X-69463187Y2630382D01*
X-69463184Y2630381D01*
X-69277485Y2570045D01*
X-69084634Y2539500D01*
X-69084629Y2539500D01*
X-68889366Y2539500D01*
X-68696514Y2570045D01*
X-68510815Y2630381D01*
X-68510812Y2630382D01*
X-68336832Y2719031D01*
X-68178874Y2833793D01*
X-68178869Y2833797D01*
X-68040797Y2971869D01*
X-68040793Y2971874D01*
X-67926031Y3129832D01*
X-67837382Y3303812D01*
X-67837381Y3303815D01*
X-67777045Y3489514D01*
X-67746500Y3682365D01*
X-67746500Y3877634D01*
X-67777045Y4070485D01*
X-67837381Y4256184D01*
X-67837382Y4256187D01*
X-67926031Y4430167D01*
X-68040793Y4588125D01*
X-68040797Y4588130D01*
X-68178869Y4726202D01*
X-68178874Y4726206D01*
X-68336832Y4840968D01*
X-68336836Y4840971D01*
X-68450565Y4898919D01*
X-68510812Y4929617D01*
X-68510815Y4929618D01*
X-68603664Y4959786D01*
X-68696516Y4989955D01*
X-68785835Y5004101D01*
X-68889366Y5020500D01*
X-68889371Y5020500D01*
X-69084629Y5020500D01*
X-69084634Y5020500D01*
X-69178125Y5005691D01*
X-69277484Y4989955D01*
X-69463187Y4929617D01*
X-69637164Y4840971D01*
X-69795132Y4726201D01*
X-69933201Y4588132D01*
X-70047971Y4430164D01*
X-70086445Y4354654D01*
X-70134419Y4303858D01*
X-70192423Y4287030D01*
X-81787244Y3865400D01*
X-81854954Y3882635D01*
X-81891964Y3919095D01*
X-81893165Y3918223D01*
X-82010793Y4080125D01*
X-82010797Y4080130D01*
X-82148869Y4218202D01*
X-82148874Y4218206D01*
X-82304100Y4330983D01*
X-82306836Y4332971D01*
X-82420565Y4390919D01*
X-82480812Y4421617D01*
X-82480815Y4421618D01*
X-82588231Y4456519D01*
X-82666516Y4481955D01*
X-82755835Y4496101D01*
X-82859366Y4512500D01*
X-82859371Y4512500D01*
X-83054629Y4512500D01*
X-83054634Y4512500D01*
X-83148125Y4497691D01*
X-83247484Y4481955D01*
X-83433187Y4421617D01*
X-83607164Y4332971D01*
X-83765132Y4218201D01*
X-83903201Y4080132D01*
X-84017971Y3922164D01*
X-84034255Y3890205D01*
X-84082230Y3839409D01*
X-84144740Y3822500D01*
X-85471613Y3822500D01*
X-85538652Y3842185D01*
X-85559294Y3858819D01*
X-86561181Y4860706D01*
X-86594666Y4922029D01*
X-86597500Y4948387D01*
X-86597500Y10989634D01*
X-84197500Y10989634D01*
X-84197500Y10794365D01*
X-84183991Y10709079D01*
X-84166955Y10601516D01*
X-84163820Y10591868D01*
X-84106618Y10415815D01*
X-84106617Y10415812D01*
X-84075919Y10355565D01*
X-84017971Y10241836D01*
X-84017968Y10241832D01*
X-83903206Y10083874D01*
X-83903202Y10083869D01*
X-83765130Y9945797D01*
X-83765125Y9945793D01*
X-83607167Y9831031D01*
X-83607164Y9831029D01*
X-83551426Y9802629D01*
X-83433187Y9742382D01*
X-83433184Y9742381D01*
X-83247485Y9682045D01*
X-83054634Y9651500D01*
X-83054629Y9651500D01*
X-82859366Y9651500D01*
X-82666514Y9682045D01*
X-82480815Y9742381D01*
X-82480812Y9742382D01*
X-82306832Y9831031D01*
X-82148874Y9945793D01*
X-82148869Y9945797D01*
X-82010797Y10083869D01*
X-82010793Y10083874D01*
X-81896031Y10241832D01*
X-81807382Y10415812D01*
X-81807381Y10415815D01*
X-81747045Y10601514D01*
X-81716500Y10794365D01*
X-81716500Y10989634D01*
X-81747045Y11182485D01*
X-81807381Y11368184D01*
X-81807382Y11368187D01*
X-81896031Y11542167D01*
X-82010793Y11700125D01*
X-82010797Y11700130D01*
X-82148869Y11838202D01*
X-82148874Y11838206D01*
X-82306832Y11952968D01*
X-82306836Y11952971D01*
X-82420565Y12010919D01*
X-82480812Y12041617D01*
X-82480815Y12041618D01*
X-82573664Y12071786D01*
X-82666516Y12101955D01*
X-82755835Y12116101D01*
X-82859366Y12132500D01*
X-82859371Y12132500D01*
X-83054629Y12132500D01*
X-83054634Y12132500D01*
X-83148125Y12117691D01*
X-83247484Y12101955D01*
X-83433187Y12041617D01*
X-83607164Y11952971D01*
X-83765132Y11838201D01*
X-83903201Y11700132D01*
X-84017971Y11542164D01*
X-84106617Y11368187D01*
X-84166955Y11182484D01*
X-84178512Y11109516D01*
X-84197500Y10989634D01*
X-86597500Y10989634D01*
X-86597500Y22382129D01*
X-78106500Y22382129D01*
X-78106500Y22261871D01*
X-78083039Y22143924D01*
X-78047444Y22057990D01*
X-78037019Y22032822D01*
X-78037014Y22032813D01*
X-77970206Y21932829D01*
X-77970203Y21932825D01*
X-77885174Y21847796D01*
X-77885170Y21847793D01*
X-77785186Y21780985D01*
X-77785176Y21780980D01*
X-77719754Y21753881D01*
X-77679526Y21727001D01*
X-69573819Y13621294D01*
X-69540334Y13559971D01*
X-69537500Y13533613D01*
X-69537500Y12587739D01*
X-69557185Y12520700D01*
X-69605204Y12477254D01*
X-69637164Y12460971D01*
X-69795132Y12346201D01*
X-69933201Y12208132D01*
X-70047971Y12050164D01*
X-70136617Y11876187D01*
X-70196955Y11690484D01*
X-70212691Y11591125D01*
X-70227500Y11497634D01*
X-70227500Y11302365D01*
X-70209730Y11190174D01*
X-70196955Y11109516D01*
X-70196954Y11109514D01*
X-70136618Y10923815D01*
X-70136617Y10923812D01*
X-70117868Y10887016D01*
X-70047971Y10749836D01*
X-70047968Y10749832D01*
X-69933206Y10591874D01*
X-69933202Y10591869D01*
X-69795130Y10453797D01*
X-69795125Y10453793D01*
X-69637167Y10339031D01*
X-69637164Y10339029D01*
X-69581426Y10310629D01*
X-69463187Y10250382D01*
X-69463184Y10250381D01*
X-69277485Y10190045D01*
X-69084634Y10159500D01*
X-69084629Y10159500D01*
X-68889366Y10159500D01*
X-68696513Y10190045D01*
X-68662398Y10201129D01*
X-68592557Y10203122D01*
X-68536403Y10170878D01*
X-60302819Y1937294D01*
X-60269334Y1875971D01*
X-60266500Y1849613D01*
X-60266500Y-17247475D01*
X-60233667Y-17370007D01*
X-60228984Y-17387485D01*
X-60156510Y-17513015D01*
X-54212014Y-23457510D01*
X-54138630Y-23499878D01*
X-54086485Y-23529984D01*
X-53946475Y-23567500D01*
X-53946474Y-23567500D01*
X-53801526Y-23567500D01*
X-49162500Y-23567500D01*
X-49095461Y-23587185D01*
X-49052014Y-23635206D01*
X-49049351Y-23640434D01*
X-48939300Y-23791907D01*
X-48806907Y-23924300D01*
X-48655434Y-24034351D01*
X-48488609Y-24119353D01*
X-48310542Y-24177210D01*
X-48125616Y-24206500D01*
X-48125615Y-24206500D01*
X-47938385Y-24206500D01*
X-47938384Y-24206500D01*
X-47753458Y-24177210D01*
X-47664424Y-24148281D01*
X-47575393Y-24119354D01*
X-47575390Y-24119353D01*
X-47517620Y-24089917D01*
X-47408566Y-24034351D01*
X-47389212Y-24020290D01*
X-47257099Y-23924305D01*
X-47257094Y-23924301D01*
X-47124698Y-23791905D01*
X-47124694Y-23791900D01*
X-47014651Y-23640437D01*
X-46929646Y-23473609D01*
X-46929645Y-23473606D01*
X-46871790Y-23295543D01*
X-46842500Y-23110615D01*
X-46842500Y-22923384D01*
X-46871790Y-22738456D01*
X-46929645Y-22560393D01*
X-46929646Y-22560390D01*
X-47014651Y-22393562D01*
X-47124694Y-22242099D01*
X-47124698Y-22242094D01*
X-47257094Y-22109698D01*
X-47257099Y-22109694D01*
X-47408562Y-21999651D01*
X-47575390Y-21914646D01*
X-47575393Y-21914645D01*
X-47728401Y-21864931D01*
X-47786076Y-21825494D01*
X-47813275Y-21761135D01*
X-47801361Y-21692289D01*
X-47754116Y-21640813D01*
X-47728401Y-21629069D01*
X-47575393Y-21579354D01*
X-47575390Y-21579353D01*
X-47517620Y-21549917D01*
X-47408566Y-21494351D01*
X-47389212Y-21480290D01*
X-47257099Y-21384305D01*
X-47257094Y-21384301D01*
X-47124698Y-21251905D01*
X-47124694Y-21251900D01*
X-47014651Y-21100437D01*
X-46929646Y-20933609D01*
X-46929645Y-20933606D01*
X-46871790Y-20755543D01*
X-46842500Y-20570615D01*
X-46842500Y-20383384D01*
X-46871790Y-20198456D01*
X-46929645Y-20020393D01*
X-46929646Y-20020390D01*
X-47014651Y-19853562D01*
X-47124694Y-19702099D01*
X-47124698Y-19702094D01*
X-47257094Y-19569698D01*
X-47257099Y-19569694D01*
X-47408564Y-19459649D01*
X-47467860Y-19429436D01*
X-47518655Y-19381461D01*
X-47535450Y-19313640D01*
X-47512912Y-19247505D01*
X-47467859Y-19208467D01*
X-47304008Y-19124980D01*
X-47242360Y-19080191D01*
X-47937699Y-18384853D01*
X-47855605Y-18362856D01*
X-47751396Y-18302691D01*
X-47666309Y-18217604D01*
X-47606144Y-18113395D01*
X-47584146Y-18031299D01*
X-46888807Y-18726638D01*
X-46888806Y-18726638D01*
X-46844021Y-18664995D01*
X-46844020Y-18664993D01*
X-46744762Y-18470191D01*
X-46744761Y-18470188D01*
X-46677202Y-18262259D01*
X-46643000Y-18046316D01*
X-46643000Y-17827683D01*
X-46677202Y-17611740D01*
X-46744761Y-17403811D01*
X-46744762Y-17403808D01*
X-46844023Y-17209001D01*
X-46888807Y-17147360D01*
X-47584146Y-17842699D01*
X-47606144Y-17760605D01*
X-47666309Y-17656396D01*
X-47751396Y-17571309D01*
X-47855605Y-17511144D01*
X-47937699Y-17489146D01*
X-47242360Y-16793807D01*
X-47243530Y-16778936D01*
X-47261612Y-16755490D01*
X-47267593Y-16685877D01*
X-47234989Y-16624081D01*
X-47174151Y-16589722D01*
X-47146062Y-16586499D01*
X-47098136Y-16586499D01*
X-47098121Y-16586497D01*
X-47098117Y-16586497D01*
X-47073012Y-16583586D01*
X-47073010Y-16583585D01*
X-47073009Y-16583585D01*
X-46970235Y-16538206D01*
X-46890794Y-16458765D01*
X-46883679Y-16442652D01*
X-46845415Y-16355993D01*
X-46845415Y-16355991D01*
X-46842500Y-16330868D01*
X-46842500Y-14463143D01*
X-46842502Y-14463117D01*
X-46845413Y-14438012D01*
X-46845415Y-14438008D01*
X-46890793Y-14335235D01*
X-46970234Y-14255794D01*
X-47073007Y-14210415D01*
X-47098131Y-14207500D01*
X-47098135Y-14207500D01*
X-47357500Y-14207500D01*
X-47424539Y-14187815D01*
X-47470294Y-14135011D01*
X-47481500Y-14083500D01*
X-47481500Y-10117527D01*
X-47481500Y-10117525D01*
X-47518752Y-9978500D01*
X-47519016Y-9977513D01*
X-47519017Y-9977512D01*
X-47540107Y-9940984D01*
X-47540108Y-9940983D01*
X-47545709Y-9931282D01*
X-47591490Y-9851985D01*
X-47591491Y-9851983D01*
X-48455983Y-8987491D01*
X-48455986Y-8987489D01*
X-48581514Y-8915016D01*
X-48581513Y-8915016D01*
X-48637519Y-8900009D01*
X-48721525Y-8877500D01*
X-48721528Y-8877500D01*
X-49959613Y-8877500D01*
X-50026652Y-8857815D01*
X-50072407Y-8805011D01*
X-50082351Y-8735853D01*
X-50053326Y-8672297D01*
X-50047294Y-8665819D01*
X-46575491Y-5194016D01*
X-46575489Y-5194013D01*
X-46503016Y-5068485D01*
X-46503014Y-5068480D01*
X-46491627Y-5025984D01*
X-46465500Y-4928474D01*
X-46465500Y10042694D01*
X-46445815Y10109733D01*
X-46410391Y10145796D01*
X-46338696Y10193701D01*
X-46338692Y10193704D01*
X-46190703Y10341693D01*
X-46074423Y10515719D01*
X-45994331Y10709079D01*
X-45994329Y10709087D01*
X-45953500Y10914348D01*
X-45953500Y11123651D01*
X-45994329Y11328912D01*
X-45994331Y11328920D01*
X-46074423Y11522280D01*
X-46190703Y11696306D01*
X-46338693Y11844296D01*
X-46512719Y11960576D01*
X-46651848Y12018205D01*
X-46706080Y12040669D01*
X-46761742Y12051740D01*
X-46835819Y12066476D01*
X-46897730Y12098861D01*
X-46932304Y12159576D01*
X-46928565Y12229346D01*
X-46887699Y12286018D01*
X-46831026Y12310566D01*
X-46720479Y12328075D01*
X-46720476Y12328075D01*
X-46531562Y12389457D01*
X-46354564Y12479643D01*
X-46317283Y12506729D01*
X-46317282Y12506730D01*
X-46969554Y13159000D01*
X-46963339Y13159000D01*
X-46861606Y13186259D01*
X-46770394Y13238920D01*
X-46695920Y13313394D01*
X-46643259Y13404606D01*
X-46616000Y13506339D01*
X-46616000Y13512552D01*
X-45963730Y12860282D01*
X-45963729Y12860283D01*
X-45936643Y12897564D01*
X-45846457Y13074562D01*
X-45785075Y13263476D01*
X-45785075Y13263479D01*
X-45754000Y13459678D01*
X-45754000Y13658321D01*
X-45785075Y13854520D01*
X-45785075Y13854523D01*
X-45846457Y14043437D01*
X-45936641Y14220432D01*
X-45963730Y14257715D01*
X-45963731Y14257716D01*
X-46616000Y13605447D01*
X-46616000Y13611661D01*
X-46643259Y13713394D01*
X-46695920Y13804606D01*
X-46770394Y13879080D01*
X-46861606Y13931741D01*
X-46963339Y13959000D01*
X-46969553Y13959000D01*
X-46317283Y14611268D01*
X-46317283Y14611269D01*
X-46354567Y14638358D01*
X-46531562Y14728542D01*
X-46720477Y14789924D01*
X-46916679Y14821000D01*
X-47115321Y14821000D01*
X-47311520Y14789924D01*
X-47311523Y14789924D01*
X-47500437Y14728542D01*
X-47677425Y14638362D01*
X-47714716Y14611268D01*
X-47062448Y13959000D01*
X-47068661Y13959000D01*
X-47170394Y13931741D01*
X-47261606Y13879080D01*
X-47336080Y13804606D01*
X-47388741Y13713394D01*
X-47416000Y13611661D01*
X-47416000Y13605447D01*
X-48068268Y14257715D01*
X-48095362Y14220425D01*
X-48185542Y14043437D01*
X-48246924Y13854523D01*
X-48246924Y13854520D01*
X-48278000Y13658321D01*
X-48278000Y13459678D01*
X-48246924Y13263479D01*
X-48246924Y13263476D01*
X-48185542Y13074562D01*
X-48095358Y12897567D01*
X-48068268Y12860283D01*
X-47416000Y13512551D01*
X-47416000Y13506339D01*
X-47388741Y13404606D01*
X-47336080Y13313394D01*
X-47261606Y13238920D01*
X-47170394Y13186259D01*
X-47068661Y13159000D01*
X-47062447Y13159000D01*
X-47714716Y12506731D01*
X-47714715Y12506730D01*
X-47677432Y12479641D01*
X-47500437Y12389457D01*
X-47311522Y12328075D01*
X-47200973Y12310566D01*
X-47137838Y12280637D01*
X-47100907Y12221325D01*
X-47101905Y12151463D01*
X-47140515Y12093230D01*
X-47196180Y12066476D01*
X-47242042Y12057353D01*
X-47325920Y12040669D01*
X-47519282Y11960575D01*
X-47693304Y11844298D01*
X-47841298Y11696304D01*
X-47841301Y11696299D01*
X-47889203Y11624610D01*
X-47942815Y11579804D01*
X-47992305Y11569500D01*
X-49276613Y11569500D01*
X-49343652Y11589185D01*
X-49364294Y11605819D01*
X-52271181Y14512706D01*
X-52304666Y14574029D01*
X-52307500Y14600387D01*
X-52307500Y18534278D01*
X-52287815Y18601317D01*
X-52235011Y18647072D01*
X-52178488Y18657062D01*
X-51562962Y19272589D01*
X-51545925Y19209007D01*
X-51480099Y19094993D01*
X-51387007Y19001901D01*
X-51272993Y18936075D01*
X-51209408Y18919037D01*
X-51823819Y18304627D01*
X-51774451Y18268759D01*
X-51588627Y18174075D01*
X-51390272Y18109626D01*
X-51184279Y18077000D01*
X-50975721Y18077000D01*
X-50769727Y18109626D01*
X-50571372Y18174075D01*
X-50385552Y18268757D01*
X-50336180Y18304627D01*
X-50950591Y18919037D01*
X-50887007Y18936075D01*
X-50772993Y19001901D01*
X-50679901Y19094993D01*
X-50614075Y19209007D01*
X-50597037Y19272590D01*
X-49982627Y18658180D01*
X-49946757Y18707552D01*
X-49852075Y18893372D01*
X-49787626Y19091727D01*
X-49755000Y19297720D01*
X-49755000Y19506279D01*
X-49787626Y19712272D01*
X-49852075Y19910627D01*
X-49946759Y20096451D01*
X-49982627Y20145818D01*
X-49982627Y20145819D01*
X-50597037Y19531409D01*
X-50614075Y19594993D01*
X-50679901Y19709007D01*
X-50772993Y19802099D01*
X-50887007Y19867925D01*
X-50950590Y19884962D01*
X-50336179Y20499371D01*
X-50336180Y20499372D01*
X-50385543Y20535236D01*
X-50385556Y20535244D01*
X-50571372Y20629924D01*
X-50769727Y20694373D01*
X-50975721Y20727000D01*
X-51184279Y20727000D01*
X-51390272Y20694373D01*
X-51588627Y20629924D01*
X-51774451Y20535240D01*
X-51823818Y20499372D01*
X-51823818Y20499371D01*
X-51209409Y19884962D01*
X-51272993Y19867925D01*
X-51387007Y19802099D01*
X-51480099Y19709007D01*
X-51545925Y19594993D01*
X-51562962Y19531409D01*
X-52177371Y20145818D01*
X-52177372Y20145818D01*
X-52213240Y20096451D01*
X-52307924Y19910625D01*
X-52337277Y19820289D01*
X-52376714Y19762613D01*
X-52441073Y19735415D01*
X-52509919Y19747330D01*
X-52561395Y19794574D01*
X-52573139Y19820290D01*
X-52576955Y19832036D01*
X-52576957Y19832042D01*
X-52657386Y19989890D01*
X-52761517Y20133214D01*
X-52886786Y20258483D01*
X-53015218Y20351794D01*
X-53015219Y20351796D01*
X-53030105Y20362611D01*
X-53030109Y20362613D01*
X-53030110Y20362614D01*
X-53104340Y20400436D01*
X-53187957Y20443042D01*
X-53187960Y20443043D01*
X-53272201Y20470414D01*
X-53356445Y20497786D01*
X-53531421Y20525500D01*
X-53708579Y20525500D01*
X-53883555Y20497786D01*
X-54052042Y20443042D01*
X-54209890Y20362614D01*
X-54353214Y20258483D01*
X-54478483Y20133214D01*
X-54582614Y19989890D01*
X-54663042Y19832042D01*
X-54717786Y19663555D01*
X-54745500Y19488579D01*
X-54745500Y19311421D01*
X-54717786Y19136445D01*
X-54703256Y19091727D01*
X-54663043Y18967960D01*
X-54663042Y18967957D01*
X-54646797Y18936075D01*
X-54582614Y18810110D01*
X-54478483Y18666786D01*
X-54353214Y18541517D01*
X-54343250Y18534278D01*
X-54209890Y18437386D01*
X-54052042Y18356957D01*
X-54052039Y18356956D01*
X-53883556Y18302214D01*
X-53796067Y18288357D01*
X-53708579Y18274500D01*
X-53708578Y18274500D01*
X-53532500Y18274500D01*
X-53465461Y18254815D01*
X-53419706Y18202011D01*
X-53408500Y18150500D01*
X-53408500Y14393474D01*
X-53408500Y14248526D01*
X-53370984Y14108515D01*
X-53298510Y13982985D01*
X-53298508Y13982983D01*
X-49894016Y10578491D01*
X-49894013Y10578489D01*
X-49768485Y10506016D01*
X-49768486Y10506016D01*
X-49733482Y10496637D01*
X-49628475Y10468500D01*
X-47992305Y10468500D01*
X-47925266Y10448815D01*
X-47889203Y10413390D01*
X-47841301Y10341700D01*
X-47841295Y10341692D01*
X-47693307Y10193704D01*
X-47693303Y10193701D01*
X-47621609Y10145796D01*
X-47576804Y10092183D01*
X-47566500Y10042694D01*
X-47566500Y-4576613D01*
X-47586185Y-4643652D01*
X-47602819Y-4664294D01*
X-50825819Y-7887294D01*
X-50887142Y-7920779D01*
X-50956834Y-7915795D01*
X-51012767Y-7873923D01*
X-51037184Y-7808459D01*
X-51037500Y-7799613D01*
X-51037500Y-2368953D01*
X-51028061Y-2321500D01*
X-51000961Y-2256076D01*
X-51000959Y-2256068D01*
X-50977500Y-2138133D01*
X-50977500Y-2017866D01*
X-51000959Y-1899931D01*
X-51000961Y-1899923D01*
X-51046981Y-1788820D01*
X-51052752Y-1780184D01*
X-51069421Y-1743393D01*
X-51075015Y-1722516D01*
X-51075017Y-1722511D01*
X-51147488Y-1596988D01*
X-51147493Y-1596982D01*
X-51249982Y-1494493D01*
X-51249988Y-1494488D01*
X-51375511Y-1422017D01*
X-51375510Y-1422017D01*
X-51417108Y-1410870D01*
X-51515525Y-1384500D01*
X-51660475Y-1384500D01*
X-51800485Y-1422016D01*
X-51800488Y-1422017D01*
X-51926011Y-1494488D01*
X-51926013Y-1494490D01*
X-51926015Y-1494491D01*
X-52028509Y-1596985D01*
X-52100984Y-1722515D01*
X-52100984Y-1722516D01*
X-52106576Y-1743387D01*
X-52123251Y-1780190D01*
X-52129018Y-1788820D01*
X-52175039Y-1899924D01*
X-52198500Y-2017871D01*
X-52198500Y-2138129D01*
X-52175039Y-2256076D01*
X-52147939Y-2321500D01*
X-52138500Y-2368953D01*
X-52138500Y-8451694D01*
X-52158185Y-8518733D01*
X-52193609Y-8554796D01*
X-52265303Y-8602701D01*
X-52265307Y-8602704D01*
X-52413296Y-8750693D01*
X-52529576Y-8924719D01*
X-52555576Y-8987489D01*
X-52609669Y-9118080D01*
X-52650500Y-9323353D01*
X-52650500Y-9532647D01*
X-52609669Y-9737920D01*
X-52529575Y-9931282D01*
X-52413298Y-10105304D01*
X-52265304Y-10253298D01*
X-52091282Y-10369575D01*
X-51897920Y-10449669D01*
X-51814042Y-10466353D01*
X-51768180Y-10475476D01*
X-51706269Y-10507860D01*
X-51671695Y-10568576D01*
X-51675434Y-10638346D01*
X-51716300Y-10695018D01*
X-51772973Y-10719566D01*
X-51883520Y-10737075D01*
X-51883523Y-10737075D01*
X-52072437Y-10798457D01*
X-52249432Y-10888641D01*
X-52286715Y-10915730D01*
X-52286716Y-10915731D01*
X-51634447Y-11568000D01*
X-51640661Y-11568000D01*
X-51742394Y-11595259D01*
X-51833606Y-11647920D01*
X-51908080Y-11722394D01*
X-51960741Y-11813606D01*
X-51988000Y-11915339D01*
X-51988000Y-11921551D01*
X-52640268Y-11269283D01*
X-52640269Y-11269283D01*
X-52667358Y-11306567D01*
X-52757542Y-11483562D01*
X-52818924Y-11672476D01*
X-52818924Y-11672479D01*
X-52850000Y-11868678D01*
X-52850000Y-12067321D01*
X-52818924Y-12263520D01*
X-52818924Y-12263523D01*
X-52757542Y-12452437D01*
X-52667362Y-12629425D01*
X-52640268Y-12666715D01*
X-51988000Y-12014447D01*
X-51988000Y-12020661D01*
X-51960741Y-12122394D01*
X-51908080Y-12213606D01*
X-51833606Y-12288080D01*
X-51742394Y-12340741D01*
X-51640661Y-12368000D01*
X-51634448Y-12368000D01*
X-52286716Y-13020268D01*
X-52249425Y-13047362D01*
X-52072437Y-13137542D01*
X-51883522Y-13198924D01*
X-51687321Y-13230000D01*
X-51488679Y-13230000D01*
X-51292479Y-13198924D01*
X-51292476Y-13198924D01*
X-51103562Y-13137542D01*
X-50926567Y-13047358D01*
X-50889283Y-13020269D01*
X-50889283Y-13020268D01*
X-51541553Y-12368000D01*
X-51535339Y-12368000D01*
X-51433606Y-12340741D01*
X-51342394Y-12288080D01*
X-51267920Y-12213606D01*
X-51215259Y-12122394D01*
X-51188000Y-12020661D01*
X-51188000Y-12014447D01*
X-50535731Y-12666716D01*
X-50535730Y-12666715D01*
X-50508641Y-12629432D01*
X-50418457Y-12452437D01*
X-50357075Y-12263523D01*
X-50357075Y-12263520D01*
X-50326000Y-12067321D01*
X-50326000Y-11868678D01*
X-50357075Y-11672479D01*
X-50357075Y-11672476D01*
X-50418457Y-11483562D01*
X-50508643Y-11306564D01*
X-50535729Y-11269283D01*
X-50535730Y-11269282D01*
X-51188000Y-11921552D01*
X-51188000Y-11915339D01*
X-51215259Y-11813606D01*
X-51267920Y-11722394D01*
X-51342394Y-11647920D01*
X-51433606Y-11595259D01*
X-51535339Y-11568000D01*
X-51541554Y-11568000D01*
X-50889282Y-10915730D01*
X-50889283Y-10915729D01*
X-50926564Y-10888643D01*
X-51103562Y-10798457D01*
X-51292478Y-10737075D01*
X-51403026Y-10719566D01*
X-51466161Y-10689637D01*
X-51503092Y-10630325D01*
X-51502094Y-10560463D01*
X-51463484Y-10502230D01*
X-51407819Y-10475476D01*
X-51333742Y-10460740D01*
X-51278080Y-10449669D01*
X-51181399Y-10409622D01*
X-51084719Y-10369576D01*
X-50910693Y-10253296D01*
X-50762704Y-10105307D01*
X-50762698Y-10105299D01*
X-50714797Y-10033610D01*
X-50661185Y-9988804D01*
X-50611695Y-9978500D01*
X-49073387Y-9978500D01*
X-49006348Y-9998185D01*
X-48985706Y-10014819D01*
X-48618819Y-10381706D01*
X-48585334Y-10443029D01*
X-48582500Y-10469387D01*
X-48582500Y-14083500D01*
X-48602185Y-14150539D01*
X-48654989Y-14196294D01*
X-48706500Y-14207500D01*
X-48965856Y-14207500D01*
X-48965882Y-14207502D01*
X-48990987Y-14210413D01*
X-48990991Y-14210415D01*
X-49093764Y-14255793D01*
X-49093765Y-14255794D01*
X-49173206Y-14335235D01*
X-49194529Y-14383528D01*
X-49216566Y-14433437D01*
X-49218585Y-14438009D01*
X-49221500Y-14463135D01*
X-49221499Y-16330864D01*
X-49221497Y-16330879D01*
X-49221497Y-16330882D01*
X-49218586Y-16355987D01*
X-49218585Y-16355988D01*
X-49218585Y-16355991D01*
X-49173206Y-16458765D01*
X-49093765Y-16538206D01*
X-48990991Y-16583585D01*
X-48965865Y-16586500D01*
X-48917936Y-16586499D01*
X-48850901Y-16606182D01*
X-48805145Y-16658985D01*
X-48795200Y-16728144D01*
X-48820899Y-16784422D01*
X-48821638Y-16793807D01*
X-48126298Y-17489146D01*
X-48208395Y-17511144D01*
X-48312604Y-17571309D01*
X-48397691Y-17656396D01*
X-48457856Y-17760605D01*
X-48479853Y-17842698D01*
X-49175191Y-17147360D01*
X-49219980Y-17209008D01*
X-49319237Y-17403808D01*
X-49319238Y-17403811D01*
X-49386797Y-17611740D01*
X-49421000Y-17827683D01*
X-49421000Y-18046316D01*
X-49386797Y-18262259D01*
X-49319238Y-18470188D01*
X-49319237Y-18470191D01*
X-49219978Y-18664995D01*
X-49175191Y-18726638D01*
X-49175191Y-18726639D01*
X-48479853Y-18031300D01*
X-48457856Y-18113395D01*
X-48397691Y-18217604D01*
X-48312604Y-18302691D01*
X-48208395Y-18362856D01*
X-48126300Y-18384853D01*
X-48821639Y-19080191D01*
X-48759995Y-19124978D01*
X-48596140Y-19208467D01*
X-48545344Y-19256441D01*
X-48528549Y-19324262D01*
X-48551086Y-19390397D01*
X-48596140Y-19429437D01*
X-48655434Y-19459649D01*
X-48655436Y-19459650D01*
X-48655437Y-19459651D01*
X-48806900Y-19569694D01*
X-48806905Y-19569698D01*
X-48939301Y-19702094D01*
X-48939305Y-19702099D01*
X-49049348Y-19853561D01*
X-49052014Y-19858793D01*
X-49099988Y-19909590D01*
X-49162500Y-19926500D01*
X-50927613Y-19926500D01*
X-50994652Y-19906815D01*
X-51015294Y-19890181D01*
X-55065181Y-15840294D01*
X-55098666Y-15778971D01*
X-55101500Y-15752613D01*
X-55101500Y18964473D01*
X-55102561Y18972534D01*
X-55099115Y18972987D01*
X-55097816Y19026865D01*
X-55097647Y19027388D01*
X-55062214Y19136441D01*
X-55034500Y19311421D01*
X-55034500Y19488578D01*
X-55037304Y19506279D01*
X-55062214Y19663555D01*
X-55076982Y19709007D01*
X-55116956Y19832039D01*
X-55116957Y19832042D01*
X-55197386Y19989890D01*
X-55301517Y20133214D01*
X-55426786Y20258483D01*
X-55570110Y20362614D01*
X-55647529Y20402061D01*
X-55727957Y20443042D01*
X-55727960Y20443043D01*
X-55812201Y20470414D01*
X-55896445Y20497786D01*
X-56071421Y20525500D01*
X-56248579Y20525500D01*
X-56423555Y20497786D01*
X-56592042Y20443042D01*
X-56749890Y20362614D01*
X-56893214Y20258483D01*
X-57018483Y20133214D01*
X-57122614Y19989890D01*
X-57203042Y19832042D01*
X-57257786Y19663555D01*
X-57285500Y19488579D01*
X-57285500Y19311421D01*
X-57257786Y19136445D01*
X-57243256Y19091727D01*
X-57203043Y18967960D01*
X-57203042Y18967957D01*
X-57186797Y18936075D01*
X-57122614Y18810110D01*
X-57018483Y18666786D01*
X-56893214Y18541517D01*
X-56883250Y18534278D01*
X-56749890Y18437386D01*
X-56592042Y18356957D01*
X-56592039Y18356956D01*
X-56423556Y18302214D01*
X-56307102Y18283769D01*
X-56243967Y18253840D01*
X-56207036Y18194528D01*
X-56202500Y18161296D01*
X-56202500Y-15959526D01*
X-56202500Y-16104474D01*
X-56164984Y-16244485D01*
X-56092510Y-16370015D01*
X-51545015Y-20917510D01*
X-51419485Y-20989984D01*
X-51279475Y-21027500D01*
X-49162500Y-21027500D01*
X-49095461Y-21047185D01*
X-49052014Y-21095206D01*
X-49049351Y-21100434D01*
X-48939300Y-21251907D01*
X-48806907Y-21384300D01*
X-48655434Y-21494351D01*
X-48488609Y-21579353D01*
X-48488606Y-21579354D01*
X-48335598Y-21629069D01*
X-48277923Y-21668506D01*
X-48250724Y-21732865D01*
X-48262638Y-21801711D01*
X-48309882Y-21853187D01*
X-48335598Y-21864931D01*
X-48488606Y-21914645D01*
X-48488609Y-21914646D01*
X-48601988Y-21972416D01*
X-48655434Y-21999649D01*
X-48655436Y-21999650D01*
X-48655437Y-21999651D01*
X-48806900Y-22109694D01*
X-48806905Y-22109698D01*
X-48939301Y-22242094D01*
X-48939305Y-22242099D01*
X-49049348Y-22393561D01*
X-49052014Y-22398793D01*
X-49099988Y-22449590D01*
X-49162500Y-22466500D01*
X-53594614Y-22466500D01*
X-53661653Y-22446815D01*
X-53682295Y-22430181D01*
X-59129181Y-16983294D01*
X-59162666Y-16921971D01*
X-59165500Y-16895613D01*
X-59165500Y2201472D01*
X-59165500Y2201475D01*
X-59203016Y2341485D01*
X-59275490Y2467015D01*
X-67446294Y10637819D01*
X-67479779Y10699142D01*
X-67474795Y10768834D01*
X-67432923Y10824767D01*
X-67367459Y10849184D01*
X-67358613Y10849500D01*
X-66627528Y10849500D01*
X-66627526Y10849500D01*
X-66627525Y10849500D01*
X-66522517Y10877637D01*
X-66487514Y10887016D01*
X-66361986Y10959489D01*
X-66361983Y10959491D01*
X-59056320Y18265154D01*
X-58994997Y18298639D01*
X-58949241Y18299946D01*
X-58814009Y18278527D01*
X-58788579Y18274500D01*
X-58788578Y18274500D01*
X-58611422Y18274500D01*
X-58611421Y18274500D01*
X-58552900Y18283769D01*
X-58436443Y18302214D01*
X-58267960Y18356956D01*
X-58267957Y18356957D01*
X-58110109Y18437386D01*
X-57976750Y18534278D01*
X-57966786Y18541517D01*
X-57966784Y18541519D01*
X-57966783Y18541519D01*
X-57841519Y18666783D01*
X-57841519Y18666784D01*
X-57841517Y18666786D01*
X-57796796Y18728338D01*
X-57737386Y18810109D01*
X-57656957Y18967957D01*
X-57656956Y18967960D01*
X-57602214Y19136443D01*
X-57574500Y19311421D01*
X-57574500Y19488578D01*
X-57577304Y19506279D01*
X-57602214Y19663555D01*
X-57616982Y19709007D01*
X-57656956Y19832039D01*
X-57656957Y19832042D01*
X-57737386Y19989890D01*
X-57841517Y20133214D01*
X-57966786Y20258483D01*
X-58110110Y20362614D01*
X-58187529Y20402061D01*
X-58267957Y20443042D01*
X-58267960Y20443043D01*
X-58352201Y20470414D01*
X-58436445Y20497786D01*
X-58611421Y20525500D01*
X-58788579Y20525500D01*
X-58963555Y20497786D01*
X-59132042Y20443042D01*
X-59289890Y20362614D01*
X-59433214Y20258483D01*
X-59558483Y20133214D01*
X-59662614Y19989890D01*
X-59743042Y19832042D01*
X-59797786Y19663555D01*
X-59825500Y19488579D01*
X-59825500Y19311421D01*
X-59800052Y19150754D01*
X-59809006Y19081464D01*
X-59834841Y19043681D01*
X-65719525Y13159000D01*
X-66891706Y11986819D01*
X-66953029Y11953334D01*
X-66979387Y11950500D01*
X-67799260Y11950500D01*
X-67866299Y11970185D01*
X-67909745Y12018205D01*
X-67926029Y12050164D01*
X-67985849Y12132500D01*
X-68040793Y12208125D01*
X-68040797Y12208130D01*
X-68178869Y12346202D01*
X-68178874Y12346206D01*
X-68336831Y12460968D01*
X-68336833Y12460969D01*
X-68336836Y12460971D01*
X-68368794Y12477254D01*
X-68419590Y12525227D01*
X-68436500Y12587739D01*
X-68436500Y13885472D01*
X-68436500Y13885475D01*
X-68474016Y14025485D01*
X-68474016Y14025486D01*
X-68474017Y14025487D01*
X-68500859Y14071979D01*
X-68500862Y14071984D01*
X-68546490Y14151015D01*
X-76901001Y22505526D01*
X-76927881Y22545754D01*
X-76954980Y22611176D01*
X-76954985Y22611186D01*
X-77021793Y22711170D01*
X-77021796Y22711174D01*
X-77106825Y22796203D01*
X-77106829Y22796206D01*
X-77206813Y22863014D01*
X-77206822Y22863019D01*
X-77231990Y22873444D01*
X-77317924Y22909039D01*
X-77435866Y22932499D01*
X-77435870Y22932500D01*
X-77435871Y22932500D01*
X-77556129Y22932500D01*
X-77556130Y22932500D01*
X-77556131Y22932499D01*
X-77674076Y22909039D01*
X-77785180Y22863018D01*
X-77885171Y22796206D01*
X-77970206Y22711171D01*
X-78037018Y22611180D01*
X-78083039Y22500076D01*
X-78106500Y22382129D01*
X-86597500Y22382129D01*
X-86597500Y23664472D01*
X-86597500Y23664475D01*
X-86635016Y23804485D01*
X-86707490Y23930015D01*
X-103192985Y40415510D01*
X-103318515Y40487984D01*
X-103318517Y40487984D01*
X-103318518Y40487985D01*
X-103326027Y40491096D01*
X-103325162Y40493183D01*
X-103374817Y40523447D01*
X-103405348Y40586293D01*
X-103406452Y40594539D01*
X-103411529Y40645392D01*
X-103411533Y40645415D01*
X-103415832Y40666728D01*
X-103415835Y40666738D01*
X-103433691Y40724753D01*
X-103433692Y40724755D01*
X-103471816Y40815405D01*
X-103478692Y40831756D01*
X-103478715Y40831810D01*
X-103480830Y40836719D01*
X-103544279Y40929342D01*
X-103544671Y40929734D01*
X-103573657Y40958720D01*
X-103573720Y40958782D01*
X-103577510Y40962506D01*
X-103577516Y40962510D01*
X-103668414Y41022442D01*
X-103671244Y41024308D01*
X-103671255Y41024312D01*
X-103676299Y41027007D01*
X-103675133Y41029189D01*
X-103721067Y41066608D01*
X-103742780Y41133019D01*
X-103725142Y41200625D01*
X-103673753Y41247964D01*
X-103666909Y41251090D01*
X-103593908Y41281791D01*
X-103547655Y41304074D01*
X-103547653Y41304075D01*
X-103432596Y41390205D01*
X-103432578Y41390221D01*
X-103403224Y41419575D01*
X-103368804Y41457686D01*
X-103294792Y41580905D01*
X-103249796Y41687896D01*
X-103249792Y41687906D01*
X-103220270Y41783826D01*
X-103215972Y41805134D01*
X-103215968Y41805161D01*
X-103206000Y41904995D01*
X-103206000Y43125004D01*
X-103215968Y43224838D01*
X-103215972Y43224865D01*
X-103220270Y43246173D01*
X-103249792Y43342093D01*
X-103249796Y43342103D01*
X-103294788Y43449085D01*
X-103317074Y43495344D01*
X-103317075Y43495346D01*
X-103403205Y43610403D01*
X-103403221Y43610421D01*
X-103432575Y43639775D01*
X-103470686Y43674195D01*
X-103593905Y43748207D01*
X-103666954Y43778929D01*
X-103721120Y43823063D01*
X-103742826Y43889476D01*
X-103725181Y43957081D01*
X-103673787Y44004414D01*
X-103667960Y44007107D01*
X-103666281Y44007830D01*
X-103573657Y44071279D01*
X-103558934Y44086003D01*
X-103544280Y44100657D01*
X-103544211Y44100727D01*
X-103540493Y44104510D01*
X-103540489Y44104516D01*
X-103478696Y44198238D01*
X-103478693Y44198241D01*
X-103433692Y44305244D01*
X-103433691Y44305246D01*
X-103415835Y44363261D01*
X-103415832Y44363271D01*
X-103411533Y44384584D01*
X-103411529Y44384609D01*
X-103405500Y44444995D01*
X-103405500Y45665004D01*
X-103411529Y45725390D01*
X-103411533Y45725415D01*
X-103415832Y45746728D01*
X-103415835Y45746738D01*
X-103433691Y45804753D01*
X-103433692Y45804755D01*
X-103471816Y45895405D01*
X-103478692Y45911756D01*
X-103478715Y45911810D01*
X-103480830Y45916719D01*
X-103544279Y46009342D01*
X-103544671Y46009734D01*
X-103573657Y46038720D01*
X-103573720Y46038782D01*
X-103577510Y46042506D01*
X-103577516Y46042510D01*
X-103668000Y46102169D01*
X-103671244Y46104308D01*
X-103778244Y46149308D01*
X-103836270Y46167167D01*
X-103857592Y46171468D01*
X-103857603Y46171469D01*
X-103857609Y46171470D01*
X-103917995Y46177500D01*
X-103918000Y46177500D01*
X-106045000Y46177500D01*
X-106104916Y46171567D01*
X-106126070Y46167336D01*
X-106183654Y46149769D01*
X-106291654Y46104769D01*
X-106297087Y46102443D01*
X-106389816Y46039149D01*
X-106419361Y46009702D01*
X-106423508Y46005487D01*
X-106485308Y45911756D01*
X-106492183Y45895406D01*
X-106518802Y45855798D01*
X-106642298Y45732304D01*
X-106758575Y45558282D01*
X-106838669Y45364920D01*
X-106879500Y45159647D01*
X-106879500Y44950353D01*
X-106838669Y44745080D01*
X-106798622Y44648399D01*
X-106758576Y44551719D01*
X-106758575Y44551718D01*
X-106642298Y44377696D01*
X-106518803Y44254201D01*
X-106492184Y44214593D01*
X-106485308Y44198244D01*
X-106482963Y44192816D01*
X-106439240Y44129215D01*
X-106419362Y44100299D01*
X-106419357Y44100294D01*
X-106389858Y44070892D01*
X-106385592Y44066722D01*
X-106385589Y44066719D01*
X-106291654Y44005231D01*
X-106286776Y44002647D01*
X-106236751Y43953869D01*
X-106221038Y43885789D01*
X-106244627Y43820022D01*
X-106297132Y43778611D01*
X-106368408Y43748912D01*
X-106368410Y43748911D01*
X-106415434Y43726400D01*
X-106415435Y43726399D01*
X-106530649Y43640450D01*
X-106559820Y43611374D01*
X-106559821Y43611373D01*
X-105903065Y42954619D01*
X-105988571Y42931708D01*
X-106089930Y42873189D01*
X-106172689Y42790430D01*
X-106231208Y42689071D01*
X-106255175Y42599622D01*
X-106869268Y43213715D01*
X-106896362Y43176425D01*
X-106986542Y42999437D01*
X-107047924Y42810523D01*
X-107047924Y42810520D01*
X-107079000Y42614321D01*
X-115678796Y42614321D01*
X-118559983Y45495508D01*
X-118559985Y45495510D01*
X-118685515Y45567984D01*
X-118825525Y45605500D01*
X-118825528Y45605500D01*
X-120080695Y45605500D01*
X-120147734Y45625185D01*
X-120183797Y45660610D01*
X-120231698Y45732299D01*
X-120231700Y45732302D01*
X-120246136Y45746738D01*
X-120355195Y45855797D01*
X-120381815Y45895405D01*
X-120388711Y45911803D01*
X-120391032Y45917176D01*
X-120391035Y45917181D01*
X-120454637Y46009700D01*
X-120454642Y46009705D01*
X-120484176Y46039141D01*
X-120488407Y46043277D01*
X-120488410Y46043280D01*
X-120582346Y46104769D01*
X-120690346Y46149769D01*
X-120747930Y46167336D01*
X-120747932Y46167336D01*
X-120747934Y46167337D01*
X-120758507Y46169451D01*
X-120769084Y46171567D01*
X-120829000Y46177500D01*
X-122956000Y46177500D01*
X-122956005Y46177500D01*
X-123016390Y46171470D01*
X-123016393Y46171469D01*
X-123016408Y46171468D01*
X-123037730Y46167167D01*
X-123095756Y46149308D01*
X-123202756Y46104308D01*
X-123207720Y46102169D01*
X-123300343Y46038720D01*
X-123329720Y46009343D01*
X-123333508Y46005487D01*
X-123395308Y45911756D01*
X-123440308Y45804756D01*
X-123458167Y45746730D01*
X-123462468Y45725408D01*
X-123468500Y45665000D01*
X-125509500Y45665000D01*
X-125509500Y47602952D01*
X-125489815Y47669991D01*
X-125437011Y47715746D01*
X-125384995Y47726951D01*
X-33032397Y47351024D01*
G37*
%TD.AperFunction*%
%TD*%
M02*
