%TF.GenerationSoftware,KiCad,Pcbnew,9.0.8-9.0.8~ubuntu22.04.1*%
%TF.CreationDate,2026-04-04T02:28:37+02:00*%
%TF.ProjectId,PCB_PCB_hermes_2026-04-04,5043425f-5043-4425-9f68-65726d65735f,rev?*%
%TF.SameCoordinates,Original*%
%TF.FileFunction,Soldermask,Bot*%
%TF.FilePolarity,Negative*%
%FSLAX46Y46*%
G04 Gerber Fmt 4.6, Leading zero omitted, Abs format (unit mm)*
G04 Created by KiCad (PCBNEW 9.0.8-9.0.8~ubuntu22.04.1) date 2026-04-04 02:28:37*
%MOMM*%
%LPD*%
G01*
G04 APERTURE LIST*
%ADD10C,1.880000*%
%ADD11C,1.700000*%
%ADD12C,4.000000*%
%ADD13C,3.000000*%
%ADD14C,1.524000*%
%ADD15R,1.778000X1.778000*%
%ADD16C,1.778000*%
%ADD17C,1.650000*%
G04 APERTURE END LIST*
D10*
%TO.C,R2*%
X-82957000Y10892000D03*
X-82957000Y3272000D03*
%TD*%
D11*
%TO.C,SW2*%
X-88291000Y-17810000D03*
D12*
X-83211000Y-17810000D03*
D11*
X-78131000Y-17810000D03*
D13*
X-87021000Y-15270000D03*
X-80671000Y-12730000D03*
%TD*%
D14*
%TO.C,C1*%
X-51588000Y-9428000D03*
X-51588000Y-11968000D03*
%TD*%
%TO.C,D2*%
X-110897000Y7336000D03*
X-110897000Y-284000D03*
%TD*%
D10*
%TO.C,R1*%
X-68987000Y11400000D03*
X-68987000Y3780000D03*
%TD*%
D11*
%TO.C,SW1*%
X-115596000Y-17556000D03*
D12*
X-110516000Y-17556000D03*
D11*
X-105436000Y-17556000D03*
D13*
X-114326000Y-15016000D03*
X-107976000Y-12476000D03*
%TD*%
D15*
%TO.C,A1*%
X-48032000Y-15397000D03*
D16*
X-48032000Y-17937000D03*
X-48032000Y-20477000D03*
X-48032000Y-23017000D03*
%TD*%
D14*
%TO.C,D1*%
X-101118000Y8225000D03*
X-101118000Y605000D03*
%TD*%
%TO.C,C2*%
X-47016000Y11019000D03*
X-47016000Y13559000D03*
%TD*%
D17*
%TO.C,OLED1*%
X-51080000Y19402000D03*
X-53620000Y19400000D03*
X-56160000Y19400000D03*
X-58700000Y19400000D03*
%TD*%
D14*
%TO.C,U1*%
X-121057000Y45055000D03*
X-121057000Y42515000D03*
X-121057000Y39975000D03*
X-121057000Y37435000D03*
X-121057000Y34895000D03*
X-121057000Y32355000D03*
X-121057000Y29815000D03*
X-105817000Y29815000D03*
X-105817000Y32355000D03*
X-105817000Y34895000D03*
X-105817000Y37435000D03*
X-105817000Y39975000D03*
X-105817000Y42515000D03*
X-105817000Y45055000D03*
%TD*%
M02*
