%TF.GenerationSoftware,KiCad,Pcbnew,9.0.8-9.0.8~ubuntu22.04.1*%
%TF.CreationDate,2026-04-04T02:28:36+02:00*%
%TF.ProjectId,PCB_PCB_hermes_2026-04-04,5043425f-5043-4425-9f68-65726d65735f,rev?*%
%TF.SameCoordinates,Original*%
%TF.FileFunction,Legend,Bot*%
%TF.FilePolarity,Positive*%
%FSLAX46Y46*%
G04 Gerber Fmt 4.6, Leading zero omitted, Abs format (unit mm)*
G04 Created by KiCad (PCBNEW 9.0.8-9.0.8~ubuntu22.04.1) date 2026-04-04 02:28:36*
%MOMM*%
%LPD*%
G01*
G04 APERTURE LIST*
%ADD10C,0.203000*%
G04 APERTURE END LIST*
D10*
X-102944372Y37568409D02*
X-102944372Y36711266D01*
X-102944372Y37139837D02*
X-101444372Y37139837D01*
X-101444372Y37139837D02*
X-101658658Y36996980D01*
X-101658658Y36996980D02*
X-101801515Y36854123D01*
X-101801515Y36854123D02*
X-101872944Y36711266D01*
X-102944372Y38996980D02*
X-102944372Y38139837D01*
X-102944372Y38568408D02*
X-101444372Y38568408D01*
X-101444372Y38568408D02*
X-101658658Y38425551D01*
X-101658658Y38425551D02*
X-101801515Y38282694D01*
X-101801515Y38282694D02*
X-101872944Y38139837D01*
X-100936372Y38671837D02*
X-100936372Y39600409D01*
X-100936372Y39600409D02*
X-101507801Y39100409D01*
X-101507801Y39100409D02*
X-101507801Y39314694D01*
X-101507801Y39314694D02*
X-101579229Y39457552D01*
X-101579229Y39457552D02*
X-101650658Y39528980D01*
X-101650658Y39528980D02*
X-101793515Y39600409D01*
X-101793515Y39600409D02*
X-102150658Y39600409D01*
X-102150658Y39600409D02*
X-102293515Y39528980D01*
X-102293515Y39528980D02*
X-102364944Y39457552D01*
X-102364944Y39457552D02*
X-102436372Y39314694D01*
X-102436372Y39314694D02*
X-102436372Y38886123D01*
X-102436372Y38886123D02*
X-102364944Y38743266D01*
X-102364944Y38743266D02*
X-102293515Y38671837D01*
X-102293515Y40243265D02*
X-102364944Y40314694D01*
X-102364944Y40314694D02*
X-102436372Y40243265D01*
X-102436372Y40243265D02*
X-102364944Y40171837D01*
X-102364944Y40171837D02*
X-102293515Y40243265D01*
X-102293515Y40243265D02*
X-102436372Y40243265D01*
X-100936372Y40814694D02*
X-100936372Y41743266D01*
X-100936372Y41743266D02*
X-101507801Y41243266D01*
X-101507801Y41243266D02*
X-101507801Y41457551D01*
X-101507801Y41457551D02*
X-101579229Y41600409D01*
X-101579229Y41600409D02*
X-101650658Y41671837D01*
X-101650658Y41671837D02*
X-101793515Y41743266D01*
X-101793515Y41743266D02*
X-102150658Y41743266D01*
X-102150658Y41743266D02*
X-102293515Y41671837D01*
X-102293515Y41671837D02*
X-102364944Y41600409D01*
X-102364944Y41600409D02*
X-102436372Y41457551D01*
X-102436372Y41457551D02*
X-102436372Y41028980D01*
X-102436372Y41028980D02*
X-102364944Y40886123D01*
X-102364944Y40886123D02*
X-102293515Y40814694D01*
X-122532627Y34777448D02*
X-124032627Y34777448D01*
X-122604056Y34777448D02*
X-122532627Y34920305D01*
X-122532627Y34920305D02*
X-122532627Y35206019D01*
X-122532627Y35206019D02*
X-122604056Y35348876D01*
X-122604056Y35348876D02*
X-122675484Y35420305D01*
X-122675484Y35420305D02*
X-122818341Y35491733D01*
X-122818341Y35491733D02*
X-123246913Y35491733D01*
X-123246913Y35491733D02*
X-123389770Y35420305D01*
X-123389770Y35420305D02*
X-123461198Y35348876D01*
X-123461198Y35348876D02*
X-123532627Y35206019D01*
X-123532627Y35206019D02*
X-123532627Y34920305D01*
X-123532627Y34920305D02*
X-123461198Y34777448D01*
X-122532627Y33420305D02*
X-123318341Y33420305D01*
X-123318341Y33420305D02*
X-123461198Y33491733D01*
X-123461198Y33491733D02*
X-123532627Y33634590D01*
X-123532627Y33634590D02*
X-123532627Y33920305D01*
X-123532627Y33920305D02*
X-123461198Y34063162D01*
X-122604056Y33420305D02*
X-122532627Y33563162D01*
X-122532627Y33563162D02*
X-122532627Y33920305D01*
X-122532627Y33920305D02*
X-122604056Y34063162D01*
X-122604056Y34063162D02*
X-122746913Y34134590D01*
X-122746913Y34134590D02*
X-122889770Y34134590D01*
X-122889770Y34134590D02*
X-123032627Y34063162D01*
X-123032627Y34063162D02*
X-123104056Y33920305D01*
X-123104056Y33920305D02*
X-123104056Y33563162D01*
X-123104056Y33563162D02*
X-123175484Y33420305D01*
X-122604056Y31475448D02*
X-122532627Y31618305D01*
X-122532627Y31618305D02*
X-122532627Y31904019D01*
X-122532627Y31904019D02*
X-122604056Y32046876D01*
X-122604056Y32046876D02*
X-122675484Y32118305D01*
X-122675484Y32118305D02*
X-122818341Y32189733D01*
X-122818341Y32189733D02*
X-123246913Y32189733D01*
X-123246913Y32189733D02*
X-123389770Y32118305D01*
X-123389770Y32118305D02*
X-123461198Y32046876D01*
X-123461198Y32046876D02*
X-123532627Y31904019D01*
X-123532627Y31904019D02*
X-123532627Y31618305D01*
X-123532627Y31618305D02*
X-123461198Y31475448D01*
X-122532627Y30618305D02*
X-122604056Y30761162D01*
X-122604056Y30761162D02*
X-122746913Y30832591D01*
X-122746913Y30832591D02*
X-124032627Y30832591D01*
M02*
