M48
METRIC
T1C0.310
T2C0.600
T3C0.800
T4C0.889
T5C0.899
T6C0.914
T7C1.000
T8C1.500
T9C1.700
T10C4.000
%
G90
G05
T1
X-77.496Y22.322
X-51.588Y-2.078
X9.88Y-17.683
T2
X-110.897Y7.336
X-110.897Y-0.284
X-101.118Y8.225
X-101.118Y0.605
T3
X-51.588Y-9.428
X-51.588Y-11.968
X-47.016Y13.559
X-47.016Y11.019
T5
X-82.957Y10.892
X-82.957Y3.272
X-68.987Y11.4
X-68.987Y3.78
T6
X-48.032Y-15.397
X-48.032Y-17.937
X-48.032Y-20.477
X-48.032Y-23.017
T7
X-58.7Y19.4
X-56.16Y19.4
X-53.62Y19.4
X-51.08Y19.402
T8
X-114.326Y-15.016
X-107.976Y-12.476
X-87.021Y-15.27
X-80.671Y-12.73
T9
X-115.596Y-17.556
X-105.436Y-17.556
X-88.291Y-17.81
X-78.131Y-17.81
T10
X-110.516Y-17.556
X-83.211Y-17.81
T4
G00X-121.057Y45.052
M15
G01X-121.057Y45.057
M16
G05
G00X-121.057Y42.512
M15
G01X-121.057Y42.517
M16
G05
G00X-121.057Y39.972
M15
G01X-121.057Y39.977
M16
G05
G00X-121.057Y37.432
M15
G01X-121.057Y37.438
M16
G05
G00X-121.057Y34.892
M15
G01X-121.057Y34.898
M16
G05
G00X-121.057Y32.352
M15
G01X-121.057Y32.358
M16
G05
G00X-121.057Y29.812
M15
G01X-121.057Y29.817
M16
G05
G00X-105.817Y45.057
M15
G01X-105.817Y45.052
M16
G05
G00X-105.817Y42.517
M15
G01X-105.817Y42.512
M16
G05
G00X-105.817Y39.977
M15
G01X-105.817Y39.972
M16
G05
G00X-105.817Y37.438
M15
G01X-105.817Y37.432
M16
G05
G00X-105.817Y34.898
M15
G01X-105.817Y34.892
M16
G05
G00X-105.817Y32.358
M15
G01X-105.817Y32.352
M16
G05
G00X-105.817Y29.817
M15
G01X-105.817Y29.812
M16
G05
M30
